<?xml version="1.0" encoding="UTF-8" standalone="no"?>
<!-- Created with Inkscape (http://www.inkscape.org/) -->

<svg
   version="1.1"
   id="svg1"
   width="256"
   height="256"
   viewBox="0 0 256 256"
   sodipodi:docname="logo.svg"
   inkscape:version="1.4.4 (dcaf3e7d9e, 2026-05-05)"
   xmlns:inkscape="http://www.inkscape.org/namespaces/inkscape"
   xmlns:sodipodi="http://sodipodi.sourceforge.net/DTD/sodipodi-0.dtd"
   xmlns="http://www.w3.org/2000/svg"
   xmlns:svg="http://www.w3.org/2000/svg">
  <defs
     id="defs1">
    <linearGradient
       x1="0"
       y1="0"
       x2="1"
       y2="0"
       gradientUnits="userSpaceOnUse"
       gradientTransform="matrix(730.225,-23529.5,-23529.5,-730.225,19780.4,27076.6)"
       spreadMethod="pad"
       id="linearGradient5">
      <stop
         style="stop-opacity:1;stop-color:#9267e8"
         offset="0"
         id="stop3" />
      <stop
         style="stop-opacity:1;stop-color:#390277"
         offset="0.99789"
         id="stop4" />
      <stop
         style="stop-opacity:1;stop-color:#390277"
         offset="1"
         id="stop5" />
    </linearGradient>
    <clipPath
       clipPathUnits="userSpaceOnUse"
       id="clipPath5">
      <path
         d="M 20000.001,6696.9999 C 12652.9,6696.9999 6696.9802,12652.9 6696.9802,20000 c 0,7347.1 5955.9198,13303.001 13303.0208,13303.001 7347.1,0 13303,-5955.901 13303,-13303.001 0,-7347.1 -5955.9,-13303.0001 -13303,-13303.0001 m 0,23745.6011 c -4599.401,0 -8341.301,-3741.901 -8341.301,-8341.301 0,-4599.3 3741.9,-8341.2 8341.301,-8341.2 4599.4,0 8341.3,3741.9 8341.3,8341.2 0,4599.4 -3741.9,8341.301 -8341.3,8341.301"
         id="path5" />
    </clipPath>
  </defs>
  <sodipodi:namedview
     id="namedview1"
     pagecolor="#ffffff"
     bordercolor="#000000"
     borderopacity="0.25"
     inkscape:showpageshadow="2"
     inkscape:pageopacity="0.0"
     inkscape:pagecheckerboard="0"
     inkscape:deskcolor="#d1d1d1"
     inkscape:zoom="0.24"
     inkscape:cx="1504.1667"
     inkscape:cy="1639.5833"
     inkscape:window-width="2004"
     inkscape:window-height="1080"
     inkscape:window-x="0"
     inkscape:window-y="0"
     inkscape:window-maximized="1"
     inkscape:current-layer="g1">
    <inkscape:page
       x="0"
       y="7.324218e-14"
       inkscape:label="1"
       id="page1"
       width="256"
       height="256"
       margin="0"
       bleed="0" />
  </sodipodi:namedview>
  <g
     id="g1"
     inkscape:groupmode="layer"
     inkscape:label="1"
     transform="translate(0,-9.9999997e-5)">
    <g
       id="group-R5"
       transform="matrix(0.048,0,0,0.048,0,9.52e-5)">
      <path
         id="path2"
         d="M 0,0 H 40000 V 40000 H 0 Z"
         style="fill:#be80ff;fill-opacity:1;fill-rule:evenodd;stroke:none"
         transform="matrix(0.13333333,0,0,-0.13333333,0,5333.3333)" />
      <path
         id="path3"
         d="m 20000,6697 c -7347.1,0 -13303.02,5955.9 -13303.02,13303 0,7347.1 5955.92,13303 13303.02,13303 7347.1,0 13303,-5955.9 13303,-13303 0,-7347.1 -5955.9,-13303 -13303,-13303 m 0,23745.6 c -4599.4,0 -8341.3,-3741.9 -8341.3,-8341.3 0,-4599.3 3741.9,-8341.2 8341.3,-8341.2 4599.4,0 8341.3,3741.9 8341.3,8341.2 0,4599.4 -3741.9,8341.3 -8341.3,8341.3"
         style="fill:url(#linearGradient5);fill-opacity:1;fill-rule:nonzero;stroke:none"
         transform="matrix(0.13333333,0,0,-0.13333333,0,5333.3333)"
         clip-path="url(#clipPath5)" />
      <path
         id="path6"
         d="m 10981.5,26074.2 c 0,92.4 -211.5,174 -534.2,222.7 -250,37.8 -445.6,238.9 -468.86,490.7 -43.97,476.7 -130.58,801.1 -230.42,801.1 -99.83,0 -186.44,-324.4 -230.42,-801.1 -23.22,-251.8 -218.85,-452.9 -468.83,-490.7 -322.7,-48.7 -534.25,-130.3 -534.25,-222.7 0,-92.5 211.55,-174 534.25,-222.8 249.98,-37.8 445.61,-238.9 468.83,-490.7 43.98,-476.6 130.59,-801.1 230.42,-801.1 99.84,0 186.45,324.5 230.42,801.1 23.26,251.8 218.86,452.9 468.86,490.7 322.7,48.8 534.2,130.3 534.2,222.8"
         style="fill:#ffffff;fill-opacity:1;fill-rule:evenodd;stroke:none"
         transform="matrix(0.13333333,0,0,-0.13333333,0,5333.3333)" />
      <path
         id="path7"
         d="m 26327.9,30541.2 c 0,60.8 -139.1,114.4 -351.2,146.5 -164.3,24.8 -292.9,157 -308.2,322.5 -28.9,313.3 -85.8,526.6 -151.5,526.6 -65.6,0 -122.5,-213.3 -151.4,-526.6 -15.3,-165.5 -143.9,-297.7 -308.2,-322.5 -212.1,-32.1 -351.2,-85.7 -351.2,-146.5 0,-60.7 139.1,-114.3 351.2,-146.4 164.3,-24.8 292.9,-157 308.2,-322.5 28.9,-313.4 85.8,-526.6 151.4,-526.6 65.7,0 122.6,213.2 151.5,526.6 15.3,165.5 143.9,297.7 308.2,322.5 212.1,32.1 351.2,85.7 351.2,146.4"
         style="fill:#ffffff;fill-opacity:1;fill-rule:evenodd;stroke:none"
         transform="matrix(0.13333333,0,0,-0.13333333,0,5333.3333)" />
      <path
         id="path8"
         d="m 29291.1,11931.8 c 0,44.8 -102.6,84.4 -259.1,108.1 -121.3,18.3 -216.2,115.8 -227.4,238 -21.4,231.2 -63.4,388.5 -111.8,388.5 -48.4,0 -90.4,-157.3 -111.8,-388.5 -11.2,-122.2 -106.1,-219.7 -227.4,-238 -156.5,-23.7 -259.1,-63.3 -259.1,-108.1 0,-44.8 102.6,-84.4 259.1,-108 121.3,-18.3 216.2,-115.9 227.4,-238 21.4,-231.2 63.4,-388.6 111.8,-388.6 48.4,0 90.4,157.4 111.8,388.6 11.2,122.1 106.1,219.7 227.4,238 156.5,23.6 259.1,63.2 259.1,108"
         style="fill:#ffffff;fill-opacity:1;fill-rule:evenodd;stroke:none"
         transform="matrix(0.13333333,0,0,-0.13333333,0,5333.3333)" />
      <path
         id="path9"
         d="m 32142.3,23825 c 0,44.8 -102.6,84.4 -259.1,108 -121.3,18.4 -216.2,115.9 -227.4,238 -21.4,231.3 -63.4,388.6 -111.8,388.6 -48.4,0 -90.4,-157.3 -111.8,-388.6 -11.2,-122.1 -106.1,-219.6 -227.4,-238 -156.5,-23.6 -259.1,-63.2 -259.1,-108 0,-44.8 102.6,-84.4 259.1,-108 121.3,-18.4 216.2,-115.9 227.4,-238 21.4,-231.2 63.4,-388.6 111.8,-388.6 48.4,0 90.4,157.4 111.8,388.6 11.2,122.1 106.1,219.6 227.4,238 156.5,23.6 259.1,63.2 259.1,108"
         style="fill:#ffffff;fill-opacity:1;fill-rule:evenodd;stroke:none"
         transform="matrix(0.13333333,0,0,-0.13333333,0,5333.3333)" />
      <path
         id="path10"
         d="m 14875.5,31193 c 0,44.9 -102.6,84.4 -259.1,108.1 -121.3,18.3 -216.1,115.8 -227.4,238 -21.3,231.2 -63.3,388.5 -111.8,388.5 -48.4,0 -90.4,-157.3 -111.7,-388.5 -11.3,-122.2 -106.2,-219.7 -227.4,-238 -156.6,-23.7 -259.2,-63.2 -259.2,-108.1 0,-44.8 102.6,-84.4 259.2,-108 121.2,-18.4 216.1,-115.9 227.4,-238 21.3,-231.2 63.3,-388.6 111.7,-388.6 48.5,0 90.5,157.4 111.8,388.6 11.3,122.1 106.1,219.6 227.4,238 156.5,23.6 259.1,63.2 259.1,108"
         style="fill:#ffffff;fill-opacity:1;fill-rule:evenodd;stroke:none"
         transform="matrix(0.13333333,0,0,-0.13333333,0,5333.3333)" />
      <path
         id="path11"
         d="m 12565.4,29344.4 c 0,-136 -110.3,-246.3 -246.3,-246.3 -136,0 -246.2,110.3 -246.2,246.3 0,136 110.2,246.3 246.2,246.3 136,0 246.3,-110.3 246.3,-246.3"
         style="fill:#ffffff;fill-opacity:1;fill-rule:evenodd;stroke:none"
         transform="matrix(0.13333333,0,0,-0.13333333,0,5333.3333)" />
      <path
         id="path12"
         d="m 30568.6,13795.4 c 0,-136 -110.3,-246.3 -246.3,-246.3 -136,0 -246.2,110.3 -246.2,246.3 0,136 110.2,246.3 246.2,246.3 136,0 246.3,-110.3 246.3,-246.3"
         style="fill:#ffffff;fill-opacity:1;fill-rule:evenodd;stroke:none"
         transform="matrix(0.13333333,0,0,-0.13333333,0,5333.3333)" />
      <path
         id="path13"
         d="m 9007.05,14041.7 c 0,-136.1 -110.25,-246.3 -246.26,-246.3 -136.01,0 -246.27,110.2 -246.27,246.3 0,136 110.26,246.2 246.27,246.2 136.01,0 246.26,-110.2 246.26,-246.2"
         style="fill:#ffffff;fill-opacity:1;fill-rule:evenodd;stroke:none"
         transform="matrix(0.13333333,0,0,-0.13333333,0,5333.3333)" />
      <path
         id="path14"
         d="m 28864.7,25827.9 c 0,-94.9 -77,-171.9 -171.9,-171.9 -94.9,0 -171.9,77 -171.9,171.9 0,94.9 77,171.9 171.9,171.9 94.9,0 171.9,-77 171.9,-171.9"
         style="fill:#ffffff;fill-opacity:1;fill-rule:evenodd;stroke:none"
         transform="matrix(0.13333333,0,0,-0.13333333,0,5333.3333)" />
      <path
         id="path15"
         d="m 27191.7,29545.7 c 0,-95 -77,-171.9 -171.9,-171.9 -95,0 -171.9,76.9 -171.9,171.9 0,94.9 76.9,171.9 171.9,171.9 94.9,0 171.9,-77 171.9,-171.9"
         style="fill:#ffffff;fill-opacity:1;fill-rule:evenodd;stroke:none"
         transform="matrix(0.13333333,0,0,-0.13333333,0,5333.3333)" />
      <path
         id="path16"
         d="m 22352,31364.9 c 0,-94.9 -77,-171.9 -171.9,-171.9 -95,0 -171.9,77 -171.9,171.9 0,94.9 76.9,171.9 171.9,171.9 94.9,0 171.9,-77 171.9,-171.9"
         style="fill:#ffffff;fill-opacity:1;fill-rule:evenodd;stroke:none"
         transform="matrix(0.13333333,0,0,-0.13333333,0,5333.3333)" />
      <path
         id="path17"
         d="m 8514.52,23262.3 c 0,-94.9 -76.96,-171.9 -171.89,-171.9 -94.94,0 -171.9,77 -171.9,171.9 0,94.9 76.96,171.9 171.9,171.9 94.93,0 171.89,-77 171.89,-171.9"
         style="fill:#ffffff;fill-opacity:1;fill-rule:evenodd;stroke:none"
         transform="matrix(0.13333333,0,0,-0.13333333,0,5333.3333)" />
      <path
         id="path18"
         d="m 11479.1,24864.3 c 0,-94.9 -77,-171.9 -171.9,-171.9 -94.9,0 -171.9,77 -171.9,171.9 0,95 77,171.9 171.9,171.9 94.9,0 171.9,-76.9 171.9,-171.9"
         style="fill:#ffffff;fill-opacity:1;fill-rule:evenodd;stroke:none"
         transform="matrix(0.13333333,0,0,-0.13333333,0,5333.3333)" />
      <path
         id="path19"
         d="m 19401.7,32103 c 0,-204.1 -165.5,-369.6 -369.6,-369.6 -204.2,0 -369.6,165.5 -369.6,369.6 0,204.2 165.4,369.7 369.6,369.7 204.1,0 369.6,-165.5 369.6,-369.7"
         style="fill:#ffffff;fill-opacity:1;fill-rule:evenodd;stroke:none"
         transform="matrix(0.13333333,0,0,-0.13333333,0,5333.3333)" />
      <path
         id="path20"
         d="m 11676.8,11551.7 c 0,-204.1 -165.5,-369.6 -369.6,-369.6 -204.1,0 -369.6,165.5 -369.6,369.6 0,204.1 165.5,369.6 369.6,369.6 204.1,0 369.6,-165.5 369.6,-369.6"
         style="fill:#ffffff;fill-opacity:1;fill-rule:evenodd;stroke:none"
         transform="matrix(0.13333333,0,0,-0.13333333,0,5333.3333)" />
      <path
         id="path21"
         d="m 25722.8,7987.8 v 4866 c 0,1265.7 -1026.1,2291.8 -2291.8,2291.8 h -6862 c -1265.7,0 -2291.8,-1026.1 -2291.8,-2291.8 v -4866 c 3872.5,-1498.6 7689.5,-1545.2 11445.6,0"
         style="fill:#ffffff;fill-opacity:1;fill-rule:evenodd;stroke:none"
         transform="matrix(0.13333333,0,0,-0.13333333,0,5333.3333)" />
      <path
         id="path22"
         d="m 25722.8,7706 c -155.7,0 -281.8,126.2 -281.8,281.8 v 4866 c 0,1108.4 -901.7,2010 -2010,2010 h -6862 c -1108.3,0 -2010,-901.6 -2010,-2010 v -4866 c 0,-155.6 -126.1,-281.8 -281.8,-281.8 -155.6,0 -281.7,126.2 -281.7,281.8 v 4866 c 0,1419.1 1154.5,2573.6 2573.5,2573.6 h 6862 c 1419,0 2573.5,-1154.5 2573.5,-2573.6 v -4866 c 0,-155.6 -126.1,-281.8 -281.7,-281.8"
         style="fill:#390277;fill-opacity:1;fill-rule:nonzero;stroke:none"
         transform="matrix(0.13333333,0,0,-0.13333333,0,5333.3333)" />
      <path
         id="path23"
         d="m 15328.8,15740.6 243.4,-3394.2 -142,-4624.8 c 3077.6,-1253.6 6148,-1110.2 9212.9,108.5 l -267.6,4069.9 -92,4705.7"
         style="fill:#ffffff;fill-opacity:1;fill-rule:evenodd;stroke:none"
         transform="matrix(0.13333333,0,0,-0.13333333,0,5333.3333)" />
      <path
         id="path24"
         d="m 27680.9,24043.5 1036.8,-586.9 c 254.9,-144.3 433,-397.5 471.8,-687.9 121.1,-907.9 91.5,-1808.5 -10.2,-2705.7 -36,-316.8 -232.6,-593 -517.7,-735.8 l -1384.5,-693.7"
         style="fill:#ffffff;fill-opacity:1;fill-rule:evenodd;stroke:none"
         transform="matrix(0.13333333,0,0,-0.13333333,0,5333.3333)" />
      <path
         id="path25"
         d="m 28922.4,20374.1 c -36.4,-317.3 -232.7,-592.7 -518.2,-736.4 l -1384.4,-693.5 71.8,959.9 991.7,497.2 c 284.6,142.7 481.8,419.1 517.3,735.4 94.5,830.9 127.2,1665.4 33.6,2505.3 160.9,-145.4 269.1,-342.7 298.2,-561.8 121.8,-908.1 91.8,-1808.9 -10,-2706.1"
         style="fill:#c1d4e8;fill-opacity:1;fill-rule:evenodd;stroke:none"
         transform="matrix(0.13333333,0,0,-0.13333333,0,5333.3333)" />
      <path
         id="path26"
         d="m 27277.3,18351.7 c -103.2,0 -202.6,57 -252.1,155.6 -69.7,139.2 -13.4,308.5 125.7,378.1 l 1384.5,693.7 c 202.8,101.6 338.8,294.3 363.9,515.7 113.7,1002.4 117.2,1840.2 10.9,2636.7 -26.4,198 -150.3,377.5 -331.3,479.9 l -1036.8,586.9 c -135.4,76.7 -183.1,248.6 -106.4,384 76.7,135.4 248.6,183.1 384,106.4 l 1036.8,-586.9 c 333.7,-188.9 562.6,-523.7 612.3,-895.7 112.5,-843.6 109.5,-1725.3 -9.5,-2774.9 -46.7,-411.3 -297.7,-768.7 -671.5,-956 l -1384.4,-693.6 c -40.6,-20.3 -83.6,-29.9 -126.1,-29.9"
         style="fill:#390277;fill-opacity:1;fill-rule:nonzero;stroke:none"
         transform="matrix(0.13333333,0,0,-0.13333333,0,5333.3333)" />
      <path
         id="path27"
         d="m 12319.1,24043.5 -1036.8,-586.9 c -254.9,-144.3 -433,-397.5 -471.8,-687.9 -121.1,-907.9 -91.5,-1808.5 10.2,-2705.7 36,-316.8 232.6,-593 517.7,-735.8 l 1384.5,-693.7"
         style="fill:#ffffff;fill-opacity:1;fill-rule:evenodd;stroke:none"
         transform="matrix(0.13333333,0,0,-0.13333333,0,5333.3333)" />
      <path
         id="path28"
         d="m 11077.6,20374.1 c 36.4,-317.3 232.7,-592.7 518.2,-736.4 l 1384.4,-693.5 -71.8,959.9 -991.7,497.2 c -284.6,142.7 -481.8,419.1 -517.3,735.4 -94.5,830.9 -127.2,1665.4 -33.6,2505.3 -160.9,-145.4 -269.1,-342.7 -298.2,-561.8 -121.8,-908.1 -91.8,-1808.9 10,-2706.1"
         style="fill:#c1d4e8;fill-opacity:1;fill-rule:evenodd;stroke:none"
         transform="matrix(0.13333333,0,0,-0.13333333,0,5333.3333)" />
      <path
         id="path29"
         d="m 12722.7,18351.7 c -42.5,0 -85.5,9.6 -126.1,29.9 l -1384.4,693.6 c -373.8,187.3 -624.8,544.7 -671.5,956 -119,1049.6 -122,1931.3 -9.5,2774.8 49.7,372.1 278.6,706.9 612.3,895.8 l 1036.8,586.9 c 135.4,76.6 307.3,29 384,-106.4 76.7,-135.4 29,-307.3 -106.4,-384 l -1036.8,-586.9 c -181,-102.4 -304.9,-281.9 -331.3,-480 -106.3,-796.4 -102.8,-1634.2 10.9,-2636.6 25.1,-221.4 161.1,-414.1 363.9,-515.7 l 1384.5,-693.7 c 139.1,-69.6 195.4,-238.9 125.7,-378.1 -49.5,-98.6 -148.9,-155.6 -252.1,-155.6"
         style="fill:#390277;fill-opacity:1;fill-rule:nonzero;stroke:none"
         transform="matrix(0.13333333,0,0,-0.13333333,0,5333.3333)" />
      <path
         id="path30"
         d="m 28059.5,22101.4 c 0,-4451.2 -3608.3,-8059.6 -8059.5,-8059.6 -4451.2,0 -8059.5,3608.4 -8059.5,8059.6 0,4451.1 3608.3,8059.5 8059.5,8059.5 4451.2,0 8059.5,-3608.4 8059.5,-8059.5"
         style="fill:#ffffff;fill-opacity:1;fill-rule:evenodd;stroke:none"
         transform="matrix(0.13333333,0,0,-0.13333333,0,5333.3333)" />
      <path
         id="path31"
         d="m 28059.4,22101.1 c 0,-4450.6 -3608,-8059.4 -8059.4,-8059.4 -3744.3,0 -6891.4,2552.5 -7796.7,6012.2 1119.9,-3105.2 4092.4,-5325 7583,-5325 4451.5,0 8059.4,3608.8 8059.4,8060.3 0,705.4 -90.9,1389.9 -260.8,2041.7 307.2,-852.7 474.5,-1771.7 474.5,-2729.8"
         style="fill:#c1d4e8;fill-opacity:1;fill-rule:evenodd;stroke:none"
         transform="matrix(0.13333333,0,0,-0.13333333,0,5333.3333)" />
      <path
         id="path32"
         d="m 20000,29879.1 c -4288.7,0 -7777.7,-3489.1 -7777.7,-7777.8 0,-4288.6 3489,-7777.7 7777.7,-7777.7 4288.7,0 7777.7,3489.1 7777.7,7777.7 0,4288.7 -3489,7777.8 -7777.7,7777.8 m 0,-16119 c -4599.4,0 -8341.3,3741.9 -8341.3,8341.2 0,4599.4 3741.9,8341.3 8341.3,8341.3 4599.4,0 8341.3,-3741.9 8341.3,-8341.3 0,-4599.3 -3741.9,-8341.2 -8341.3,-8341.2"
         style="fill:#390277;fill-opacity:1;fill-rule:nonzero;stroke:none"
         transform="matrix(0.13333333,0,0,-0.13333333,0,5333.3333)" />
      <path
         id="path33"
         d="m 20000,27909.3 c -1979.8,0 -3867.6,-686.8 -5315.4,-1933.8 -1390.5,-1197.7 -2188,-2782.5 -2188,-4348 0,-3237.7 3366,-5871.7 7503.4,-5871.7 4137.4,0 7503.4,2634 7503.4,5871.7 0,1565.5 -797.5,3150.3 -2188,4348 -1447.8,1247 -3335.6,1933.8 -5315.4,1933.8 m 0,-12508.5 c -4333.2,0 -7858.4,2793.3 -7858.4,6226.7 0,1668.9 842.5,3351.7 2311.3,4616.9 1512.3,1302.6 3482.3,2019.9 5547.1,2019.9 2064.8,0 4034.8,-717.3 5547.1,-2019.9 1468.8,-1265.2 2311.3,-2948 2311.3,-4616.9 0,-3433.4 -3525.2,-6226.7 -7858.4,-6226.7"
         style="fill:#390277;fill-opacity:1;fill-rule:nonzero;stroke:none"
         transform="matrix(0.13333333,0,0,-0.13333333,0,5333.3333)" />
      <path
         id="path34"
         d="m 27680.9,21627.5 c 0,-3340.9 -3438.9,-6049.2 -7680.9,-6049.2 -4242,0 -7680.9,2708.3 -7680.9,6049.2 0,3340.8 3438.9,6459.3 7680.9,6459.3 4242,0 7680.9,-3118.5 7680.9,-6459.3"
         style="fill:#390277;fill-opacity:1;fill-rule:evenodd;stroke:none"
         transform="matrix(0.13333333,0,0,-0.13333333,0,5333.3333)" />
      <path
         id="path35"
         d="m 27951.3,21648.5 c -97.9,0 -177.2,79.4 -177.2,177.3 0,3694.7 -3632.8,6935.7 -7774.1,6935.7 -4141.3,0 -7774.1,-3241 -7774.1,-6935.7 0,-97.9 -79.3,-177.3 -177.2,-177.3 -97.9,0 -177.3,79.4 -177.3,177.3 0,1837.6 869.9,3687 2386.6,5074.1 1562.6,1429 3601.8,2216.1 5742,2216.1 2140.2,0 4179.4,-787.1 5742,-2216.1 1516.7,-1387.1 2386.6,-3236.5 2386.6,-5074.1 0,-97.9 -79.4,-177.3 -177.3,-177.3"
         style="fill:#390277;fill-opacity:1;fill-rule:nonzero;stroke:none"
         transform="matrix(0.13333333,0,0,-0.13333333,0,5333.3333)" />
      <path
         id="path36"
         d="m 14496.1,22788.8 c -213.6,0 -359.9,75.9 -428,255.3 -288.8,761.1 1068.6,2555.3 3330.3,3413.5 896.8,340.3 1801.2,482.3 2584.1,482.3 1191.4,0 2101.4,-328.9 2275.7,-788.2 288.8,-761.1 -1680.8,-1051.1 -3942.5,-1909.3 -1728.4,-655.8 -3127.2,-1453.6 -3819.6,-1453.6"
         style="fill:#8462ab;fill-opacity:1;fill-rule:nonzero;stroke:none"
         transform="matrix(0.13333333,0,0,-0.13333333,0,5333.3333)" />
      <path
         id="path37"
         d="m 24882.5,18741.8 c -185.1,0 -363.2,50.2 -516.6,155.8 -485.9,334.6 -539.9,1099.5 -120.6,1708.3 286.9,416.6 721.1,652.3 1122.4,652.3 185.1,0 363.2,-50.2 516.6,-155.8 485.9,-334.6 539.9,-1099.5 120.6,-1708.3 -286.9,-416.6 -721.1,-652.3 -1122.4,-652.3"
         style="fill:#8462ab;fill-opacity:1;fill-rule:nonzero;stroke:none"
         transform="matrix(0.13333333,0,0,-0.13333333,0,5333.3333)" />
      <path
         id="path38"
         d="m 22184.4,17093.6 c -575,0 -1041.2,399.6 -1041.2,892.5 0,492.9 466.2,892.5 1041.2,892.5 575.1,0 1041.3,-399.6 1041.3,-892.5 0,-492.9 -466.2,-892.5 -1041.3,-892.5"
         style="fill:#8462ab;fill-opacity:1;fill-rule:nonzero;stroke:none"
         transform="matrix(0.13333333,0,0,-0.13333333,0,5333.3333)" />
      <path
         id="path39"
         d="m 16570.1,14733.5 c -1834,940.9 -3468.7,2402.3 -4915.1,4355.7 170.8,1073.3 -252.2,2197.6 -1082,809.6 l -856.09,831.7 c -689.66,878.9 -1682.19,753.5 -1162.95,-486.9 -846.62,644.4 -1090.46,268.8 -818.12,-980.4 0,0 -1037.34,297.5 -106.23,-1338.7 0,0 2438.89,-4523.3 7942.59,-5578.1 0,0 -417.6,-2670.3 -195.3,-4722.6"
         style="fill:#ffffff;fill-opacity:1;fill-rule:evenodd;stroke:none"
         transform="matrix(0.13333333,0,0,-0.13333333,0,5333.3333)" />
      <path
         id="path40"
         d="M 10068.5,19621.6 9162.48,17769 c 0,0 -1945.63,2196.5 906.02,1852.6"
         style="fill:#c1d4e8;fill-opacity:1;fill-rule:evenodd;stroke:none"
         transform="matrix(0.13333333,0,0,-0.13333333,0,5333.3333)" />
      <path
         id="path41"
         d="m 15716.5,13667.1 c -2172.9,314.1 -4214.4,1036.8 -6038.83,2434.1 0,0 2513.93,-3092.2 5921.63,-3570"
         style="fill:#c1d4e8;fill-opacity:1;fill-rule:evenodd;stroke:none"
         transform="matrix(0.13333333,0,0,-0.13333333,0,5333.3333)" />
      <path
         id="path42"
         d="m 15376.6,7342 c -142,0 -264.1,107.1 -279.8,251.5 -185.1,1708.4 59,3796.3 158.7,4529.8 -2772.4,596.8 -4740.3,2062.7 -5914.97,3205.8 -1293.65,1258.7 -1914.21,2379.4 -1957.38,2458.7 -437.59,769.8 -532.47,1266.8 -298.63,1564.3 87.55,111.2 199.81,167.9 310.06,194.2 -108.4,667.3 -32.86,1036.2 237.94,1208.8 153.47,97.8 324.95,98.4 494.68,48.7 -14.55,423.5 203.66,612.5 327.15,684.9 403.36,236.8 1019.97,-2.5 1472.07,-569 l 600.18,-583 c 309.8,411.9 616.5,565.5 914.2,457.5 473,-171.8 593.4,-942 509.3,-1629.5 1410.3,-1881 3007.4,-3287.2 4748.6,-4180.5 138.5,-71.1 193.1,-240.9 122.1,-379.3 -71,-138.5 -240.8,-193.3 -379.3,-122.1 -1847.4,947.8 -3533.9,2441.2 -5013,4438.7 -45,60.9 -63.7,137.2 -51.8,212 98.5,619 -37.7,1056.9 -123.7,1127 -34,-11.5 -185.8,-84.1 -438.2,-506.3 -44.1,-73.9 -119.7,-123.6 -205.1,-134.8 -85.9,-11.2 -171.3,17.3 -233,77.3 l -856.14,831.6 c -9.09,8.9 -17.53,18.3 -25.35,28.2 -318.26,405.6 -655.66,504.7 -755.56,446.3 -51.86,-30.5 -101.95,-229.5 74.22,-650.4 49.22,-117.6 13.33,-253.6 -87.55,-331.6 -100.83,-78.1 -241.51,-78.7 -343.02,-1.4 -265.23,201.9 -398,242.7 -445.85,250.7 -23.58,-61.3 -70.8,-284.1 73.68,-946.9 21.15,-96.8 -10.25,-197.7 -82.61,-265.5 -72.37,-67.9 -175.25,-92.5 -270.37,-65.3 -41.06,10.8 -102.29,13.6 -130.81,6.2 -10.49,-44.6 -31,-270.2 347.12,-934.7 1.08,-1.9 2.1,-3.8 3.13,-5.6 5.91,-10.9 613.33,-1120.4 1870.75,-2339.8 1154.36,-1119.5 3111.06,-2565.3 5876.86,-3095.4 149.2,-28.6 248.8,-170.2 225.4,-320.2 -4.1,-26.4 -409.2,-2658.3 -193.5,-4648.7 16.7,-154.7 -95.1,-293.8 -249.8,-310.5 -10.3,-1.1 -20.5,-1.7 -30.7,-1.7"
         style="fill:#390277;fill-opacity:1;fill-rule:nonzero;stroke:none"
         transform="matrix(0.13333333,0,0,-0.13333333,0,5333.3333)" />
      <path
         id="path43"
         d="m 10819.7,19762.6 -175.5,-317.8 c -0.5,-0.6 -179.3,-137.8 -178.1,-137.6 -160.1,-60.4 -319.7,-152.2 -427,-286.2 -61.47,-75 -111.43,-170.3 -145.55,-270.7 -31.29,-98.4 -42.85,-198.2 -67.76,-301.4 -19.27,-77.7 -97.94,-125.2 -175.7,-105.9 -125.31,33.8 -127.04,192.3 -156.43,298 -98.83,544.7 308.34,1084.4 834.84,1213.2 l -177.6,-137 175.4,317.8 c 191.2,320 662.5,60.6 493.4,-272.4"
         style="fill:#390277;fill-opacity:1;fill-rule:nonzero;stroke:none"
         transform="matrix(0.13333333,0,0,-0.13333333,0,5333.3333)" />
      <path
         id="path44"
         d="m 11151.2,13975.5 c -92.6,0 -179.5,57 -213.3,148.9 -43.4,117.7 17,248.4 134.8,291.7 1533.8,564.4 2042.9,2523.2 2047.9,2542.9 30.6,121.7 154.2,195.4 275.8,164.9 121.8,-30.6 195.6,-154.1 164.9,-275.9 -22.6,-90 -575.1,-2212.1 -2331.7,-2858.4 -25.8,-9.6 -52.4,-14.1 -78.4,-14.1"
         style="fill:#390277;fill-opacity:1;fill-rule:nonzero;stroke:none"
         transform="matrix(0.13333333,0,0,-0.13333333,0,5333.3333)" />
      <path
         id="path45"
         d="m 11272,18633.5 c -580,-906.1 -1324.21,-1472.4 -2217.7,-1730 1331.5,-16.2 2469.6,161.1 2217.7,1730"
         style="fill:#c1d4e8;fill-opacity:1;fill-rule:evenodd;stroke:none"
         transform="matrix(0.13333333,0,0,-0.13333333,0,5333.3333)" />
      <path
         id="path46"
         d="m 23429.9,14733.5 c 1834,940.9 3468.7,2402.3 4915.1,4355.7 -170.8,1073.3 252.2,2197.6 1082,809.6 l 856.1,831.7 c 689.6,878.9 1682.2,753.5 1162.9,-486.9 846.7,644.4 1090.5,268.8 818.2,-980.4 0,0 1037.3,297.5 106.2,-1338.7 0,0 -2438.9,-4523.3 -7942.6,-5578.1 0,0 417.6,-2670.3 195.3,-4722.6"
         style="fill:#ffffff;fill-opacity:1;fill-rule:evenodd;stroke:none"
         transform="matrix(0.13333333,0,0,-0.13333333,0,5333.3333)" />
      <path
         id="path47"
         d="m 29931.5,19621.6 906,-1852.6 c 0,0 1945.7,2196.5 -906,1852.6"
         style="fill:#c1d4e8;fill-opacity:1;fill-rule:evenodd;stroke:none"
         transform="matrix(0.13333333,0,0,-0.13333333,0,5333.3333)" />
      <path
         id="path48"
         d="m 24400.7,12531.2 c 3407.7,477.8 5921.6,3570 5921.6,3570 -1824.4,-1397.3 -3865.9,-2120 -6038.8,-2434.1"
         style="fill:#c1d4e8;fill-opacity:1;fill-rule:evenodd;stroke:none"
         transform="matrix(0.13333333,0,0,-0.13333333,0,5333.3333)" />
      <path
         id="path49"
         d="m 24623.4,7342 c -10.2,0 -20.4,0.6 -30.7,1.7 -154.7,16.7 -266.5,155.8 -249.8,310.5 215.7,1990.4 -189.4,4622.3 -193.5,4648.7 -23.4,150 76.2,291.6 225.4,320.2 2765.8,530.1 4722.5,1975.9 5876.9,3095.4 1257.4,1219.4 1864.8,2328.9 1870.8,2339.9 0.9,1.8 2,3.8 3,5.5 378.2,664.5 357.7,890.1 347.2,934.7 -28.5,7.4 -90.1,4.6 -133.3,-6.9 -95.5,-27.5 -196.8,-2.2 -269.2,65.6 -72.3,67.8 -102.5,169.1 -81.3,265.9 144.4,662.8 97.2,885.6 73.6,946.9 -47.8,-8 -180.6,-48.8 -445.8,-250.7 -101.5,-77.3 -242.1,-76.7 -343,1.4 -100.9,78 -136.8,214 -87.6,331.6 176.2,420.9 126.1,619.9 74.3,650.4 -99.7,58.5 -437.4,-40.6 -755.6,-446.3 -7.8,-9.9 -16.3,-19.3 -25.4,-28.2 l -856.1,-831.6 c -61.7,-60 -147.3,-88.6 -233,-77.3 -85.4,11.2 -161,60.9 -205.1,134.8 -252.4,422.2 -404.2,494.8 -438.2,506.3 -86,-70.1 -222.2,-508 -123.7,-1127 11.9,-74.8 -6.8,-151.1 -51.8,-212 -1479.1,-1997.5 -3165.6,-3490.9 -5013,-4438.7 -138.5,-71.1 -308.3,-16.3 -379.3,122.1 -71,138.4 -16.4,308.2 122.1,379.3 1741.2,893.3 3338.3,2299.5 4748.6,4180.5 -84.1,687.5 36.3,1457.7 509.3,1629.5 297.7,108.1 604.5,-45.7 914.2,-457.5 l 600.2,583 c 452,566.5 1068.6,805.9 1472.1,569 123.4,-72.4 341.7,-261.4 327.1,-684.9 169.7,49.6 341.2,49.1 494.7,-48.7 270.8,-172.6 346.3,-541.5 237.9,-1208.8 110.3,-26.3 222.5,-83 310.1,-194.2 233.8,-297.5 138.9,-794.5 -298.7,-1564.3 -43.1,-79.3 -663.7,-1200 -1957.3,-2458.7 -1174.7,-1143.1 -3142.6,-2609 -5915,-3205.8 99.7,-733.5 343.8,-2821.4 158.7,-4529.8 -15.7,-144.4 -137.8,-251.5 -279.8,-251.5"
         style="fill:#390277;fill-opacity:1;fill-rule:nonzero;stroke:none"
         transform="matrix(0.13333333,0,0,-0.13333333,0,5333.3333)" />
      <path
         id="path50"
         d="m 29673.7,20035 175.4,-317.8 -177.6,137 c 153.1,-38.1 293.2,-112.1 418.9,-206.5 305.7,-225.8 482.9,-632.6 415.9,-1006.7 -29,-129.8 -53.1,-343.7 -235.5,-295.3 -123.6,39.9 -107,194.9 -134.5,293.7 -30.9,136.3 -89.1,278.8 -175.4,381.6 -107.4,134 -266.9,225.7 -427,286.2 1.9,-0.1 -178.1,136.9 -178.1,137.6 l -175.5,317.8 c -168.9,332.3 301.6,592.9 493.4,272.4"
         style="fill:#390277;fill-opacity:1;fill-rule:nonzero;stroke:none"
         transform="matrix(0.13333333,0,0,-0.13333333,0,5333.3333)" />
      <path
         id="path51"
         d="m 28848.8,13975.5 c -26,0 -52.6,4.5 -78.4,14.1 -1756.6,646.3 -2309.1,2768.4 -2331.7,2858.4 -30.7,121.8 43.1,245.3 164.9,275.9 121.4,30.7 245,-43.1 275.7,-164.7 5.1,-19.7 518.9,-1980.5 2048,-2543.1 117.8,-43.3 178.2,-174 134.8,-291.7 -33.8,-91.9 -120.8,-148.9 -213.3,-148.9"
         style="fill:#390277;fill-opacity:1;fill-rule:nonzero;stroke:none"
         transform="matrix(0.13333333,0,0,-0.13333333,0,5333.3333)" />
      <path
         id="path52"
         d="m 28728,18633.5 c 580,-906.1 1324.2,-1472.4 2217.7,-1730 -1331.5,-16.2 -2469.6,161.1 -2217.7,1730"
         style="fill:#c1d4e8;fill-opacity:1;fill-rule:evenodd;stroke:none"
         transform="matrix(0.13333333,0,0,-0.13333333,0,5333.3333)" />
      <path
         id="path53"
         d="m 24665.6,9682.8 c -3071.9,-223.4 -6192.5,-216.4 -9357.7,1.2 -167.8,11.5 -298.3,151.7 -298.3,319.9 v 634.2 c 0,176.8 143.3,320.1 320,320.1 h 9312.7 c 176.7,0 320,-143.3 320,-320.1 v -635.4 c 0,-167.7 -129.4,-307.8 -296.7,-319.9"
         style="fill:#ffffff;fill-opacity:1;fill-rule:evenodd;stroke:none"
         transform="matrix(0.13333333,0,0,-0.13333333,0,5333.3333)" />
      <path
         id="path54"
         d="m 15329.6,10676.4 c -21.1,0 -38.2,-17.1 -38.2,-38.3 V 10004 c 0,-20.5 15.8,-37.6 35.9,-39 3184.6,-218.8 6319.5,-219.2 9317.8,-1.2 h 0.1 c 19.8,1.4 35.3,18.5 35.3,38.9 v 635.4 c 0,21.2 -17.1,38.3 -38.2,38.3 z M 20065,9237.1 c -1572.5,0 -3168.2,55.2 -4776.4,165.7 -314.5,21.7 -560.8,285.8 -560.8,601.2 v 634.1 c 0,331.9 270,601.9 601.8,601.9 h 9312.7 c 331.8,0 601.8,-270 601.8,-601.9 v -635.4 c 0,-314.2 -245.2,-578.2 -558.1,-600.9 -1509.7,-109.9 -3053.9,-164.7 -4621,-164.7"
         style="fill:#390277;fill-opacity:1;fill-rule:nonzero;stroke:none"
         transform="matrix(0.13333333,0,0,-0.13333333,0,5333.3333)" />
      <path
         id="path55"
         d="M 22974.2,11197.2 V 8828.3 c 0,-29.1 -1.9,-58.2 -5.5,-86.4 -40.9,-348.2 -324.5,-624.5 -682.7,-648.1 -1533.5,-99.1 -3067,-99.1 -4600.5,0 -386.4,25.4 -688.2,346.3 -688.2,734.5 v 2368.9 c 0,405.4 329.1,734.5 735.4,734.5 h 4507 c 277.2,0 518.1,-153.7 643.6,-380 58.1,-105.5 90.9,-226.4 90.9,-354.5"
         style="fill:#ffffff;fill-opacity:1;fill-rule:evenodd;stroke:none"
         transform="matrix(0.13333333,0,0,-0.13333333,0,5333.3333)" />
      <path
         id="path56"
         d="M 22974.2,11197.2 V 8828.3 c 0,-29.1 -1.9,-58.2 -5.5,-86.4 -1355.7,-420.2 -4169.1,-259.8 -5124.7,-189.7 -183.8,13.5 -325.8,166.8 -325.8,351.1 v 377.6 c 3662.5,-1030.8 5026,1459.9 5365.1,2270.8 58.1,-105.5 90.9,-226.4 90.9,-354.5"
         style="fill:#c1d4e8;fill-opacity:1;fill-rule:evenodd;stroke:none"
         transform="matrix(0.13333333,0,0,-0.13333333,0,5333.3333)" />
      <path
         id="path57"
         d="m 17732.3,11650 c -249.8,0 -453,-203.1 -453,-452.9 v -2369 c 0,-238.5 186.6,-437.4 424.8,-452.9 1514.3,-98.4 3049.8,-98.4 4564,0 238.2,15.5 424.7,214.4 424.7,452.9 v 2369 c 0,249.8 -203.2,452.9 -453,452.9 z m 2253.8,-3912.2 c -774.7,0 -1549.3,25 -2318.5,75.1 -533.8,34.7 -951.8,480.6 -951.8,1015.2 v 2369 c 0,560.5 456,1016.5 1016.5,1016.5 h 4507.5 c 560.5,0 1016.6,-456 1016.6,-1016.5 v -2369 c 0,-534.5 -418.1,-980.5 -951.8,-1015.2 -769.2,-50.1 -1543.9,-75.1 -2318.5,-75.1"
         style="fill:#390277;fill-opacity:1;fill-rule:nonzero;stroke:none"
         transform="matrix(0.13333333,0,0,-0.13333333,0,5333.3333)" />
      <path
         id="path58"
         d="m 19790,7864.1 c -125.5,0 -227.3,101.8 -227.3,227.3 v 1697.9 c 0,13.9 -8.8,26.2 -22,30.7 l -553.2,187.1 c -197.8,67 -330.8,252.3 -330.8,461.2 v 1463.5 c 0,125.5 101.8,227.3 227.3,227.3 125.5,0 227.2,-101.8 227.2,-227.3 v -1463.5 c 0,-13.9 8.9,-26.2 22.1,-30.7 l 553.2,-187.1 c 197.8,-67 330.7,-252.4 330.7,-461.2 V 8091.4 c 0,-125.5 -101.7,-227.3 -227.2,-227.3"
         style="fill:#390277;fill-opacity:1;fill-rule:nonzero;stroke:none"
         transform="matrix(0.13333333,0,0,-0.13333333,0,5333.3333)" />
      <path
         id="path59"
         d="m 22180.1,10238.1 c 0,-397.7 -322.4,-720.1 -720.1,-720.1 -397.7,0 -720.1,322.4 -720.1,720.1 0,397.7 322.4,720.1 720.1,720.1 397.7,0 720.1,-322.4 720.1,-720.1"
         style="fill:#3ec4ff;fill-opacity:1;fill-rule:evenodd;stroke:none"
         transform="matrix(0.13333333,0,0,-0.13333333,0,5333.3333)" />
      <path
         id="path60"
         d="m 21460,10731 c -271.7,0 -492.8,-221.1 -492.8,-492.9 0,-271.7 221.1,-492.8 492.8,-492.8 271.7,0 492.8,221.1 492.8,492.8 0,271.8 -221.1,492.9 -492.8,492.9 z m 0,-1440.2 c -522.4,0 -947.3,424.9 -947.3,947.3 0,522.3 424.9,947.3 947.3,947.3 522.4,0 947.3,-425 947.3,-947.3 0,-522.4 -424.9,-947.3 -947.3,-947.3"
         style="fill:#390277;fill-opacity:1;fill-rule:nonzero;stroke:none"
         transform="matrix(0.13333333,0,0,-0.13333333,0,5333.3333)" />
      <path
         id="path61"
         d="m 20000,33018.1 c -7178.2,0 -13018.07,-5839.9 -13018.07,-13018.1 0,-7178.2 5839.87,-13018.1 13018.07,-13018.1 7178.2,0 13018.1,5839.9 13018.1,13018.1 0,7178.2 -5839.9,13018.1 -13018.1,13018.1 z m 0,-26606.1 c -3629.5,0 -7041.7,1413.4 -9608.2,3979.8 -2566.41,2566.5 -3979.79,5978.7 -3979.79,9608.2 0,3629.5 1413.38,7041.7 3979.79,9608.2 2566.5,2566.4 5978.7,3979.8 9608.2,3979.8 3629.5,0 7041.7,-1413.4 9608.2,-3979.8 2566.4,-2566.5 3979.8,-5978.7 3979.8,-9608.2 0,-3629.5 -1413.4,-7041.7 -3979.8,-9608.2 C 27041.7,7825.4 23629.5,6412 20000,6412"
         style="fill:#390277;fill-opacity:1;fill-rule:nonzero;stroke:none"
         transform="matrix(0.13333333,0,0,-0.13333333,0,5333.3333)" />
    </g>
  </g>
</svg>
