<?xml version="1.0" encoding="UTF-8" standalone="no"?>
<!-- Created with Inkscape (http://www.inkscape.org/) -->

<svg
   width="1200"
   height="630"
   viewBox="0 0 317.5 166.6875"
   version="1.1"
   id="svg1"
   inkscape:version="1.4.4 (dcaf3e7d9e, 2026-05-05)"
   sodipodi:docname="og-image.svg"
   xmlns:inkscape="http://www.inkscape.org/namespaces/inkscape"
   xmlns:sodipodi="http://sodipodi.sourceforge.net/DTD/sodipodi-0.dtd"
   xmlns="http://www.w3.org/2000/svg"
   xmlns:svg="http://www.w3.org/2000/svg">
  <sodipodi:namedview
     id="namedview1"
     pagecolor="#ffffff"
     bordercolor="#000000"
     borderopacity="0.25"
     inkscape:showpageshadow="2"
     inkscape:pageopacity="0.0"
     inkscape:pagecheckerboard="0"
     inkscape:deskcolor="#d1d1d1"
     inkscape:document-units="mm"
     inkscape:zoom="0.77949635"
     inkscape:cx="396.40981"
     inkscape:cy="407.31429"
     inkscape:window-width="2004"
     inkscape:window-height="1080"
     inkscape:window-x="0"
     inkscape:window-y="0"
     inkscape:window-maximized="1"
     inkscape:current-layer="layer1" />
  <defs
     id="defs1">
    <linearGradient
       x1="0"
       y1="0"
       x2="1"
       y2="0"
       gradientUnits="userSpaceOnUse"
       gradientTransform="matrix(730.225,-23529.5,-23529.5,-730.225,19780.4,27076.6)"
       spreadMethod="pad"
       id="linearGradient5">
      <stop
         style="stop-opacity:1;stop-color:#9267e8"
         offset="0"
         id="stop3" />
      <stop
         style="stop-opacity:1;stop-color:#390277"
         offset="0.99789"
         id="stop4" />
      <stop
         style="stop-opacity:1;stop-color:#390277"
         offset="1"
         id="stop5" />
    </linearGradient>
    <clipPath
       clipPathUnits="userSpaceOnUse"
       id="clipPath5">
      <path
         d="M 20000.001,6696.9999 C 12652.9,6696.9999 6696.9802,12652.9 6696.9802,20000 c 0,7347.1 5955.9198,13303.001 13303.0208,13303.001 7347.1,0 13303,-5955.901 13303,-13303.001 0,-7347.1 -5955.9,-13303.0001 -13303,-13303.0001 m 0,23745.6011 c -4599.401,0 -8341.301,-3741.901 -8341.301,-8341.301 0,-4599.3 3741.9,-8341.2 8341.301,-8341.2 4599.4,0 8341.3,3741.9 8341.3,8341.2 0,4599.4 -3741.9,8341.301 -8341.3,8341.301"
         id="path5" />
    </clipPath>
  </defs>
  <g
     inkscape:label="Camada 1"
     inkscape:groupmode="layer"
     id="layer1">
    <path
       id="path2"
       d="M 4e-6,166.6875 H 317.5 V -1e-6 H 4e-6 Z"
       style="fill:#be80ff;fill-opacity:1;fill-rule:evenodd;stroke:none;stroke-width:0.00575127" />
    <g
       id="g2"
       transform="matrix(0.3894369,0,0,0.38943676,108.90206,33.49581)">
      <path
         id="path3"
         d="m 20000,6697 c -7347.1,0 -13303.02,5955.9 -13303.02,13303 0,7347.1 5955.92,13303 13303.02,13303 7347.1,0 13303,-5955.9 13303,-13303 0,-7347.1 -5955.9,-13303 -13303,-13303 m 0,23745.6 c -4599.4,0 -8341.3,-3741.9 -8341.3,-8341.3 0,-4599.3 3741.9,-8341.2 8341.3,-8341.2 4599.4,0 8341.3,3741.9 8341.3,8341.2 0,4599.4 -3741.9,8341.3 -8341.3,8341.3"
         style="fill:url(#linearGradient5);fill-opacity:1;fill-rule:nonzero;stroke:none"
         transform="matrix(0.0064,0,0,-0.0064,0,256.00009)"
         clip-path="url(#clipPath5)" />
      <path
         id="path6"
         d="m 70.2816,89.12521 c 0,-0.59136 -1.3536,-1.1136 -3.41888,-1.42528 -1.6,-0.24192 -2.85184,-1.52896 -3.000704,-3.14048 -0.281408,-3.05088 -0.835712,-5.12704 -1.474688,-5.12704 -0.638912,0 -1.193216,2.07616 -1.474688,5.12704 -0.148608,1.61152 -1.40064,2.89856 -3.000512,3.14048 -2.06528,0.31168 -3.4192,0.83392 -3.4192,1.42528 0,0.592 1.35392,1.1136 3.4192,1.42592 1.599872,0.24192 2.851904,1.52896 3.000512,3.14048 0.281472,3.05024 0.835776,5.12704 1.474688,5.12704 0.638976,0 1.19328,-2.0768 1.474688,-5.12704 0.148864,-1.61152 1.400704,-2.89856 3.000704,-3.14048 2.06528,-0.31232 3.41888,-0.83392 3.41888,-1.42592"
         style="fill:#ffffff;fill-opacity:1;fill-rule:evenodd;stroke:none;stroke-width:0.0064" />
      <path
         id="path7"
         d="m 168.49856,60.53641 c 0,-0.38912 -0.89024,-0.73216 -2.24768,-0.9376 -1.05152,-0.15872 -1.87456,-1.0048 -1.97248,-2.064 -0.18496,-2.00512 -0.54912,-3.37024 -0.9696,-3.37024 -0.41984,0 -0.784,1.36512 -0.96896,3.37024 -0.0979,1.0592 -0.92096,1.90528 -1.97248,2.064 -1.35744,0.20544 -2.24768,0.54848 -2.24768,0.9376 0,0.38848 0.89024,0.73152 2.24768,0.93696 1.05152,0.15872 1.87456,1.0048 1.97248,2.064 0.18496,2.00576 0.54912,3.37024 0.96896,3.37024 0.42048,0 0.78464,-1.36448 0.9696,-3.37024 0.0979,-1.0592 0.92096,-1.90528 1.97248,-2.064 1.35744,-0.20544 2.24768,-0.54848 2.24768,-0.93696"
         style="fill:#ffffff;fill-opacity:1;fill-rule:evenodd;stroke:none;stroke-width:0.0064" />
      <path
         id="path8"
         d="m 187.46304,179.63657 c 0,-0.28672 -0.65664,-0.54016 -1.65824,-0.69184 -0.77632,-0.11712 -1.38368,-0.74112 -1.45536,-1.5232 -0.13696,-1.47968 -0.40576,-2.4864 -0.71552,-2.4864 -0.30976,0 -0.57856,1.00672 -0.71552,2.4864 -0.0717,0.78208 -0.67904,1.40608 -1.45536,1.5232 -1.0016,0.15168 -1.65824,0.40512 -1.65824,0.69184 0,0.28672 0.65664,0.54016 1.65824,0.6912 0.77632,0.11712 1.38368,0.74176 1.45536,1.5232 0.13696,1.47968 0.40576,2.48704 0.71552,2.48704 0.30976,0 0.57856,-1.00736 0.71552,-2.48704 0.0717,-0.78144 0.67904,-1.40608 1.45536,-1.5232 1.0016,-0.15104 1.65824,-0.40448 1.65824,-0.6912"
         style="fill:#ffffff;fill-opacity:1;fill-rule:evenodd;stroke:none;stroke-width:0.0064" />
      <path
         id="path9"
         d="m 205.71072,103.52009 c 0,-0.28672 -0.65664,-0.54016 -1.65824,-0.6912 -0.77632,-0.11776 -1.38368,-0.74176 -1.45536,-1.5232 -0.13696,-1.48032 -0.40576,-2.48704 -0.71552,-2.48704 -0.30976,0 -0.57856,1.00672 -0.71552,2.48704 -0.0717,0.78144 -0.67904,1.40544 -1.45536,1.5232 -1.0016,0.15104 -1.65824,0.40448 -1.65824,0.6912 0,0.28672 0.65664,0.54016 1.65824,0.6912 0.77632,0.11776 1.38368,0.74176 1.45536,1.5232 0.13696,1.47968 0.40576,2.48704 0.71552,2.48704 0.30976,0 0.57856,-1.00736 0.71552,-2.48704 0.0717,-0.78144 0.67904,-1.40544 1.45536,-1.5232 1.0016,-0.15104 1.65824,-0.40448 1.65824,-0.6912"
         style="fill:#ffffff;fill-opacity:1;fill-rule:evenodd;stroke:none;stroke-width:0.0064" />
      <path
         id="path10"
         d="m 95.2032,56.36489 c 0,-0.28736 -0.65664,-0.54016 -1.65824,-0.69184 -0.77632,-0.11712 -1.38304,-0.74112 -1.45536,-1.5232 -0.13632,-1.47968 -0.40512,-2.4864 -0.71552,-2.4864 -0.30976,0 -0.57856,1.00672 -0.71488,2.4864 -0.07232,0.78208 -0.67968,1.40608 -1.45536,1.5232 -1.00224,0.15168 -1.65888,0.40448 -1.65888,0.69184 0,0.28672 0.65664,0.54016 1.65888,0.6912 0.77568,0.11776 1.38304,0.74176 1.45536,1.5232 0.13632,1.47968 0.40512,2.48704 0.71488,2.48704 0.3104,0 0.5792,-1.00736 0.71552,-2.48704 0.07232,-0.78144 0.67904,-1.40544 1.45536,-1.5232 1.0016,-0.15104 1.65824,-0.40448 1.65824,-0.6912"
         style="fill:#ffffff;fill-opacity:1;fill-rule:evenodd;stroke:none;stroke-width:0.0064" />
      <path
         id="path11"
         d="m 80.41856,68.19593 c 0,0.8704 -0.70592,1.57632 -1.57632,1.57632 -0.8704,0 -1.57568,-0.70592 -1.57568,-1.57632 0,-0.8704 0.70528,-1.57632 1.57568,-1.57632 0.8704,0 1.57632,0.70592 1.57632,1.57632"
         style="fill:#ffffff;fill-opacity:1;fill-rule:evenodd;stroke:none;stroke-width:0.0064" />
      <path
         id="path12"
         d="m 195.63904,167.70953 c 0,0.8704 -0.70592,1.57632 -1.57632,1.57632 -0.8704,0 -1.57568,-0.70592 -1.57568,-1.57632 0,-0.8704 0.70528,-1.57632 1.57568,-1.57632 0.8704,0 1.57632,0.70592 1.57632,1.57632"
         style="fill:#ffffff;fill-opacity:1;fill-rule:evenodd;stroke:none;stroke-width:0.0064" />
      <path
         id="path13"
         d="m 57.64512,166.13321 c 0,0.87104 -0.7056,1.57632 -1.576064,1.57632 -0.870464,0 -1.576128,-0.70528 -1.576128,-1.57632 0,-0.8704 0.705664,-1.57568 1.576128,-1.57568 0.870464,0 1.576064,0.70528 1.576064,1.57568"
         style="fill:#ffffff;fill-opacity:1;fill-rule:evenodd;stroke:none;stroke-width:0.0064" />
      <path
         id="path14"
         d="m 184.73408,90.70153 c 0,0.60736 -0.4928,1.10016 -1.10016,1.10016 -0.60736,0 -1.10016,-0.4928 -1.10016,-1.10016 0,-0.60736 0.4928,-1.10016 1.10016,-1.10016 0.60736,0 1.10016,0.4928 1.10016,1.10016"
         style="fill:#ffffff;fill-opacity:1;fill-rule:evenodd;stroke:none;stroke-width:0.0064" />
      <path
         id="path15"
         d="m 174.02688,66.90761 c 0,0.608 -0.4928,1.10016 -1.10016,1.10016 -0.608,0 -1.10016,-0.49216 -1.10016,-1.10016 0,-0.60736 0.49216,-1.10016 1.10016,-1.10016 0.60736,0 1.10016,0.4928 1.10016,1.10016"
         style="fill:#ffffff;fill-opacity:1;fill-rule:evenodd;stroke:none;stroke-width:0.0064" />
      <path
         id="path16"
         d="m 143.0528,55.26473 c 0,0.60736 -0.4928,1.10016 -1.10016,1.10016 -0.608,0 -1.10016,-0.4928 -1.10016,-1.10016 0,-0.60736 0.49216,-1.10016 1.10016,-1.10016 0.60736,0 1.10016,0.4928 1.10016,1.10016"
         style="fill:#ffffff;fill-opacity:1;fill-rule:evenodd;stroke:none;stroke-width:0.0064" />
      <path
         id="path17"
         d="m 54.492928,107.12137 c 0,0.60736 -0.492544,1.10016 -1.100096,1.10016 -0.607616,0 -1.10016,-0.4928 -1.10016,-1.10016 0,-0.60736 0.492544,-1.10016 1.10016,-1.10016 0.607552,0 1.100096,0.4928 1.100096,1.10016"
         style="fill:#ffffff;fill-opacity:1;fill-rule:evenodd;stroke:none;stroke-width:0.0064" />
      <path
         id="path18"
         d="m 73.46624,96.86857 c 0,0.60736 -0.4928,1.10016 -1.10016,1.10016 -0.60736,0 -1.10016,-0.4928 -1.10016,-1.10016 0,-0.608 0.4928,-1.10016 1.10016,-1.10016 0.60736,0 1.10016,0.49216 1.10016,1.10016"
         style="fill:#ffffff;fill-opacity:1;fill-rule:evenodd;stroke:none;stroke-width:0.0064" />
      <path
         id="path19"
         d="m 124.17088,50.54089 c 0,1.30624 -1.0592,2.36544 -2.36544,2.36544 -1.30688,0 -2.36544,-1.0592 -2.36544,-2.36544 0,-1.30688 1.05856,-2.36608 2.36544,-2.36608 1.30624,0 2.36544,1.0592 2.36544,2.36608"
         style="fill:#ffffff;fill-opacity:1;fill-rule:evenodd;stroke:none;stroke-width:0.0064" />
      <path
         id="path20"
         d="m 74.73152,182.06921 c 0,1.30624 -1.0592,2.36544 -2.36544,2.36544 -1.30624,0 -2.36544,-1.0592 -2.36544,-2.36544 0,-1.30624 1.0592,-2.36544 2.36544,-2.36544 1.30624,0 2.36544,1.0592 2.36544,2.36544"
         style="fill:#ffffff;fill-opacity:1;fill-rule:evenodd;stroke:none;stroke-width:0.0064" />
      <path
         id="path21"
         d="m 164.62592,204.87817 v -31.1424 c 0,-8.10048 -6.56704,-14.66752 -14.66752,-14.66752 h -43.9168 c -8.10048,0 -14.66752,6.56704 -14.66752,14.66752 v 31.1424 c 24.784,9.59104 49.2128,9.88928 73.25184,0"
         style="fill:#ffffff;fill-opacity:1;fill-rule:evenodd;stroke:none;stroke-width:0.0064" />
      <path
         id="path22"
         d="m 164.62592,206.68169 c -0.99648,0 -1.80352,-0.80768 -1.80352,-1.80352 v -31.1424 c 0,-7.09376 -5.77088,-12.864 -12.864,-12.864 h -43.9168 c -7.09312,0 -12.864,5.77024 -12.864,12.864 v 31.1424 c 0,0.99584 -0.80704,1.80352 -1.80352,1.80352 -0.99584,0 -1.80288,-0.80768 -1.80288,-1.80352 v -31.1424 c 0,-9.08224 7.3888,-16.47104 16.4704,-16.47104 h 43.9168 c 9.0816,0 16.4704,7.3888 16.4704,16.47104 v 31.1424 c 0,0.99584 -0.80704,1.80352 -1.80288,1.80352"
         style="fill:#390277;fill-opacity:1;fill-rule:nonzero;stroke:none;stroke-width:0.0064" />
      <path
         id="path23"
         d="m 98.10432,155.26025 1.55776,21.72288 -0.9088,29.59872 c 19.69664,8.02304 39.3472,7.10528 58.96256,-0.6944 l -1.71264,-26.04736 -0.5888,-30.11648"
         style="fill:#ffffff;fill-opacity:1;fill-rule:evenodd;stroke:none;stroke-width:0.0064" />
      <path
         id="path24"
         d="m 177.15776,102.12169 6.63552,3.75616 c 1.63136,0.92352 2.7712,2.544 3.01952,4.40256 0.77504,5.81056 0.5856,11.5744 -0.0653,17.31648 -0.2304,2.02752 -1.48864,3.7952 -3.31328,4.70912 l -8.8608,4.43968"
         style="fill:#ffffff;fill-opacity:1;fill-rule:evenodd;stroke:none;stroke-width:0.0064" />
      <path
         id="path25"
         d="m 185.10336,125.60585 c -0.23296,2.03072 -1.48928,3.79328 -3.31648,4.71296 l -8.86016,4.4384 0.45952,-6.14336 6.34688,-3.18208 c 1.82144,-0.91328 3.08352,-2.68224 3.31072,-4.70656 0.6048,-5.31776 0.81408,-10.65856 0.21504,-16.03392 1.02976,0.93056 1.72224,2.19328 1.90848,3.59552 0.77952,5.81184 0.58752,11.57696 -0.064,17.31904"
         style="fill:#c1d4e8;fill-opacity:1;fill-rule:evenodd;stroke:none;stroke-width:0.0064" />
      <path
         id="path26"
         d="m 174.57472,138.54921 c -0.66048,0 -1.29664,-0.3648 -1.61344,-0.99584 -0.44608,-0.89088 -0.0858,-1.9744 0.80448,-2.41984 l 8.8608,-4.43968 c 1.29792,-0.65024 2.16832,-1.88352 2.32896,-3.30048 0.72768,-6.41536 0.75008,-11.77728 0.0698,-16.87488 -0.16896,-1.2672 -0.96192,-2.416 -2.12032,-3.07136 l -6.63552,-3.75616 c -0.86656,-0.49088 -1.17184,-1.59104 -0.68096,-2.4576 0.49088,-0.86656 1.59104,-1.17184 2.4576,-0.68096 l 6.63552,3.75616 c 2.13568,1.20896 3.60064,3.35168 3.91872,5.73248 0.72,5.39904 0.7008,11.04192 -0.0608,17.75936 -0.29888,2.63232 -1.90528,4.91968 -4.2976,6.1184 l -8.86016,4.43904 c -0.25984,0.12992 -0.53504,0.19136 -0.80704,0.19136"
         style="fill:#390277;fill-opacity:1;fill-rule:nonzero;stroke:none;stroke-width:0.0064" />
      <path
         id="path27"
         d="m 78.84224,102.12169 -6.63552,3.75616 c -1.63136,0.92352 -2.7712,2.544 -3.01952,4.40256 -0.77504,5.81056 -0.5856,11.5744 0.06528,17.31648 0.2304,2.02752 1.48864,3.7952 3.31328,4.70912 l 8.8608,4.43968"
         style="fill:#ffffff;fill-opacity:1;fill-rule:evenodd;stroke:none;stroke-width:0.0064" />
      <path
         id="path28"
         d="m 70.89664,125.60585 c 0.23296,2.03072 1.48928,3.79328 3.31648,4.71296 l 8.86016,4.4384 -0.45952,-6.14336 -6.34688,-3.18208 c -1.82144,-0.91328 -3.08352,-2.68224 -3.31072,-4.70656 -0.6048,-5.31776 -0.81408,-10.65856 -0.21504,-16.03392 -1.02976,0.93056 -1.72224,2.19328 -1.90848,3.59552 -0.77952,5.81184 -0.58752,11.57696 0.064,17.31904"
         style="fill:#c1d4e8;fill-opacity:1;fill-rule:evenodd;stroke:none;stroke-width:0.0064" />
      <path
         id="path29"
         d="m 81.42528,138.54921 c -0.272,0 -0.5472,-0.0614 -0.80704,-0.19136 l -8.86016,-4.43904 c -2.39232,-1.19872 -3.99872,-3.48608 -4.2976,-6.1184 -0.7616,-6.71744 -0.7808,-12.36032 -0.0608,-17.75872 0.31808,-2.38144 1.78304,-4.52416 3.91872,-5.73312 l 6.63552,-3.75616 c 0.86656,-0.49024 1.96672,-0.1856 2.4576,0.68096 0.49088,0.86656 0.1856,1.96672 -0.68096,2.4576 l -6.63552,3.75616 c -1.1584,0.65536 -1.95136,1.80416 -2.12032,3.072 -0.68032,5.09696 -0.65792,10.45888 0.06976,16.87424 0.16064,1.41696 1.03104,2.65024 2.32896,3.30048 l 8.8608,4.43968 c 0.89024,0.44544 1.25056,1.52896 0.80448,2.41984 -0.3168,0.63104 -0.95296,0.99584 -1.61344,0.99584"
         style="fill:#390277;fill-opacity:1;fill-rule:nonzero;stroke:none;stroke-width:0.0064" />
      <path
         id="path30"
         d="m 179.5808,114.55113 c 0,28.48768 -23.09312,51.58144 -51.5808,51.58144 -28.48768,0 -51.5808,-23.09376 -51.5808,-51.58144 0,-28.48704 23.09312,-51.5808 51.5808,-51.5808 28.48768,0 51.5808,23.09376 51.5808,51.5808"
         style="fill:#ffffff;fill-opacity:1;fill-rule:evenodd;stroke:none;stroke-width:0.0064" />
      <path
         id="path31"
         d="m 179.58016,114.55305 c 0,28.48384 -23.0912,51.58016 -51.58016,51.58016 -23.96352,0 -44.10496,-16.336 -49.89888,-38.47808 7.16736,19.87328 26.19136,34.08 48.5312,34.08 28.4896,0 51.58016,-23.09632 51.58016,-51.58592 0,-4.51456 -0.58176,-8.89536 -1.66912,-13.06688 1.96608,5.45728 3.0368,11.33888 3.0368,17.47072"
         style="fill:#c1d4e8;fill-opacity:1;fill-rule:evenodd;stroke:none;stroke-width:0.0064" />
      <path
         id="path32"
         d="m 128,64.77385 c -27.44768,0 -49.77728,22.33024 -49.77728,49.77792 0,27.44704 22.3296,49.77728 49.77728,49.77728 27.44768,0 49.77728,-22.33024 49.77728,-49.77728 0,-27.44768 -22.3296,-49.77792 -49.77728,-49.77792 m 0,103.1616 c -29.43616,0 -53.38432,-23.94816 -53.38432,-53.38368 0,-29.43616 23.94816,-53.38432 53.38432,-53.38432 29.43616,0 53.38432,23.94816 53.38432,53.38432 0,29.43552 -23.94816,53.38368 -53.38432,53.38368"
         style="fill:#390277;fill-opacity:1;fill-rule:nonzero;stroke:none;stroke-width:0.0064" />
      <path
         id="path33"
         d="m 128,77.38057 c -12.67072,0 -24.75264,4.39552 -34.01856,12.37632 -8.8992,7.66528 -14.0032,17.808 -14.0032,27.8272 0,20.72128 21.5424,37.57888 48.02176,37.57888 26.47936,0 48.02176,-16.8576 48.02176,-37.57888 0,-10.0192 -5.104,-20.16192 -14.0032,-27.8272 C 152.75264,81.77609 140.67072,77.38057 128,77.38057 m 0,80.0544 c -27.73248,0 -50.29376,-17.87712 -50.29376,-39.85088 0,-10.68096 5.392,-21.45088 14.79232,-29.54816 9.67872,-8.33664 22.28672,-12.92736 35.50144,-12.92736 13.21472,0 25.82272,4.59072 35.50144,12.92736 9.40032,8.09728 14.79232,18.8672 14.79232,29.54816 0,21.97376 -22.56128,39.85088 -50.29376,39.85088"
         style="fill:#390277;fill-opacity:1;fill-rule:nonzero;stroke:none;stroke-width:0.0064" />
      <path
         id="path34"
         d="m 177.15776,117.58409 c 0,21.38176 -22.00896,38.71488 -49.15776,38.71488 -27.1488,0 -49.15776,-17.33312 -49.15776,-38.71488 0,-21.38112 22.00896,-41.33952 49.15776,-41.33952 27.1488,0 49.15776,19.9584 49.15776,41.33952"
         style="fill:#390277;fill-opacity:1;fill-rule:evenodd;stroke:none;stroke-width:0.0064" />
      <path
         id="path35"
         d="m 178.88832,117.44969 c -0.62656,0 -1.13408,-0.50816 -1.13408,-1.13472 0,-23.64608 -23.24992,-44.38848 -49.75424,-44.38848 -26.50432,0 -49.75424,20.7424 -49.75424,44.38848 0,0.62656 -0.50752,1.13472 -1.13408,1.13472 -0.62656,0 -1.13472,-0.50816 -1.13472,-1.13472 0,-11.76064 5.56736,-23.5968 15.27424,-32.47424 10.00064,-9.1456 23.05152,-14.18304 36.7488,-14.18304 13.69728,0 26.74816,5.03744 36.7488,14.18304 9.70688,8.87744 15.27424,20.7136 15.27424,32.47424 0,0.62656 -0.50816,1.13472 -1.13472,1.13472"
         style="fill:#390277;fill-opacity:1;fill-rule:nonzero;stroke:none;stroke-width:0.0064" />
      <path
         id="path36"
         d="m 92.77504,110.15177 c -1.36704,0 -2.30336,-0.48576 -2.7392,-1.63392 -1.84832,-4.87104 6.83904,-16.35392 21.31392,-21.8464 5.73952,-2.17792 11.52768,-3.08672 16.53824,-3.08672 7.62496,0 13.44896,2.10496 14.56448,5.04448 1.84832,4.87104 -10.75712,6.72704 -25.232,12.21952 -11.06176,4.19712 -20.01408,9.30304 -24.44544,9.30304"
         style="fill:#8462ab;fill-opacity:1;fill-rule:nonzero;stroke:none;stroke-width:0.0064" />
      <path
         id="path37"
         d="m 159.248,136.05257 c -1.18464,0 -2.32448,-0.32128 -3.30624,-0.99712 -3.10976,-2.14144 -3.45536,-7.0368 -0.77184,-10.93312 1.83616,-2.66624 4.61504,-4.17472 7.18336,-4.17472 1.18464,0 2.32448,0.32128 3.30624,0.99712 3.10976,2.14144 3.45536,7.0368 0.77184,10.93312 -1.83616,2.66624 -4.61504,4.17472 -7.18336,4.17472"
         style="fill:#8462ab;fill-opacity:1;fill-rule:nonzero;stroke:none;stroke-width:0.0064" />
      <path
         id="path38"
         d="m 141.98016,146.60105 c -3.68,0 -6.66368,-2.55744 -6.66368,-5.712 0,-3.15456 2.98368,-5.712 6.66368,-5.712 3.68064,0 6.66432,2.55744 6.66432,5.712 0,3.15456 -2.98368,5.712 -6.66432,5.712"
         style="fill:#8462ab;fill-opacity:1;fill-rule:nonzero;stroke:none;stroke-width:0.0064" />
      <path
         id="path39"
         d="M 106.04864,161.70569 C 94.31104,155.68393 83.84896,146.33097 74.592,133.82921 c 1.09312,-6.86912 -1.61408,-14.06464 -6.9248,-5.18144 l -5.478976,-5.32288 c -4.413824,-5.62496 -10.766016,-4.8224 -7.44288,3.11616 -5.418368,-4.12416 -6.978944,-1.72032 -5.235968,6.27456 0,0 -6.638976,-1.904 -0.679872,8.56768 0,0 15.608896,28.94912 50.832576,35.69984 0,0 -2.67264,17.08992 -1.24992,30.22464"
         style="fill:#ffffff;fill-opacity:1;fill-rule:evenodd;stroke:none;stroke-width:0.0064" />
      <path
         id="path40"
         d="m 64.4384,130.42185 -5.798528,11.85664 c 0,0 -12.452032,-14.0576 5.798528,-11.85664"
         style="fill:#c1d4e8;fill-opacity:1;fill-rule:evenodd;stroke:none;stroke-width:0.0064" />
      <path
         id="path41"
         d="m 100.5856,168.53065 c -13.90656,-2.01024 -26.97216,-6.63552 -38.648512,-15.57824 0,0 16.089152,19.79008 37.898432,22.848"
         style="fill:#c1d4e8;fill-opacity:1;fill-rule:evenodd;stroke:none;stroke-width:0.0064" />
      <path
         id="path42"
         d="m 98.41024,209.01129 c -0.9088,0 -1.69024,-0.68544 -1.79072,-1.6096 -1.18464,-10.93376 0.3776,-24.29632 1.01568,-28.99072 -17.74336,-3.81952 -30.33792,-13.20128 -37.855808,-20.51712 -8.27936,-8.05568 -12.250944,-15.22816 -12.527232,-15.73568 -2.800576,-4.92672 -3.407808,-8.10752 -1.911232,-10.01152 0.56032,-0.71168 1.278784,-1.07456 1.984384,-1.24288 -0.69376,-4.27072 -0.210304,-6.63168 1.522816,-7.73632 0.982208,-0.62592 2.07968,-0.62976 3.165952,-0.31168 -0.09312,-2.7104 1.303424,-3.92 2.09376,-4.38336 2.581504,-1.51552 6.527808,0.016 9.421248,3.6416 l 3.841152,3.7312 c 1.98272,-2.63616 3.9456,-3.6192 5.85088,-2.928 3.0272,1.09952 3.79776,6.0288 3.25952,10.4288 9.02592,12.0384 19.24736,21.03808 30.39104,26.7552 0.8864,0.45504 1.23584,1.54176 0.78144,2.42752 -0.4544,0.8864 -1.54112,1.23712 -2.42752,0.78144 -11.82336,-6.06592 -22.61696,-15.62368 -32.0832,-28.40768 -0.288,-0.38976 -0.40768,-0.87808 -0.33152,-1.3568 0.6304,-3.9616 -0.24128,-6.76416 -0.79168,-7.2128 -0.2176,0.0736 -1.18912,0.53824 -2.80448,3.24032 -0.28224,0.47296 -0.76608,0.79104 -1.31264,0.86272 -0.54976,0.0717 -1.09632,-0.11072 -1.4912,-0.49472 l -5.479296,-5.32224 c -0.05818,-0.057 -0.112192,-0.11712 -0.16224,-0.18048 -2.036864,-2.59584 -4.196224,-3.23008 -4.835584,-2.85632 -0.331904,0.1952 -0.65248,1.4688 0.475008,4.16256 0.315008,0.75264 0.08531,1.62304 -0.56032,2.12224 -0.645312,0.49984 -1.545664,0.50368 -2.195328,0.009 -1.697472,-1.29216 -2.5472,-1.55328 -2.85344,-1.60448 -0.150912,0.39232 -0.45312,1.81824 0.471552,6.06016 0.13536,0.61952 -0.0656,1.26528 -0.528704,1.6992 -0.463168,0.43456 -1.1216,0.592 -1.730368,0.41792 -0.262784,-0.0691 -0.654656,-0.087 -0.837184,-0.0397 -0.06714,0.28544 -0.1984,1.72928 2.221568,5.98208 0.0069,0.0122 0.01344,0.0243 0.02003,0.0358 0.03782,0.0698 3.925312,7.17056 11.9728,14.97472 7.387904,7.1648 19.910784,16.41792 37.611906,19.81056 0.95488,0.18304 1.59232,1.08928 1.44256,2.04928 -0.0262,0.16896 -2.618882,17.01312 -1.2384,29.75168 0.10688,0.99008 -0.608642,1.88032 -1.598722,1.9872 -0.06592,0.007 -0.1312,0.0109 -0.19648,0.0109"
         style="fill:#390277;fill-opacity:1;fill-rule:nonzero;stroke:none;stroke-width:0.0064" />
      <path
         id="path43"
         d="m 69.24608,129.51945 -1.1232,2.03392 c -0.0032,0.004 -1.14752,0.88192 -1.13984,0.88064 -1.02464,0.38656 -2.04608,0.97408 -2.7328,1.83168 -0.393408,0.48 -0.713152,1.08992 -0.93152,1.73248 -0.200256,0.62976 -0.27424,1.26848 -0.433664,1.92896 -0.123328,0.49728 -0.626816,0.80128 -1.12448,0.67776 -0.801984,-0.21632 -0.813056,-1.23072 -1.001152,-1.9072 -0.632512,-3.48608 1.973376,-6.94016 5.342976,-7.76448 l -1.13664,0.8768 1.12256,-2.03392 c 1.22368,-2.048 4.24,-0.38784 3.15776,1.74336"
         style="fill:#390277;fill-opacity:1;fill-rule:nonzero;stroke:none;stroke-width:0.0064" />
      <path
         id="path44"
         d="m 71.36768,166.55689 c -0.59264,0 -1.1488,-0.3648 -1.36512,-0.95296 -0.27776,-0.75328 0.1088,-1.58976 0.86272,-1.86688 9.81632,-3.61216 13.07456,-16.14848 13.10656,-16.27456 0.19584,-0.77888 0.98688,-1.25056 1.76512,-1.05536 0.77952,0.19584 1.25184,0.98624 1.05536,1.76576 -0.14464,0.576 -3.68064,14.15744 -14.92288,18.29376 -0.16512,0.0614 -0.33536,0.0902 -0.50176,0.0902"
         style="fill:#390277;fill-opacity:1;fill-rule:nonzero;stroke:none;stroke-width:0.0064" />
      <path
         id="path45"
         d="m 72.1408,136.74569 c -3.712,5.79904 -8.474944,9.42336 -14.19328,11.072 8.5216,0.10368 15.80544,-1.03104 14.19328,-11.072"
         style="fill:#c1d4e8;fill-opacity:1;fill-rule:evenodd;stroke:none;stroke-width:0.0064" />
      <path
         id="path46"
         d="m 149.95136,161.70569 c 11.7376,-6.02176 22.19968,-15.37472 31.45664,-27.87648 -1.09312,-6.86912 1.61408,-14.06464 6.9248,-5.18144 l 5.47904,-5.32288 c 4.41344,-5.62496 10.76608,-4.8224 7.44256,3.11616 5.41888,-4.12416 6.9792,-1.72032 5.23648,6.27456 0,0 6.63872,-1.904 0.67968,8.56768 0,0 -15.60896,28.94912 -50.83264,35.69984 0,0 2.67264,17.08992 1.24992,30.22464"
         style="fill:#ffffff;fill-opacity:1;fill-rule:evenodd;stroke:none;stroke-width:0.0064" />
      <path
         id="path47"
         d="m 191.5616,130.42185 5.7984,11.85664 c 0,0 12.45248,-14.0576 -5.7984,-11.85664"
         style="fill:#c1d4e8;fill-opacity:1;fill-rule:evenodd;stroke:none;stroke-width:0.0064" />
      <path
         id="path48"
         d="m 156.16448,175.80041 c 21.80928,-3.05792 37.89824,-22.848 37.89824,-22.848 -11.67616,8.94272 -24.74176,13.568 -38.64832,15.57824"
         style="fill:#c1d4e8;fill-opacity:1;fill-rule:evenodd;stroke:none;stroke-width:0.0064" />
      <path
         id="path49"
         d="m 157.58976,209.01129 c -0.0653,0 -0.13056,-0.004 -0.19648,-0.0109 -0.99008,-0.10688 -1.7056,-0.99712 -1.59872,-1.9872 1.38048,-12.73856 -1.21216,-29.58272 -1.2384,-29.75168 -0.14976,-0.96 0.48768,-1.86624 1.44256,-2.04928 17.70112,-3.39264 30.224,-12.64576 37.61216,-19.81056 8.04736,-7.80416 11.93472,-14.90496 11.97312,-14.97536 0.006,-0.0115 0.0128,-0.0243 0.0192,-0.0352 2.42048,-4.2528 2.28928,-5.69664 2.22208,-5.98208 -0.1824,-0.0474 -0.57664,-0.0294 -0.85312,0.0442 -0.6112,0.176 -1.25952,0.0141 -1.72288,-0.41984 -0.46272,-0.43392 -0.656,-1.08224 -0.52032,-1.70176 0.92416,-4.24192 0.62208,-5.66784 0.47104,-6.06016 -0.30592,0.0512 -1.15584,0.31232 -2.85312,1.60448 -0.6496,0.49472 -1.54944,0.49088 -2.1952,-0.009 -0.64576,-0.4992 -0.87552,-1.3696 -0.56064,-2.12224 1.12768,-2.69376 0.80704,-3.96736 0.47552,-4.16256 -0.63808,-0.3744 -2.79936,0.25984 -4.83584,2.85632 -0.0499,0.0634 -0.10432,0.12352 -0.16256,0.18048 l -5.47904,5.32224 c -0.39488,0.384 -0.94272,0.56704 -1.4912,0.49472 -0.54656,-0.0717 -1.0304,-0.38976 -1.31264,-0.86272 -1.61536,-2.70208 -2.58688,-3.16672 -2.80448,-3.24032 -0.5504,0.44864 -1.42208,3.2512 -0.79168,7.2128 0.0762,0.47872 -0.0435,0.96704 -0.33152,1.3568 -9.46624,12.784 -20.25984,22.34176 -32.0832,28.40768 -0.8864,0.45504 -1.97312,0.10432 -2.42752,-0.78144 -0.4544,-0.88576 -0.10496,-1.97248 0.78144,-2.42752 11.14368,-5.71712 21.36512,-14.7168 30.39104,-26.7552 -0.53824,-4.4 0.23232,-9.32928 3.25952,-10.4288 1.90528,-0.69184 3.8688,0.29248 5.85088,2.928 l 3.84128,-3.7312 c 2.8928,-3.6256 6.83904,-5.15776 9.42144,-3.6416 0.78976,0.46336 2.18688,1.67296 2.09344,4.38336 1.08608,-0.31744 2.18368,-0.31424 3.16608,0.31168 1.73312,1.10464 2.21632,3.4656 1.52256,7.73632 0.70592,0.16832 1.424,0.5312 1.98464,1.24288 1.49632,1.904 0.88896,5.0848 -1.91168,10.01152 -0.27584,0.50752 -4.24768,7.68 -12.52672,15.73568 -7.51808,7.31584 -20.11264,16.6976 -37.856,20.51712 0.63808,4.6944 2.20032,18.05696 1.01568,28.99072 -0.10048,0.92416 -0.88192,1.6096 -1.79072,1.6096"
         style="fill:#390277;fill-opacity:1;fill-rule:nonzero;stroke:none;stroke-width:0.0064" />
      <path
         id="path50"
         d="m 189.91168,127.77609 1.12256,2.03392 -1.13664,-0.8768 c 0.97984,0.24384 1.87648,0.71744 2.68096,1.3216 1.95648,1.44512 3.09056,4.04864 2.66176,6.44288 -0.1856,0.83072 -0.33984,2.19968 -1.5072,1.88992 -0.79104,-0.25536 -0.6848,-1.24736 -0.8608,-1.87968 -0.19776,-0.87232 -0.57024,-1.78432 -1.12256,-2.44224 -0.68736,-0.8576 -1.70816,-1.44448 -2.7328,-1.83168 0.0122,6.4e-4 -1.13984,-0.87616 -1.13984,-0.88064 l -1.1232,-2.03392 c -1.08096,-2.12672 1.93024,-3.79456 3.15776,-1.74336"
         style="fill:#390277;fill-opacity:1;fill-rule:nonzero;stroke:none;stroke-width:0.0064" />
      <path
         id="path51"
         d="m 184.63232,166.55689 c -0.1664,0 -0.33664,-0.0288 -0.50176,-0.0902 -11.24224,-4.13632 -14.77824,-17.71776 -14.92288,-18.29376 -0.19648,-0.77952 0.27584,-1.56992 1.05536,-1.76576 0.77696,-0.19648 1.568,0.27584 1.76448,1.05408 0.0326,0.12608 3.32096,12.6752 13.1072,16.27584 0.75392,0.27712 1.14048,1.1136 0.86272,1.86688 -0.21632,0.58816 -0.77312,0.95296 -1.36512,0.95296"
         style="fill:#390277;fill-opacity:1;fill-rule:nonzero;stroke:none;stroke-width:0.0064" />
      <path
         id="path52"
         d="m 183.8592,136.74569 c 3.712,5.79904 8.47488,9.42336 14.19328,11.072 -8.5216,0.10368 -15.80544,-1.03104 -14.19328,-11.072"
         style="fill:#c1d4e8;fill-opacity:1;fill-rule:evenodd;stroke:none;stroke-width:0.0064" />
      <path
         id="path53"
         d="m 157.85984,194.03017 c -19.66016,1.42976 -39.632,1.38496 -59.88928,-0.008 -1.07392,-0.0736 -1.90912,-0.97088 -1.90912,-2.04736 v -4.05888 c 0,-1.13152 0.91712,-2.04864 2.048,-2.04864 h 59.60128 c 1.13088,0 2.048,0.91712 2.048,2.04864 v 4.06656 c 0,1.07328 -0.82816,1.96992 -1.89888,2.04736"
         style="fill:#ffffff;fill-opacity:1;fill-rule:evenodd;stroke:none;stroke-width:0.0064" />
      <path
         id="path54"
         d="m 98.10944,187.67113 c -0.13504,0 -0.24448,0.10944 -0.24448,0.24512 v 4.05824 c 0,0.1312 0.10112,0.24064 0.22976,0.2496 20.38144,1.40032 40.4448,1.40288 59.63392,0.008 h 6.4e-4 c 0.12672,-0.009 0.22592,-0.1184 0.22592,-0.24896 v -4.06656 c 0,-0.13568 -0.10944,-0.24512 -0.24448,-0.24512 z m 30.30656,9.21152 c -10.064,0 -20.27648,-0.35328 -30.56896,-1.06048 -2.0128,-0.13888 -3.58912,-1.82912 -3.58912,-3.84768 v -4.05824 c 0,-2.12416 1.728,-3.85216 3.85152,-3.85216 h 59.60128 c 2.12352,0 3.85152,1.728 3.85152,3.85216 v 4.06656 c 0,2.01088 -1.56928,3.70048 -3.57184,3.84576 -9.66208,0.70336 -19.54496,1.05408 -29.5744,1.05408"
         style="fill:#390277;fill-opacity:1;fill-rule:nonzero;stroke:none;stroke-width:0.0064" />
      <path
         id="path55"
         d="m 147.03488,184.33801 v 15.16096 c 0,0.18624 -0.0122,0.37248 -0.0352,0.55296 -0.26176,2.22848 -2.0768,3.9968 -4.36928,4.14784 -9.8144,0.63424 -19.6288,0.63424 -29.4432,0 -2.47296,-0.16256 -4.40448,-2.21632 -4.40448,-4.7008 v -15.16096 c 0,-2.59456 2.10624,-4.7008 4.70656,-4.7008 h 28.8448 c 1.77408,0 3.31584,0.98368 4.11904,2.432 0.37184,0.6752 0.58176,1.44896 0.58176,2.2688"
         style="fill:#ffffff;fill-opacity:1;fill-rule:evenodd;stroke:none;stroke-width:0.0064" />
      <path
         id="path56"
         d="m 147.03488,184.33801 v 15.16096 c 0,0.18624 -0.0122,0.37248 -0.0352,0.55296 -8.67648,2.68928 -26.68224,1.66272 -32.79808,1.21408 -1.17632,-0.0864 -2.08512,-1.06752 -2.08512,-2.24704 v -2.41664 c 23.44,6.59712 32.1664,-9.34336 34.33664,-14.53312 0.37184,0.6752 0.58176,1.44896 0.58176,2.2688"
         style="fill:#c1d4e8;fill-opacity:1;fill-rule:evenodd;stroke:none;stroke-width:0.0064" />
      <path
         id="path57"
         d="m 113.48672,181.44009 c -1.59872,0 -2.8992,1.29984 -2.8992,2.89856 v 15.1616 c 0,1.5264 1.19424,2.79936 2.71872,2.89856 9.69152,0.62976 19.51872,0.62976 29.2096,0 1.52448,-0.0992 2.71808,-1.37216 2.71808,-2.89856 v -15.1616 c 0,-1.59872 -1.30048,-2.89856 -2.8992,-2.89856 z m 14.42432,25.03808 c -4.95808,0 -9.91552,-0.16 -14.8384,-0.48064 -3.41632,-0.22208 -6.09152,-3.07584 -6.09152,-6.49728 v -15.1616 c 0,-3.5872 2.9184,-6.5056 6.5056,-6.5056 h 28.848 c 3.5872,0 6.50624,2.9184 6.50624,6.5056 v 15.1616 c 0,3.4208 -2.67584,6.2752 -6.09152,6.49728 -4.92288,0.32064 -9.88096,0.48064 -14.8384,0.48064"
         style="fill:#390277;fill-opacity:1;fill-rule:nonzero;stroke:none;stroke-width:0.0064" />
      <path
         id="path58"
         d="m 126.656,205.66985 c -0.8032,0 -1.45472,-0.65152 -1.45472,-1.45472 v -10.86656 c 0,-0.089 -0.0563,-0.16768 -0.1408,-0.19648 L 121.52,191.95465 c -1.26592,-0.4288 -2.11712,-1.61472 -2.11712,-2.95168 v -9.3664 c 0,-0.8032 0.65152,-1.45472 1.45472,-1.45472 0.8032,0 1.45408,0.65152 1.45408,1.45472 v 9.3664 c 0,0.089 0.057,0.16768 0.14144,0.19648 l 3.54048,1.19744 c 1.26592,0.4288 2.11648,1.61536 2.11648,2.95168 v 10.86656 c 0,0.8032 -0.65088,1.45472 -1.45408,1.45472"
         style="fill:#390277;fill-opacity:1;fill-rule:nonzero;stroke:none;stroke-width:0.0064" />
      <path
         id="path59"
         d="m 141.95264,190.47625 c 0,2.54528 -2.06336,4.60864 -4.60864,4.60864 -2.54528,0 -4.60864,-2.06336 -4.60864,-4.60864 0,-2.54528 2.06336,-4.60864 4.60864,-4.60864 2.54528,0 4.60864,2.06336 4.60864,4.60864"
         style="fill:#3ec4ff;fill-opacity:1;fill-rule:evenodd;stroke:none;stroke-width:0.0064" />
      <path
         id="path60"
         d="m 137.344,187.32169 c -1.73888,0 -3.15392,1.41504 -3.15392,3.15456 0,1.73888 1.41504,3.15392 3.15392,3.15392 1.73888,0 3.15392,-1.41504 3.15392,-3.15392 0,-1.73952 -1.41504,-3.15456 -3.15392,-3.15456 z m 0,9.21728 c -3.34336,0 -6.06272,-2.71936 -6.06272,-6.06272 0,-3.34272 2.71936,-6.06272 6.06272,-6.06272 3.34336,0 6.06272,2.72 6.06272,6.06272 0,3.34336 -2.71936,6.06272 -6.06272,6.06272"
         style="fill:#390277;fill-opacity:1;fill-rule:nonzero;stroke:none;stroke-width:0.0064" />
      <path
         id="path61"
         d="m 128,44.68425 c -45.94048,0 -83.315648,37.37536 -83.315648,83.31584 0,45.94048 37.375168,83.31584 83.315648,83.31584 45.94048,0 83.31584,-37.37536 83.31584,-83.31584 0,-45.94048 -37.37536,-83.31584 -83.31584,-83.31584 z m 0,170.27904 c -23.2288,0 -45.06688,-9.04576 -61.49248,-25.47072 -16.425024,-16.4256 -25.470656,-38.26368 -25.470656,-61.49248 0,-23.2288 9.045632,-45.06688 25.470656,-61.49248 C 82.93312,50.08265 104.7712,41.03689 128,41.03689 c 23.2288,0 45.06688,9.04576 61.49248,25.47072 16.42496,16.4256 25.47072,38.26368 25.47072,61.49248 0,23.2288 -9.04576,45.06688 -25.47072,61.49248 C 173.06688,205.91753 151.2288,214.96329 128,214.96329"
         style="fill:#390277;fill-opacity:1;fill-rule:nonzero;stroke:none;stroke-width:0.0064" />
    </g>
  </g>
</svg>
