<?xml version="1.0" encoding="UTF-8" standalone="no"?>
<!-- Created with Inkscape (http://www.inkscape.org/) -->

<svg
   version="1.1"
   id="svg1"
   width="5333.3335"
   height="5333.3335"
   viewBox="0 0 5333.3335 5333.3335"
   sodipodi:docname="logo.svg"
   inkscape:version="1.4.3 (0d15f75042, 2025-12-25)"
   xmlns:inkscape="http://www.inkscape.org/namespaces/inkscape"
   xmlns:sodipodi="http://sodipodi.sourceforge.net/DTD/sodipodi-0.dtd"
   xmlns="http://www.w3.org/2000/svg"
   xmlns:svg="http://www.w3.org/2000/svg">
  <defs
     id="defs1" />
  <sodipodi:namedview
     id="namedview1"
     pagecolor="#ffffff"
     bordercolor="#000000"
     borderopacity="0.25"
     inkscape:showpageshadow="2"
     inkscape:pageopacity="0.0"
     inkscape:pagecheckerboard="0"
     inkscape:deskcolor="#d1d1d1"
     inkscape:zoom="0.19143749"
     inkscape:cx="2664.0549"
     inkscape:cy="2666.6667"
     inkscape:window-width="2304"
     inkscape:window-height="1230"
     inkscape:window-x="0"
     inkscape:window-y="0"
     inkscape:window-maximized="1"
     inkscape:current-layer="g1">
    <inkscape:page
       x="0"
       y="0"
       inkscape:label="1"
       id="page1"
       width="5333.3335"
       height="5333.3335"
       margin="0"
       bleed="0" />
  </sodipodi:namedview>
  <g
     id="g1"
     inkscape:groupmode="layer"
     inkscape:label="1">
    <g
       id="group-R5">
      <path
         id="path2"
         d="M 0,0 H 40000 V 40000 H 0 Z"
         style="fill:#81b1ff;fill-opacity:1;fill-rule:nonzero;stroke:none"
         transform="matrix(0.13333333,0,0,-0.13333333,0,5333.3333)" />
      <path
         id="path3"
         d="m 21454.1,3256.3 c -291.1,0 -590.1,2.9 -894.9,9.1 -2977.8,60.2 -5385.9,401.1 -5378.6,761.5 6.6,323.5 1957.1,552.7 4510.2,552.7 291.1,0 590,-3 894.8,-9.1 2977.8,-60.2 5385.9,-401.2 5378.6,-761.5 -6.5,-323.5 -1957.1,-552.7 -4510.1,-552.7"
         style="fill:#677cbe;fill-opacity:1;fill-rule:nonzero;stroke:none"
         transform="matrix(0.13333333,0,0,-0.13333333,0,5333.3333)" />
      <path
         id="path4"
         d="m 25696.9,12879.1 -9882.7,199.8 c -653.7,13.2 -1172.9,553.8 -1159.7,1207.6 l 159.5,7894.1 c 13.3,653.7 553.9,1172.9 1207.6,1159.7 l 9882.7,-199.7 c 653.7,-13.3 1173,-553.9 1159.7,-1207.6 l -159.5,-7894.1 c -13.2,-653.7 -553.9,-1173 -1207.6,-1159.8"
         style="fill:#ffffff;fill-opacity:1;fill-rule:nonzero;stroke:none"
         transform="matrix(0.13333333,0,0,-0.13333333,0,5333.3333)" />
      <path
         id="path5"
         d="m 25723.5,13062.3 c -7.6,0 -15.2,0.1 -22.9,0.2 l -64.8,1.3 c -1.4,121.8 -3.4,229.6 -5.4,319.7 -2.9,127 14.7,251.7 52.1,370.6 105.6,335.9 197,673.5 274,1011.8 328.4,55.3 612,246.2 789.6,514.2 l -25,-1237.5 c -11,-544 -457.8,-980.3 -997.6,-980.3 m -9840.7,198.7 -64.9,1.3 c -267.2,5.4 -516.2,114.5 -701.3,307.2 -185.2,192.8 -284.1,446.1 -278.7,713.3 l 25,1237.4 c 166.7,-274.9 442.3,-477.1 768.2,-545.6 61,-328.9 137.9,-670.9 233.4,-1023.7 32.3,-119.2 44.5,-244 36.6,-370.9 -5.7,-89.9 -12,-197.4 -18.3,-319"
         style="fill:#b9afbe;fill-opacity:1;fill-rule:nonzero;stroke:none"
         transform="matrix(0.13333333,0,0,-0.13333333,0,5333.3333)" />
      <path
         id="path6"
         d="m 25700.6,13062.5 c 550,-12.5 1009.3,428.5 1020.5,980.1 l 159.6,7894.1 c 11.1,551.5 -428.6,1009.3 -980.1,1020.5 l -9882.7,199.7 c -266.2,5.5 -520.5,-93.5 -713.2,-278.7 -192.7,-185.1 -301.9,-434.2 -307.2,-701.3 l -159.6,-7894.1 c -5.4,-267.2 93.5,-520.5 278.7,-713.3 185.1,-192.7 434.1,-301.8 701.3,-307.2 l 9882.7,-199.8 m 20.6,-367.1 c -9.3,0 -18.6,0.1 -28,0.3 l -9882.7,199.8 c -365.1,7.4 -705.6,156.5 -958.5,419.9 -253,263.4 -388.3,609.6 -380.9,974.8 l 159.6,7894.1 c 7.3,365.1 156.5,705.6 419.9,958.5 263.5,253 611.4,388.3 974.7,380.9 L 25908,23324 c 753.8,-15.3 1354.6,-640.9 1339.5,-1394.7 l -159.6,-7894.2 c -15.1,-744.3 -625.5,-1339.7 -1366.7,-1339.7"
         style="fill:#371a45;fill-opacity:1;fill-rule:nonzero;stroke:none"
         transform="matrix(0.13333333,0,0,-0.13333333,0,5333.3333)" />
      <path
         id="path7"
         d="m 32619.5,21472.1 c 310.9,-739.4 235.8,-1241.5 44.2,-1575.6 -267.6,-464.1 -760.8,-603.3 -760.8,-603.3 -1008.7,-1271.9 -2133.2,-2198.7 -2802.1,-2695.4 -368.3,-273.2 -848.6,-347.2 -1281.5,-196.4 -1022,356.9 -1744,744.7 -1744,744.7 -4.9,-184.3 -14.9,-379.5 -30.6,-585 -28.9,-371 -77.8,-775.1 -155.9,-1206.1 -86.8,-484.3 -210.1,-1002.5 -381.3,-1546.1 -43.5,-138.9 -63.5,-283.8 -60.4,-429.8 13.9,-619.5 30.4,-2387.7 -194.2,-3534.6 0,0 682.7,-3257.4 -1271.5,-3678 -1954.7,-420.1 -2896.7,1120.3 -2680.1,3964.3 l -17.2,2636.2 c 0,0 -217,-30.8 -533.3,-24.4 -316.4,6.4 -531.9,45.9 -531.9,45.9 l -123.7,-2633.4 c 101.5,-2850.4 -902,-4351.4 -2838.1,-3852.7 -790.1,203.7 -1121.9,862 -1238.1,1570 l -0.5,0.6 c -168.1,1026 116.8,2155.8 116.8,2155.8 -178.1,1155 -90.2,2921.2 -51.2,3539.6 8.9,145.1 -4.6,290.1 -42.5,430.2 -149.1,551.2 -251.9,1074.5 -319.1,1561.9 -60.5,434.3 -93.1,839.6 -106.5,1211.3 -12.3,317.9 -10.2,611.2 0.7,875.7 v 2.2 c 10.8,262.9 29.9,497.6 52.1,701.3 0,0 -1831.3,345.2 -3447.4,1677.4 -360,296.8 -674.9,646.6 -906.2,1052 -1283.1,2251.8 673.4,4177.7 673.4,4177.7 3167.4,-3931.1 8955,-3685.4 8955,-3685.4 4903.2,-99.1 7100.1,-1529.4 7100.1,-1529.4 l 1192.9,1231.9 c 151.7,1298.6 1189.9,1901.3 1423.5,2021.5 30,15.3 46.7,22.7 46.7,22.7 52.7,103.5 119.1,229.3 195.6,362.6 320,558.8 819.7,1259.9 1241.3,1096.7 0,0 1.1,-0.6 3.2,-1.7 35.9,-21.7 385.2,-250 204.5,-941.5 v -0.6 c -179.4,-515.9 -567.3,-1080 -720.8,-1292.6 -32.3,-44.5 -54.3,-73.8 -61.7,-83.5 8.5,9.2 31.6,35.7 67,74.6 56.9,62.7 145.2,157.2 253.7,266.7 401.2,405.3 1078.9,1014.1 1468.7,939.1 69.7,-13 129.5,-47.8 177.8,-109.3 448,-575.4 -916.6,-2157.8 -916.6,-2157.8"
         style="fill:#ffffff;fill-opacity:1;fill-rule:nonzero;stroke:none"
         transform="matrix(0.13333333,0,0,-0.13333333,0,5333.3333)" />
      <path
         id="path8"
         d="m 23377.8,6281.7 c -431,0 -794.2,127 -1084.2,380.1 -657.9,574.1 -937.7,1768.8 -809.2,3454.9 0.4,5.1 0.5,10.1 0.5,15.2 l -17.5,2636.4 c -0.3,52.9 -23.6,103.1 -63.6,137.6 -33.6,29 -76.2,44.6 -120,44.6 -8.5,0 -17.1,-0.6 -25.6,-1.8 -1.9,-0.3 -170.7,-23.6 -422,-23.6 -26.3,0 -53.6,0.2 -81.7,0.8 -295.6,6 -500.4,42.8 -502.3,43.1 -11,2.1 -22.2,3.1 -33.2,3.1 -41.1,0 -81.4,-13.9 -114,-39.8 -41.5,-32.9 -66.8,-82.2 -69.3,-135.1 l -123.9,-2633.5 c -0.3,-5.1 -0.3,-10.1 -0.1,-15.2 60.2,-1690 -267.7,-2872.4 -948.2,-3419.4 -279.8,-225 -618.9,-337.8 -1012.8,-337.8 -201.8,0 -417.9,29.6 -647.7,88.9 -575.7,148.4 -879.4,580.3 -1027.8,1092.4 296.3,-300.1 833.9,-717 1535.3,-716.9 123.2,0 251.5,12.8 384.4,41.5 1315.1,282.7 1332.9,3207.2 1332.9,3207.2 l 61.7,1681.4 c 9.4,255.5 -136.3,493.3 -370.6,595.6 -371.3,162 -906.6,490.7 -1125.9,1092.5 -63.8,175.1 69.9,347.7 239.5,347.7 26.8,0 54.6,-4.3 82.5,-13.6 477.9,-159.2 1326.7,-384.6 2349.1,-405.2 51.6,-1.1 102.7,-1.6 153.4,-1.6 954.6,0 1750.7,178.8 2210.2,311.5 24.8,7.2 49.2,10.5 72.9,10.5 174.4,0 307.5,-181.5 235.3,-357.3 -243.4,-592.4 -791.5,-899.2 -1169.1,-1046.2 -238.3,-92.7 -393.4,-324.4 -394.3,-580.1 l -6.4,-1682.5 c 0,0 -100.3,-2922.8 1202.3,-3258.5 157.3,-40.6 308.8,-58.4 453.8,-58.4 667,0 1194.1,377.8 1491.6,655.8 -168.9,-505.8 -489.7,-925 -1071.1,-1050 -199.5,-42.9 -387.9,-64.3 -564.9,-64.3"
         style="fill:#b9afbe;fill-opacity:1;fill-rule:nonzero;stroke:none"
         transform="matrix(0.13333333,0,0,-0.13333333,0,5333.3333)" />
      <path
         id="path9"
         d="m 17258.1,8645.3 c -313.3,0 -679.7,90.7 -1092.2,344.8 22,304.8 63.4,570.9 96.7,751 170,-281.2 545.8,-667.2 1327.5,-667.3 255.2,0 553.7,41.2 902.5,140.6 0,0 -450.3,-569 -1234.5,-569.1"
         style="fill:#b9afbe;fill-opacity:1;fill-rule:nonzero;stroke:none"
         transform="matrix(0.13333333,0,0,-0.13333333,0,5333.3333)" />
      <path
         id="path10"
         d="m 24141.1,8506.2 c -825.7,0 -1276.5,619.8 -1276.5,619.8 387,-127.4 713.4,-178.8 988.5,-178.8 719.7,0 1087,352 1260.9,615 26,-181.2 56.7,-448.9 66.3,-754.2 -393,-220.8 -740.6,-301.8 -1039.2,-301.8"
         style="fill:#b9afbe;fill-opacity:1;fill-rule:nonzero;stroke:none"
         transform="matrix(0.13333333,0,0,-0.13333333,0,5333.3333)" />
      <path
         id="path11"
         d="m 23733.7,13814.6 c -4.8,0 -9.6,0 -14.4,0.1 l -5891.3,119.1 c -385.1,7.8 -690.8,326.6 -683,711.7 l 9.6,476.8 c 2.2,-377 304.5,-685.7 683.6,-693.3 l 5890.9,-119.1 v 0 c 4.8,-0.1 9.6,-0.1 14.4,-0.1 v 0 0 0 c 0.1,0 0.3,0 0.4,0 372.5,0.2 679.1,293.5 696.3,665.1 l -9.7,-476.6 c -7.7,-380.3 -318.2,-683.7 -696.8,-683.7 m 709.4,1293.9 6.3,310.6 c 581.9,74.7 1025.1,155.4 1300.8,211.6 -16.9,-105.8 -35.2,-211.6 -55,-317.3 -275.6,-56.3 -700.6,-133.2 -1252.1,-204.9 m -7286,147.2 c -548.3,94 -969.8,188.1 -1243,255.4 -15.7,108.1 -29.7,214.6 -42.1,319.3 273.1,-67.3 712.8,-165.9 1291.4,-264.1 l -6.3,-310.6"
         style="fill:#b9afbe;fill-opacity:1;fill-rule:nonzero;stroke:none"
         transform="matrix(0.13333333,0,0,-0.13333333,0,5333.3333)" />
      <path
         id="path12"
         d="m 17015.7,17294.6 c -378,68.9 -688.3,136.5 -923.2,192.5 -66.2,15.8 -132.5,23.5 -197.7,23.5 -33.6,0 -67,-2.1 -99.9,-6.1 8.8,309 29.9,585.9 56.4,826.6 10.5,95.2 -54.2,182.4 -148.3,200.3 -14.7,2.8 -1216.9,238.4 -2507.7,1029 54.3,207.5 186.8,654.5 433.8,1171.4 -18.9,-160.7 -15.3,-317.4 27.4,-450.6 111.6,-349.5 721.2,-751.1 1373,-751.1 200,0 403.9,37.8 598.8,126.4 55.7,25.4 113.6,37.3 170.2,37.3 183.1,0 352.5,-124.5 390,-319.1 126.2,-654.3 382.7,-1650.9 827.2,-2080.1"
         style="fill:#b9afbe;fill-opacity:1;fill-rule:nonzero;stroke:none"
         transform="matrix(0.13333333,0,0,-0.13333333,0,5333.3333)" />
      <path
         id="path13"
         d="m 12870.8,19770.2 c -128.6,87.8 -257.3,181.4 -384.8,280.9 l 770.4,760.5 c -198.1,-428.8 -319.4,-804.9 -385.6,-1041.4"
         style="fill:#b9afbe;fill-opacity:1;fill-rule:nonzero;stroke:none"
         transform="matrix(0.13333333,0,0,-0.13333333,0,5333.3333)" />
      <path
         id="path14"
         d="m 28274.6,16507.6 c -132.6,0 -265.9,22 -394.6,66.9 -995.1,347.3 -1711,729.5 -1718.1,733.3 -27.2,14.6 -57.1,21.9 -86.9,21.9 -31.8,0 -63.6,-8.3 -92,-24.8 -8.9,-5.2 -17.2,-11 -24.9,-17.4 -63.5,15.6 -129.3,23.6 -196.3,23.6 -54.4,0 -109.5,-5.2 -164.8,-16.1 h -0.1 c -226.5,-44.4 -522.2,-96.6 -880.4,-147.9 332.9,332.5 878.9,1032 1065.3,2172.8 18.2,111.4 111.7,173.6 205.6,173.6 70,0 140.1,-34.6 179.4,-109.1 171,-325.3 359.2,-776.7 428.5,-1282.1 37.9,-276.9 212.9,-516.9 462.1,-643.4 226.3,-114.9 535.3,-253.7 913.6,-380.6 107.3,-36 218.3,-53.7 328.6,-53.7 214.9,0 427.3,67.1 605.5,196.8 566.3,412.3 1589.2,1208.1 2321.6,2068.7 161.9,190.2 168.9,467.2 19.7,667.6 -123.1,165.4 -235,403.4 -215.7,710.7 6.6,104.3 -50.4,201.7 -147,241.6 -274.3,113 -764.8,392.9 -626,912.6 0,0 377.1,-513.5 1224.7,-592.8 0,0 -30.3,-75.4 -48.9,-190.5 -24.7,-69.1 -39.1,-142.3 -39,-219 0.2,-151.5 56.4,-317.1 199.5,-493.2 v 0 c 6.5,-8.1 13.2,-16.1 19.9,-24 0.1,-0.1 0.2,-0.2 0.3,-0.3 1.3,-1.6 2.8,-3.3 4.1,-4.9 0.1,-0.1 0.2,-0.2 0.2,-0.2 0.3,-0.3 0.5,-0.6 0.7,-0.8 0.3,-0.4 0.5,-0.6 0.8,-1 0,0 0.2,-0.1 0.2,-0.2 94.8,-110 197.5,-194.6 303.2,-256.6 0.1,0 0.1,0 0.2,-0.1 0.5,-0.3 0.9,-0.5 1.4,-0.8 0.2,-0.1 0.5,-0.3 0.8,-0.4 0.2,-0.2 0.5,-0.4 0.8,-0.5 0.4,-0.3 0.8,-0.5 1.3,-0.8 0.1,-0.1 0.2,-0.1 0.3,-0.1 160.8,-93.2 328.7,-134.5 486.8,-134.5 11.4,0 22.7,0.2 34,0.6 -232.3,-323.5 -592.3,-432 -595.8,-433 -37,-10.5 -69.9,-32.4 -93.8,-62.5 -969,-1221.2 -2040.1,-2121.7 -2768,-2662.1 -210.6,-156.2 -462.3,-237.3 -716.8,-237.3"
         style="fill:#b9afbe;fill-opacity:1;fill-rule:nonzero;stroke:none"
         transform="matrix(0.13333333,0,0,-0.13333333,0,5333.3333)" />
      <path
         id="path15"
         d="m 32460.6,21564 c -24.1,16.6 -47.5,32 -70,46.1 -70.3,44.5 -150.2,66.6 -230.1,66.6 -9.1,0 -18.2,-0.3 -27.3,-0.9 -69.1,16.2 -143.8,28.6 -222.7,34.7 0,0 -24.3,302.3 -184.1,649.1 86.2,97.9 187.2,206.3 296.5,316.6 45.2,-48.5 94.2,-108.6 138.9,-179.3 59,-93.2 157.6,-142.6 256.6,-142.6 77.2,0 154.6,30.1 213.4,93.1 278.7,298.2 645.6,746.1 718.7,1103.5 15.5,-7.3 28.5,-18.3 40.7,-33.9 242.4,-310.9 -400.1,-1332.5 -910.6,-1925 -7.6,-8.8 -14.3,-18.2 -20,-28 m -938,1140.7 c -152.7,205 -364.6,395.9 -658.3,520.5 2.3,3.7 4.3,7.4 6.3,11.3 65.7,129.7 131.8,252.2 197.6,366.5 37.3,-18.8 77,-39.7 117.5,-62.1 77.3,-42.7 161.5,-63.2 244.7,-63.2 163.9,0 323.7,79.5 419.1,225.2 150.5,230.1 299.6,537.1 309.4,860.5 43.8,-33.1 71.9,-76.2 87.9,-133.1 107.2,-382.1 -352.7,-1205.8 -724.2,-1725.6"
         style="fill:#b9afbe;fill-opacity:1;fill-rule:nonzero;stroke:none"
         transform="matrix(0.13333333,0,0,-0.13333333,0,5333.3333)" />
      <path
         id="path16"
         d="m 15863.2,19234.8 c 4.2,-76.6 7.6,-154.3 8.4,-230 1.6,-76.2 1.4,-151.7 1.3,-226.9 -0.9,-75.1 -1.8,-150 -5.1,-224.5 -3,-74.5 -6.9,-148.7 -16.5,-222.3 l -0.3,-2.2 c -13.1,-100.5 -105.2,-171.3 -205.6,-158.2 -98.7,12.9 -168.7,102.2 -158.8,200.5 15.7,153.7 54,304.9 101,453.5 49.3,148.5 105.8,294.4 190.1,433.5 13.2,21.8 41.5,28.7 63.3,15.5 13.4,-8.1 21.2,-22 22.1,-36.5 l 0.1,-2.4"
         style="fill:#371a45;fill-opacity:1;fill-rule:nonzero;stroke:none"
         transform="matrix(0.13333333,0,0,-0.13333333,0,5333.3333)" />
      <path
         id="path17"
         d="m 25976.6,19050.5 c 55.4,-154 94.4,-309.8 129.9,-467.5 34.7,-157.6 61.1,-316.7 85.5,-476.4 19.8,-159.9 39.7,-320.4 50.1,-481.4 6.2,-80.6 9,-161.1 13.2,-241.8 1.8,-80.6 3.5,-161.3 3.1,-242 -0.5,-101.3 -83,-183.1 -184.3,-182.5 -101.4,0.5 -183.1,83 -182.6,184.3 0,2.1 0,4.2 0.1,6.3 l 0.1,1.6 20.1,468.3 c 5.8,156.3 11.4,313 12.1,469.9 2.9,156.9 1.7,314.1 -1.4,471.6 -1.2,78.8 -3.2,157.7 -7.2,236.5 -2.1,78.8 -7.1,158.3 -12.1,236.1 l -0.1,1.7 c -1.4,20.9 14.5,38.9 35.4,40.3 17.2,1.1 32.5,-9.6 38.1,-25"
         style="fill:#371a45;fill-opacity:1;fill-rule:nonzero;stroke:none"
         transform="matrix(0.13333333,0,0,-0.13333333,0,5333.3333)" />
      <path
         id="path18"
         d="m 20193.3,12607 c -130,22.1 -251.3,50.6 -374.8,84.8 -122.9,33.2 -244.6,70.8 -364.6,115.3 -119.8,45.3 -239.1,91.9 -353.5,153.3 -114.1,60.5 -225.3,131.3 -320.6,222 -18,17.2 -18.7,45.7 -1.5,63.7 12.6,13.2 31.3,17.1 47.5,11.4 l 1.4,-0.5 c 115.6,-40.5 231.9,-71.1 348.5,-100.7 116.7,-29.2 235.1,-54.4 353.8,-76.8 118.7,-22.8 238.6,-41.7 358.3,-60.3 119.2,-16.8 241.6,-34.5 356.9,-49 l 2.3,-0.2 c 100.5,-12.7 171.8,-104.4 159.2,-205 -12.6,-100.5 -104.4,-171.8 -204.9,-159.2 -2.5,0.3 -5.6,0.8 -8,1.2"
         style="fill:#371a45;fill-opacity:1;fill-rule:nonzero;stroke:none"
         transform="matrix(0.13333333,0,0,-0.13333333,0,5333.3333)" />
      <path
         id="path19"
         d="m 21265.7,12949.6 c 115.7,9.8 238.8,22.5 358.6,34.5 120.3,13.7 240.9,27.8 360.4,45.7 119.5,17.7 238.9,38 356.6,62.5 117.7,24.9 235.2,50.7 352.3,86.6 l 1.4,0.4 c 23.8,7.3 49,-6.1 56.2,-29.9 5.4,-17.4 -0.4,-35.7 -13.3,-47 -98.8,-86.8 -212.8,-153 -329.3,-208.9 -116.7,-56.7 -237.8,-98.5 -359.3,-138.8 -121.8,-39.6 -244.9,-72.4 -369,-100.5 -124.8,-29.2 -247.1,-52.8 -378,-69.6 -100.5,-13 -192.5,58 -205.4,158.5 -13,100.5 58,192.5 158.5,205.5 2.4,0.3 4.9,0.5 7.3,0.8 l 3,0.2"
         style="fill:#371a45;fill-opacity:1;fill-rule:nonzero;stroke:none"
         transform="matrix(0.13333333,0,0,-0.13333333,0,5333.3333)" />
      <path
         id="path20"
         d="m 17890.8,10335.1 c -196.9,0 -388.1,22.4 -573.3,67.2 -993.4,240.5 -1431.5,1040.8 -1449.7,1074.8 -47.7,89.3 -14.1,200.4 75.3,248.2 89.1,47.7 200,14.3 248,-74.7 3.7,-6.9 385.4,-694.2 1218.6,-893.1 753,-179.9 1640.9,78.4 2638.4,767.7 83.3,57.4 197.7,36.7 255.2,-46.7 57.6,-83.4 36.7,-197.6 -46.6,-255.2 -855.2,-590.9 -1648.3,-888.2 -2365.9,-888.2"
         style="fill:#371a45;fill-opacity:1;fill-rule:nonzero;stroke:none"
         transform="matrix(0.13333333,0,0,-0.13333333,0,5333.3333)" />
      <path
         id="path21"
         d="m 16316.4,10058.3 c 1.6,-2.8 5.8,-17.1 9.2,-27.1 3.5,-11.1 7.7,-22.4 11.9,-33.8 8.6,-22.9 18.2,-45.8 27.9,-68.7 20,-45.7 44.2,-89.6 69,-132.7 51.8,-85 112.1,-163.8 183.1,-231.4 141,-135.9 319.8,-230.9 521,-284.6 201.7,-51.3 421.2,-69.1 644.8,-57.2 224.6,5.9 454.1,23.2 702.5,13.9 13.5,-0.4 24.2,-11.7 23.9,-25.2 -0.3,-7.9 -4.4,-15 -10.3,-19.4 -203.8,-145.6 -436.3,-235.6 -681.3,-283.1 -61.4,-11 -123.9,-18.4 -186.4,-25.2 -63.2,-2.9 -126,-10.6 -190.3,-9.2 -127.7,-4 -258.3,8.7 -387.9,33.5 -259.1,49.2 -519.1,171.7 -717.8,365.7 -49.7,48 -95.1,100.2 -137.1,154.7 -40.7,55.6 -77.9,113.4 -110,173.7 -32.5,60.2 -59.5,122.9 -82.3,187.3 -11.3,32.3 -21.5,65 -29.9,98.8 -4.2,16.9 -8.3,33.8 -11.9,51.4 -4,18.6 -6.3,33.1 -10.1,59.4 -14.2,97.4 53.2,187.9 150.6,202.1 74.9,10.9 145.6,-26.4 180.8,-88.5 l 30.6,-54.4"
         style="fill:#371a45;fill-opacity:1;fill-rule:nonzero;stroke:none"
         transform="matrix(0.13333333,0,0,-0.13333333,0,5333.3333)" />
      <path
         id="path22"
         d="m 21265.7,12949.6 c 115.7,9.8 238.8,22.5 358.6,34.5 120.3,13.7 240.9,27.8 360.4,45.7 119.5,17.7 238.9,38 356.6,62.5 117.7,24.9 235.2,50.7 352.3,86.6 l 1.4,0.4 c 23.8,7.3 49,-6.1 56.2,-29.9 5.4,-17.4 -0.4,-35.7 -13.3,-47 -98.8,-86.8 -212.8,-153 -329.3,-208.9 -116.7,-56.7 -237.8,-98.5 -359.3,-138.8 -121.8,-39.6 -244.9,-72.4 -369,-100.5 -124.8,-29.2 -247.1,-52.8 -378,-69.6 -100.5,-13 -192.5,58 -205.4,158.5 -13,100.5 58,192.5 158.5,205.5 2.4,0.3 4.9,0.5 7.3,0.8 l 3,0.2"
         style="fill:#371a45;fill-opacity:1;fill-rule:nonzero;stroke:none"
         transform="matrix(0.13333333,0,0,-0.13333333,0,5333.3333)" />
      <path
         id="path23"
         d="m 23614.6,10219.4 c -745.2,0 -1560.7,330 -2431.5,985.2 -81,60.9 -97.2,175.9 -36.3,256.8 60.9,81 175.9,97.2 256.9,36.3 968.8,-728.9 1845.2,-1022.8 2605.3,-873.6 840.5,165.1 1249.6,836.4 1253.6,843.1 51.8,86.9 164.1,115.7 251.2,64.1 87,-51.5 116,-163.4 64.8,-250.5 -19.6,-33.2 -489.6,-815.2 -1491.8,-1015.3 -154,-30.7 -311.6,-46.1 -472.2,-46.1"
         style="fill:#371a45;fill-opacity:1;fill-rule:nonzero;stroke:none"
         transform="matrix(0.13333333,0,0,-0.13333333,0,5333.3333)" />
      <path
         id="path24"
         d="m 25432.4,9807.5 c -4.9,-26.1 -7.8,-40.5 -12.5,-58.9 -4.3,-17.4 -9.1,-34.2 -14,-50.9 -9.7,-33.4 -21.2,-65.7 -33.8,-97.5 -25.4,-63.4 -54.9,-125 -89.8,-183.8 -34.6,-59 -74.1,-115.3 -116.9,-169.1 -44.2,-52.8 -91.7,-103.1 -143.3,-149.1 -206.3,-185.7 -471.1,-297.6 -732,-336.4 -130.5,-19.5 -261.5,-26.9 -388.9,-17.8 -64.3,1.3 -126.7,11.4 -189.8,16.9 -62.2,9.3 -124.3,19.2 -185.2,32.7 -242.9,57.4 -471.6,156.8 -669.3,310.5 -10.7,8.3 -12.7,23.7 -4.3,34.4 4.8,6.2 12.4,9.5 19.7,9.5 248.6,-0.7 477.2,-27.2 701.3,-42.2 222.9,-21 443,-12.1 646.6,31.1 203.2,45.4 385.7,133.2 532.1,263.3 73.6,64.6 137.1,141 192.3,223.8 26.5,42 52.5,84.9 74.3,129.8 10.6,22.5 21.1,45 30.7,67.5 4.6,11.2 9.2,22.4 13.2,33.3 3.8,9.8 8.6,24 10.2,26.7 l 32.7,52.8 c 51.7,83.7 161.5,109.6 245.3,57.9 64.3,-39.8 94.4,-114.3 81.4,-184.5"
         style="fill:#371a45;fill-opacity:1;fill-rule:nonzero;stroke:none"
         transform="matrix(0.13333333,0,0,-0.13333333,0,5333.3333)" />
      <path
         id="path25"
         d="m 28474.4,16155.7 c -8.6,0 -17.2,0.6 -25.8,1.9 -100.4,14.1 -170.2,106.8 -156.1,207.2 346,2459.5 -391.7,3562.7 -399.2,3573.6 -57.3,83.1 -37,197.3 45.9,255 82.8,57.7 196.4,38 254.6,-44.5 34.1,-48.4 830.5,-1215.7 462,-3835.3 -12.9,-91.6 -91.5,-157.9 -181.4,-157.9"
         style="fill:#371a45;fill-opacity:1;fill-rule:nonzero;stroke:none"
         transform="matrix(0.13333333,0,0,-0.13333333,0,5333.3333)" />
      <path
         id="path26"
         d="m 12985.8,19291 c -12.3,0 -24.8,1.3 -37.3,3.9 -99.1,20.5 -162.9,117.4 -142.5,216.6 18.3,88.9 467.1,2190.4 2072.9,3401.2 80.9,61.1 195.9,44.9 256.9,-36 61,-80.9 44.8,-195.9 -36,-256.9 -1493.3,-1125.9 -1930.3,-3162.1 -1934.5,-3182.5 -18,-86.6 -94.4,-146.3 -179.5,-146.3"
         style="fill:#371a45;fill-opacity:1;fill-rule:nonzero;stroke:none"
         transform="matrix(0.13333333,0,0,-0.13333333,0,5333.3333)" />
      <path
         id="path27"
         d="m 21283.8,12950.5 c 43.8,0 86.4,-15.6 120,-44.6 40,-34.5 63.3,-84.7 63.6,-137.6 l 17.5,-2636.4 c 0,-5.1 -0.1,-10.1 -0.5,-15.2 -128.5,-1686.1 151.3,-2880.8 809.2,-3454.9 409,-357 963.7,-463.3 1649.1,-315.8 1753.3,377.2 1136.9,3430.1 1130.5,3460.8 -5,24 -5.2,48.8 -0.5,72.9 218.2,1113.6 206.2,2815.5 190.9,3495.5 -3.7,167.2 19.5,331.7 68.9,489 342.3,1088.4 530.4,2194.2 559.2,3286.9 1.7,63.6 36.2,121.8 91.3,153.8 55,32 122.7,33.1 178.9,2.9 7.1,-3.8 723,-386 1718.1,-733.3 375.5,-131 791,-67.3 1111.4,170.4 727.9,540.4 1799,1440.9 2768,2662.1 23.9,30.1 56.8,52 93.8,62.5 4,1.2 475.9,143.4 687.8,588.4 167.1,351 136.6,802.9 -90.6,1343.3 -27,64.2 -15.3,138.1 30.2,190.8 510.5,592.5 1153,1614.1 910.6,1925 -24.2,31 -52,44.2 -95.9,45.3 -2.4,0.1 -4.9,0.1 -7.4,0.1 -375.2,0 -1168.6,-751 -1583.5,-1227.9 -65.1,-74.8 -177.7,-84.4 -254.4,-21.7 -76.7,62.6 -89.8,174.9 -29.6,253.6 381.8,498.7 943.8,1445.7 826.4,1863.9 -24.3,86.5 -76.5,141.1 -169.4,177.1 -255.9,99.4 -741.2,-451.5 -1206.8,-1370.9 -19,-37.6 -50.4,-67.5 -89,-84.7 -48.8,-22 -1206.6,-558.7 -1363.1,-1897.8 -4.6,-40 -22.3,-77.4 -50.3,-106.3 l -1192.6,-1232 c -61,-63.2 -158.3,-74.1 -231.9,-26.2 -21.4,13.9 -2220.6,1402.1 -6998.3,1499.6 -117.4,-4.4 -1527.9,-47.8 -3333.3,373.4 -1663.3,388.1 -3969.1,1260.4 -5629.8,3215.1 -163,-193.4 -441.2,-563.4 -648,-1047.8 -406.9,-952.9 -359.6,-1881 140.5,-2758.5 206.8,-363 497.2,-699.9 863,-1001.4 1558.5,-1284.5 3347.3,-1635.1 3365.2,-1638.5 94.1,-17.9 158.8,-105.1 148.3,-200.3 -104.5,-949.7 -125.6,-2463.9 367.3,-4284.3 42.8,-158 59.1,-322.8 48.6,-489.9 -33.4,-529.6 -128.3,-2347.1 49.5,-3500.3 3.7,-24.1 2.5,-48.9 -3.4,-72.7 -7.7,-30.5 -746.9,-3056 989.7,-3503.7 678.6,-175 1237.4,-91.3 1660.5,248.9 680.5,547 1008.4,1729.4 948.2,3419.4 -0.2,5.1 -0.2,10.1 0.1,15.2 l 123.9,2633.5 c 2.5,52.9 27.8,102.2 69.3,135.1 41.5,32.9 95.3,46.4 147.2,36.7 1.9,-0.3 206.7,-37.1 502.3,-43.1 295.7,-6 501.6,22.5 503.7,22.8 8.5,1.2 17.1,1.8 25.6,1.8 m 2089,-7036.4 c -518.5,0 -960.8,157.5 -1320.4,471.3 -747.5,652.2 -1070.6,1949.4 -934.4,3751.6 l -16.1,2429.2 c -93.8,-5.8 -215.1,-10 -354.8,-7.1 -139.8,2.8 -260.7,11.9 -354.3,21.4 L 20278.6,10154 c 63.2,-1806.2 -312,-3089.3 -1085.3,-3710.9 -518.3,-416.6 -1184.9,-523.6 -1981.9,-318.2 -877.6,226.3 -1370.1,993.9 -1424.3,2219.8 -35,790.8 121.5,1520.4 161.6,1692 -171.4,1156.8 -90.7,2859.7 -47.6,3543.3 7.9,126.9 -4.3,251.7 -36.6,370.9 -480.5,1774.5 -486.7,3269.3 -394.6,4256.2 -493.8,118.4 -1995,550.2 -3365.4,1679.7 -400.3,330 -719.4,701 -948.4,1102.8 -554.3,972.7 -607.6,2043.5 -153.9,3096.6 338.9,786.9 836.4,1281.9 857.4,1302.6 37,36.3 88,55.2 139.3,52.4 51.7,-3 99.8,-27.7 132.3,-68.1 1603.4,-1990 3910.9,-2867.6 5564.3,-3253.3 1797.6,-419.4 3226,-364.5 3240.3,-363.9 3.9,0.1 7.7,0.2 11.5,0.1 4296.1,-86.8 6521.1,-1174.3 7065.5,-1481 l 1049.4,1084.1 c 186.2,1339.2 1239.9,1960.2 1509.3,2098.3 423.2,822.2 1041.4,1723.5 1638.6,1492.1 199.7,-77.5 334.6,-222.8 389.9,-420.2 78.5,-279.9 -17.1,-644.8 -171.2,-996.6 301.1,228.2 617.6,403.9 876.3,396.4 153.7,-4.1 283.5,-68.6 375.4,-186.5 475,-609.3 -503.5,-1887.7 -849.6,-2304.4 230.5,-598.9 243.7,-1117.6 38.8,-1543.2 -236.8,-492.2 -692.6,-698.2 -856.7,-758.5 -984.8,-1230.9 -2065.8,-2139 -2802.9,-2686.1 -418.1,-310.4 -960.6,-393.5 -1451,-222.3 -672,234.6 -1211.6,480.1 -1511.8,625.8 -52.6,-1032.8 -242.3,-2074.1 -564.8,-3099.8 -37.4,-118.9 -55,-243.6 -52.1,-370.6 15.4,-684.9 27.2,-2389.8 -190.8,-3538.6 33.1,-173.1 160.1,-908.4 93.2,-1697.2 -103.8,-1222.7 -626.9,-1969.8 -1513,-2160.4 -227.1,-48.8 -442.9,-73.2 -647,-73.2"
         style="fill:#371a45;fill-opacity:1;fill-rule:nonzero;stroke:none"
         transform="matrix(0.13333333,0,0,-0.13333333,0,5333.3333)" />
      <path
         id="path28"
         d="m 31909.4,21596.8 c 143.1,101.1 333.2,106.9 481.2,13.3 240.7,-152.1 592.9,-441.1 736.1,-891 226.9,-713.5 -865.7,-1213.3 -1532.7,-392 -470.9,579.8 -1.5,1045.8 315.4,1269.7"
         style="fill:#ffffff;fill-opacity:1;fill-rule:nonzero;stroke:none"
         transform="matrix(0.13333333,0,0,-0.13333333,0,5333.3333)" />
      <path
         id="path29"
         d="m 31928.2,20036.4 c -0.1,0 -0.2,0 -0.3,0.1 0.1,0 0.2,-0.1 0.3,-0.1 m -1.6,0.9 c -0.3,0.1 -0.6,0.3 -0.8,0.5 0.2,-0.2 0.5,-0.4 0.8,-0.5 m -1.6,0.9 c -0.5,0.3 -0.9,0.5 -1.4,0.8 0.5,-0.3 0.9,-0.5 1.4,-0.8 m -1.6,0.9 c -105.7,62 -208.4,146.6 -303.2,256.6 94.8,-110 197.4,-194.6 303.2,-256.6 m -303.4,256.8 c -0.3,0.4 -0.5,0.6 -0.8,1 0.3,-0.4 0.5,-0.6 0.8,-1 m -1.5,1.8 c 0,0 -0.1,0.1 -0.2,0.2 0.1,-0.1 0.2,-0.2 0.2,-0.2 m -4.3,5.1 c -0.1,0.1 -0.2,0.2 -0.3,0.3 0.1,-0.1 0.2,-0.2 0.3,-0.3"
         style="fill:#8c7b94;fill-opacity:1;fill-rule:nonzero;stroke:none"
         transform="matrix(0.13333333,0,0,-0.13333333,0,5333.3333)" />
      <path
         id="path30"
         d="m 32414.5,19902 c -158,0 -325.7,41.3 -486.3,134.4 -0.1,0 -0.2,0.1 -0.3,0.1 -0.4,0.3 -0.9,0.5 -1.3,0.8 -0.3,0.1 -0.6,0.3 -0.8,0.5 -0.3,0.1 -0.5,0.3 -0.8,0.4 -0.5,0.3 -0.9,0.5 -1.4,0.8 l -0.2,0.1 c -105.8,62 -208.4,146.6 -303.2,256.6 -0.1,0.1 -0.1,0.2 -0.2,0.2 -0.3,0.4 -0.5,0.6 -0.8,1 -0.2,0.2 -0.4,0.5 -0.7,0.8 0,0 -0.1,0.1 -0.2,0.2 -1.4,1.6 -2.7,3.2 -4.1,4.9 -0.1,0.1 -0.2,0.2 -0.3,0.3 -6.7,7.9 -13.4,15.9 -19.9,24 v 0 c -143.1,176.1 -199.3,341.7 -199.5,493.2 -0.3,347.3 294.3,620.6 514.9,776.5 32.1,22.7 66.8,39.9 102.6,52.9 -185.9,-245 -274.2,-571.9 29.9,-946.4 244.9,-301.6 547,-424.7 820.3,-424.7 87.6,0 172.3,12.7 251.1,36.2 -103.7,-246.5 -381.7,-412.8 -698.8,-412.8"
         style="fill:#b9afbe;fill-opacity:1;fill-rule:nonzero;stroke:none"
         transform="matrix(0.13333333,0,0,-0.13333333,0,5333.3333)" />
      <path
         id="path31"
         d="m 31909.4,21596.8 h 0.5 z m 251,-103.4 c -50.7,0 -101.4,-15.5 -145.1,-46.4 v 0 c -147,-103.9 -398.7,-315.6 -433.3,-566.8 -19.5,-142.4 30.9,-285.5 154.3,-437.4 318.9,-392.7 729.5,-423.9 994.9,-280.5 76,41.1 316.9,198.7 220.7,501.2 -123.4,387.9 -426.7,644.6 -659.3,791.6 -40.5,25.6 -86.3,38.3 -132.2,38.3 z m 254.4,-1773.6 c -320.5,0 -676.7,138.8 -963.2,491.7 -188.4,231.8 -266.7,473.7 -233,718.8 50.8,368.9 346.1,647.6 585,816.3 204.9,144.9 473.8,152.1 685.1,18.6 284.2,-179.6 655.9,-497.2 812.8,-990.5 119,-374 -36.5,-741.1 -396.1,-935.2 -139.3,-75.3 -309.3,-119.7 -490.6,-119.7"
         style="fill:#371a45;fill-opacity:1;fill-rule:nonzero;stroke:none"
         transform="matrix(0.13333333,0,0,-0.13333333,0,5333.3333)" />
      <path
         id="path32"
         d="m 31898.4,22123.7 c -171.5,529.9 -544.4,765.5 -832.1,870.2 -270.5,98.4 -575.8,-19.3 -705.6,-276.3 -188.6,-373.1 -165.5,-833.6 -165.5,-833.6 1118.3,-1128.4 2003,-686.3 1703.2,239.7"
         style="fill:#ffffff;fill-opacity:1;fill-rule:nonzero;stroke:none"
         transform="matrix(0.13333333,0,0,-0.13333333,0,5333.3333)" />
      <path
         id="path33"
         d="m 30760.1,23495 c 32.4,-9.2 54.1,-16.3 79.5,-25 24.9,-8.1 48.1,-17.5 72.1,-26.4 47.1,-18.8 94,-37.7 138.8,-60.5 90.9,-43.3 177.8,-94.4 262.3,-149.5 166.8,-113.5 321.4,-249.6 450.7,-409.5 131.6,-158 234,-341.3 306.6,-533.4 74.7,-189.1 129.5,-408.6 94.9,-646.6 -17.3,-117.9 -58.8,-242.1 -138.4,-349.5 -77.9,-107.4 -191.3,-192.7 -312.2,-237.4 -121.3,-44.4 -244.4,-54 -358.2,-45.7 -114.5,8.1 -220.6,35.2 -319.8,70.7 -199.5,70.2 -373.5,175.9 -521,306.6 -146.7,131.1 -269.4,283.7 -354,461.7 -11.9,25.1 -1.2,55.2 23.9,67.1 14.1,6.7 29.7,6.3 42.8,0.2 l 0.8,-0.4 c 174.8,-82 327.4,-174.8 480.6,-256.2 76.4,-40.1 151.1,-80.9 225.9,-115.9 37.2,-18.9 74.8,-33.9 111.9,-50.7 37.5,-13.5 74.8,-29.7 112.3,-39.3 148.8,-47.3 300.6,-51.3 402,-6.8 50.1,22.6 88.2,53.3 117.3,95.2 29.5,41.3 48.2,96.8 55.7,160.2 14.6,128.2 -13.5,280 -74.8,430 -14,37.9 -27.5,76 -47,111.3 -18.6,35.7 -33.9,73.2 -54.7,107.7 l -61.8,103.9 -71,98.3 c -100.1,127.2 -217.2,243.5 -349.6,343.1 -67,48.4 -135,97 -207.7,137.5 -35.8,21.2 -72.4,40.7 -109,59.7 -18.4,8.9 -36.9,18.7 -55,26.5 -17.4,8.2 -38.8,17 -50.1,21.9 l -16.4,7.1 c -92.8,40.1 -135.5,147.8 -95.4,240.6 36.9,85.3 131,128.3 218,103.5"
         style="fill:#371a45;fill-opacity:1;fill-rule:nonzero;stroke:none"
         transform="matrix(0.13333333,0,0,-0.13333333,0,5333.3333)" />
      <path
         id="path34"
         d="m 25632.2,17115 c -783.2,-153.5 -2506.9,-422.2 -4800.6,-375.8 -2293.7,46.3 -4005.2,384.4 -4781.6,569.5 -594,141.5 -1038.9,-549.1 -656.3,-1025 6.2,-7.8 12.7,-15.7 19.3,-23.5 84.7,-101.3 199.4,-173.2 327.1,-206.9 563.5,-149 2430,-587.2 5064.7,-640.5 2634.7,-53.2 4517.3,309.2 5086.4,435.3 129,28.6 246.4,95.7 335.2,193.5 6.9,7.6 13.6,15.2 20.2,22.7 401.5,460.1 -15.2,1168.1 -614.4,1050.7"
         style="fill:#ffffff;fill-opacity:1;fill-rule:nonzero;stroke:none"
         transform="matrix(0.13333333,0,0,-0.13333333,0,5333.3333)" />
      <path
         id="path35"
         d="m 15896.3,17293.9 c -206.8,0 -399.4,-104.4 -515.3,-287.7 -112,-177 -160.6,-454.4 38.3,-701.9 l 18.9,-23 c 80.4,-95.9 187.6,-163.8 310.3,-196.2 516,-136.4 2405.8,-585.7 5056.9,-639.3 2651.1,-54 4557.5,319 5078.7,434.5 123.9,27.4 233.8,90.8 317.9,183.5 6.7,7.4 13.3,14.8 19.8,22.2 208.8,239.3 171.4,518.4 66.7,699.8 -133.7,231.5 -388.9,348.1 -649.9,296.8 -818.2,-160.2 -2530.9,-422 -4807.7,-376.4 -2277.3,46 -3977.7,377.2 -4788.5,570.4 -48.9,11.7 -97.9,17.3 -146.1,17.3 m 5426.8,-1919.3 c -169.7,0 -342.5,1.7 -519,5.3 -2658.5,53.7 -4554.7,504.6 -5072.5,641.5 -135.8,35.9 -254.8,111.2 -343.9,217.6 -6.7,8 -13.3,16 -19.7,23.9 -181.9,226.3 -198.7,531.9 -42.7,778.5 158.1,250.2 445.7,367.6 732.3,299.3 808.3,-192.6 2503.4,-522.7 4774.6,-568.6 2270.4,-46.1 3978.2,215.4 4793.7,375.2 289.4,56.6 571.7,-72.3 719.7,-328.6 145.8,-252.8 116.7,-557.4 -74.1,-776.1 -6.8,-7.7 -13.6,-15.4 -20.7,-23.2 -93.3,-102.7 -215.3,-173.1 -352.5,-203.5 -488.2,-108.2 -2188.4,-441.2 -4575.2,-441.3"
         style="fill:#371a45;fill-opacity:1;fill-rule:nonzero;stroke:none"
         transform="matrix(0.13333333,0,0,-0.13333333,0,5333.3333)" />
      <path
         id="path36"
         d="m 24456.9,15789.7 8.4,419.1 c 696.3,90.4 1191.1,189.7 1438.1,244.5 111.9,24.8 215,78.6 298.4,156.2 38.4,-127.4 28.3,-285.1 -93.3,-424.5 l -17.8,-20 c -63.2,-69.5 -145.8,-117.2 -239.2,-137.8 -224,-49.7 -705.9,-147.2 -1394.6,-237.5 m -7286,147.3 c -684.4,118 -1162.2,235 -1384,293.6 -92.4,24.4 -173.1,75.4 -233.2,147.2 l -17.1,20.8 c -116,144.3 -119.7,302.3 -76.1,428 80.1,-80.9 181,-138.9 291.8,-168.1 244.7,-64.7 735,-183.9 1427,-302.5 l -8.4,-419"
         style="fill:#b9afbe;fill-opacity:1;fill-rule:nonzero;stroke:none"
         transform="matrix(0.13333333,0,0,-0.13333333,0,5333.3333)" />
      <path
         id="path37"
         d="m 15892.6,17144.2 c -179.2,0 -313,-105.5 -384.4,-218.4 -84.2,-133.1 -120.9,-341.5 28.4,-527.2 l 17.1,-20.8 c 60.1,-71.8 140.8,-122.8 233.2,-147.2 512,-135.4 2387.1,-581.1 5021.5,-634.4 2634.3,-53.5 4526.1,316.4 5043.1,431 93.4,20.6 176,68.3 239.2,137.8 l 17.8,20 c 156.6,179.5 128.3,389.2 49.6,525.5 -80.3,139.2 -251.4,271.3 -490.6,224.5 -824,-161.5 -2548.8,-425.3 -4839.7,-379.2 -2291.3,46.3 -4003.6,379.8 -4820.3,574.4 -40.1,9.6 -78.4,14 -114.9,14 m 5430.1,-1920 c -170.6,0 -344.4,1.6 -521.7,5.2 -2675.2,54.1 -4586,508.5 -5107.8,646.5 -166.2,43.9 -311.7,136.1 -420.9,266.5 -7.4,8.8 -14.3,17.3 -21.3,25.9 -223.1,277.6 -243.8,651.7 -52.9,953.6 193.1,305.3 544.1,448.7 894.4,365.2 802.5,-191.2 2485.6,-518.9 4742.7,-564.5 2257.3,-45.4 3952.2,213.8 4761.7,372.4 h 0.1 c 353.2,69.3 698.3,-88.2 878.9,-401.1 178.5,-309.3 142.8,-682.3 -91,-950.2 -7.5,-8.5 -14.9,-16.9 -22.6,-25.3 -114.5,-126.1 -263.7,-212.3 -431.4,-249.4 -492.2,-109.1 -2205.7,-444.8 -4608.2,-444.8"
         style="fill:#371a45;fill-opacity:1;fill-rule:nonzero;stroke:none"
         transform="matrix(0.13333333,0,0,-0.13333333,0,5333.3333)" />
      <path
         id="path38"
         d="m 23729.1,14309.9 -5890.9,119.1 c -385.2,7.8 -691.2,326.4 -683.4,711.6 l 55.8,2760.8 c 7.8,385.2 326.4,691.2 711.6,683.4 l 5890.9,-119 c 385.3,-7.8 691.3,-326.4 683.5,-711.7 l -55.8,-2760.7 c -7.8,-385.3 -326.4,-691.3 -711.7,-683.5"
         style="fill:#ffffff;fill-opacity:1;fill-rule:nonzero;stroke:none"
         transform="matrix(0.13333333,0,0,-0.13333333,0,5333.3333)" />
      <path
         id="path39"
         d="m 24440.2,14974.9 v 0 c 0.2,6.1 0.4,12.3 0.6,18.5 v 0 c -0.2,-6.2 -0.4,-12.4 -0.6,-18.5"
         style="fill:#b9afbe;fill-opacity:1;fill-rule:nonzero;stroke:none"
         transform="matrix(0.13333333,0,0,-0.13333333,0,5333.3333)" />
      <path
         id="path40"
         d="m 23743.9,14309.8 c 372.4,0.2 679.1,293.5 696.3,665.1 v 0 c -17.2,-371.6 -323.8,-664.9 -696.3,-665.1"
         style="fill:#8c7b94;fill-opacity:1;fill-rule:nonzero;stroke:none"
         transform="matrix(0.13333333,0,0,-0.13333333,0,5333.3333)" />
      <path
         id="path41"
         d="m 24496.6,17754.4 c 0,0.5 0,1.1 0,1.6 0,-0.5 0,-1 0,-1.6 m 0,2.2 c 0,0.7 0,1.3 0,1.9 0,-0.6 0,-1.2 0,-1.9 m 0,2.4 c 0.1,0.5 0.1,1 0.1,1.5 0,-0.5 0,-1 -0.1,-1.5 m 0.1,2.1 c 0,0.6 0,1.2 0,1.8 0,-0.6 0,-1.2 0,-1.8 m 0,2.5 c 0,0.4 0,0.8 0,1.2 0,-0.4 0,-0.8 0,-1.2 m 0,2 c 0,0.5 0,1.1 0,1.6 0,-0.6 0,-1.1 0,-1.6 m 0,2.6 c 0,0.2 0,0.5 0,0.7 0,-0.2 0,-0.5 0,-0.7 m 0,3 c 0,0 0,0 0,0.1 0,-0.1 0,-0.1 0,-0.1 m -7286.1,130.2 c 0,0.6 0,1.3 0,2 0,-0.7 0,-1.4 0,-2 m 0,2.4 c 0,0.7 0.1,1.3 0.1,2 0,-0.7 -0.1,-1.3 -0.1,-2 m 0.1,2.1 c 0,0.7 0,1.3 0,1.9 0,-0.6 0,-1.2 0,-1.9 m 0,2.3 c 0.1,0.7 0.1,1.3 0.1,1.9 0,-0.6 0,-1.2 -0.1,-1.9 m 0.1,2.4 c 0,0.5 0.1,1 0.1,1.5 0,-0.5 -0.1,-1 -0.1,-1.5 m 0.1,2.1 c 0,0.6 0,1.1 0.1,1.7 -0.1,-0.6 -0.1,-1.1 -0.1,-1.7 m 0.1,2.6 c 0,0.3 0,0.5 0,0.8 0,-0.3 0,-0.5 0,-0.8"
         style="fill:#b9afbe;fill-opacity:1;fill-rule:nonzero;stroke:none"
         transform="matrix(0.13333333,0,0,-0.13333333,0,5333.3333)" />
      <path
         id="path42"
         d="m 23743.5,14309.8 v 0 c -4.8,0 -9.6,0 -14.4,0.1 v 0 l -5890.9,119.1 c -380.7,7.7 -684,319 -683.6,698.1 0,4.5 0.1,9 0.2,13.5 l 55.8,2760.8 v 0 c 0,0.6 0,1.3 0,2 0,0.1 0,0.3 0,0.4 0,0.7 0.1,1.3 0.1,2 v 0.1 c 0,0.7 0,1.3 0,1.9 0,0.1 0,0.3 0,0.4 0.1,0.7 0.1,1.3 0.1,1.9 0,0.2 0,0.3 0,0.5 0,0.5 0.1,1 0.1,1.5 0,0.2 0,0.4 0,0.6 0,0.6 0,1.1 0.1,1.7 0,0.3 0,0.6 0,0.9 0,0.3 0,0.5 0,0.8 4.8,116.6 38.2,225.5 93.1,320.2 l -27.5,-1362.3 c -20.5,-1012.4 783.6,-1849.6 1795.9,-1870.1 l 3446.6,-69.6 c 12.6,-0.3 25.2,-0.4 37.8,-0.4 995.2,0.1 1812,796.6 1832.2,1796.3 l 27.5,1362.4 c 50.7,-96.3 79.6,-205.5 80.1,-321.3 0,-0.1 0,-0.1 0,-0.1 0,-0.8 0,-1.5 0,-2.3 0,-0.2 0,-0.5 0,-0.7 0,-0.4 0,-0.7 0,-1 0,-0.5 0,-1.1 0,-1.6 0,-0.2 0,-0.5 0,-0.8 0,-0.4 0,-0.8 0,-1.2 0,-0.2 0,-0.5 0,-0.7 0,-0.6 0,-1.2 0,-1.8 0,-0.2 0,-0.4 0,-0.6 0,-0.5 0,-1 -0.1,-1.5 0,-0.2 0,-0.4 0,-0.5 0,-0.6 0,-1.2 0,-1.9 0,-0.2 0,-0.4 0,-0.6 0,-0.5 0,-1.1 0,-1.6 0,-0.1 0,-0.2 0,-0.3 l -55.8,-2760.7 c -0.2,-6.2 -0.4,-12.4 -0.6,-18.5 -17.2,-371.6 -323.9,-664.9 -696.3,-665.1 -0.1,0 -0.3,0 -0.4,0"
         style="fill:#b9afbe;fill-opacity:1;fill-rule:nonzero;stroke:none"
         transform="matrix(0.13333333,0,0,-0.13333333,0,5333.3333)" />
      <path
         id="path43"
         d="m 19650,14208.9 c -1.3,0 -2.5,0 -3.8,0.1 -101.3,2 -181.7,85.8 -179.7,187.1 l 32.6,1612.4 -657.4,577.5 c -40.5,35.7 -63.3,87.5 -62.3,141.6 l 37.2,1839.2 c 2,100 83.7,179.7 183.4,179.7 1.2,0 2.4,0 3.7,-0.1 101.3,-2 181.8,-85.8 179.7,-187.1 l -35.4,-1753.9 657.3,-577.5 c 40.6,-35.7 63.4,-87.5 62.3,-141.5 l -34.3,-1697.7 c -2,-100.1 -83.7,-179.8 -183.3,-179.8"
         style="fill:#371a45;fill-opacity:1;fill-rule:nonzero;stroke:none"
         transform="matrix(0.13333333,0,0,-0.13333333,0,5333.3333)" />
      <path
         id="path44"
         d="m 23308.4,16397.2 c -8.3,-410.2 -347.6,-736 -757.8,-727.7 -410.2,8.3 -736,347.5 -727.7,757.7 8.3,410.2 347.5,736 757.7,727.8 410.2,-8.3 736.1,-347.6 727.8,-757.8"
         style="fill:#4ccff2;fill-opacity:1;fill-rule:nonzero;stroke:none"
         transform="matrix(0.13333333,0,0,-0.13333333,0,5333.3333)" />
      <path
         id="path45"
         d="m 22565.9,15669.3 v 0 0 0 m 0.5,0 c 402,0.3 732,321.3 741.9,724.7 v 0 c -9.8,-403.5 -339.8,-724.5 -741.9,-724.7 m 741.9,724.8 v 0 c 0,0.4 0,0.8 0,1.2 v 0 c 0,-0.4 0,-0.8 0,-1.2 m 0.1,3.1 c 0,0.7 0,1.4 0,2.1 0,-0.7 0,-1.4 0,-2.1 m 0,4 v 0.1 -0.1 m -1485.5,26 c 0,0.8 0,1.5 0,2.2 0,-0.7 0,-1.5 0,-2.2 v 0 m 0.1,3.3 c 0,0.3 0,0.7 0,1 0,-0.3 0,-0.7 0,-1"
         style="fill:#b9afbe;fill-opacity:1;fill-rule:nonzero;stroke:none"
         transform="matrix(0.13333333,0,0,-0.13333333,0,5333.3333)" />
      <path
         id="path46"
         d="m 22565.9,15669.3 v 0 c -5.1,0 -10.2,0.1 -15.3,0.2 v 0 c -405.4,8.2 -728.4,339.6 -727.9,743.3 0,3.6 0.1,7.2 0.1,10.8 -1,-65.4 7.3,-128.7 22.3,-189.5 26.1,90 68.7,172.9 124.2,245.2 131.3,-186.2 346,-309.7 591.3,-314.7 5.1,-0.1 10.2,-0.1 15.3,-0.1 239.1,0 452.5,113.7 588.3,290.7 52.5,-74.5 91.7,-159.1 114.2,-250 17.4,60.2 28.3,123.2 29.9,188.8 -9.9,-403.4 -339.9,-724.4 -741.9,-724.7 -0.2,0 -0.3,0 -0.5,0 m 742.4,724.8 c 0,0.4 0,0.8 0,1.2 0,-0.4 0,-0.8 0,-1.2 m -1485.5,30.2 c 0,0.3 0,0.6 0,0.9 0,-0.3 0,-0.6 0,-0.9"
         style="fill:#4590b6;fill-opacity:1;fill-rule:nonzero;stroke:none"
         transform="matrix(0.13333333,0,0,-0.13333333,0,5333.3333)" />
      <path
         id="path47"
         d="m 23308.3,16394 v 0.1 -0.1 m 0,1.3 c 0,0.6 0.1,1.3 0.1,1.9 v 0 0 c 0,-0.6 -0.1,-1.3 -0.1,-1.9 m -1485.5,28.3 c 0,0.3 0,0.5 0,0.7 0,-0.2 0,-0.4 0,-0.7 m 0,1.6 c 0.1,0.7 0.1,1.3 0.1,2 0,-0.7 0,-1.3 -0.1,-2 m 0.1,4.2 c 0,0.4 0,0.8 0.1,1.1 v 0 c -0.1,-0.3 -0.1,-0.7 -0.1,-1.1 v 0 m 0.1,2.1 c 10.4,403.1 340.4,723.6 742.3,723.6 v 0 c -401.9,0 -731.9,-320.5 -742.3,-723.6 v 0"
         style="fill:#ffffff;fill-opacity:1;fill-rule:nonzero;stroke:none"
         transform="matrix(0.13333333,0,0,-0.13333333,0,5333.3333)" />
      <path
         id="path48"
         d="m 23308.4,16399.3 c 0,0.7 0,1.3 0,1.9 0,-0.6 0,-1.3 0,-1.9 m 0,2 c 1.3,85.5 -12.7,167.5 -38.2,244.4 -26,-69 -61.9,-133.1 -106,-190.5 -131.3,186.2 -346,309.7 -591.4,314.6 -5.1,0.1 -10.2,0.2 -15.3,0.2 -239.1,0 -452.4,-113.7 -588.2,-290.7 -41.8,59.2 -75.1,124.6 -98.3,194.6 -28.5,-75.7 -45.8,-157 -48,-242.4 10.4,403.1 340.4,723.6 742.3,723.6 5.1,0 10.2,0 15.3,-0.1 405.4,-8.2 728.4,-339.7 727.9,-743.4 0,-3.5 0,-6.9 -0.1,-10.3 m -1485.5,28.1 c 0,0.4 0,0.8 0.1,1.1 -0.1,-0.3 -0.1,-0.7 -0.1,-1.1"
         style="fill:#c9f1fb;fill-opacity:1;fill-rule:nonzero;stroke:none"
         transform="matrix(0.13333333,0,0,-0.13333333,0,5333.3333)" />
      <path
         id="path49"
         d="m 23308.3,16394 c 0,0.1 0,0.1 0,0.1 v 0 -0.1 0 m 0,1.3 c 0,0.6 0.1,1.3 0.1,1.9 0,0.7 0,1.4 0,2.1 v 0 c 0,-0.7 0,-1.4 0,-2.1 v 0 c 0,-0.6 -0.1,-1.3 -0.1,-1.9 v 0 m -1485.4,31.9 c 0,0.7 0,1.5 0,2.2 v 0 c 0,-0.7 0,-1.5 0,-2.2 m 0.1,3.3 v 0 c 0,0.3 0,0.7 0,1 v 0 c 0,-0.3 0,-0.7 0,-1"
         style="fill:#eae7eb;fill-opacity:1;fill-rule:nonzero;stroke:none"
         transform="matrix(0.13333333,0,0,-0.13333333,0,5333.3333)" />
      <path
         id="path50"
         d="m 23278.4,16205.2 c -22.5,90.9 -61.7,175.5 -114.2,250 44.1,57.4 80,121.5 106,190.5 25.5,-76.9 39.5,-158.9 38.2,-244.4 v -0.1 c 0,-0.6 0,-1.2 0,-1.9 0,-0.7 0,-1.4 0,-2.1 0,-0.6 -0.1,-1.3 -0.1,-1.9 0,-0.4 0,-0.8 0,-1.2 0,0 0,0 0,-0.1 -1.6,-65.6 -12.5,-128.6 -29.9,-188.8 m -1433.3,28.9 c -15,60.8 -23.3,124.1 -22.3,189.5 0,0.3 0,0.5 0,0.7 0,0.3 0,0.6 0,0.9 0.1,0.7 0.1,1.3 0.1,2 v 0 0 c 0,0.7 0,1.5 0,2.2 0,0.4 0,0.8 0.1,1.1 0,0.3 0,0.7 0,1 2.2,85.4 19.5,166.7 48,242.4 23.2,-70 56.5,-135.4 98.3,-194.6 -55.5,-72.3 -98.1,-155.2 -124.2,-245.2"
         style="fill:#c7dde9;fill-opacity:1;fill-rule:nonzero;stroke:none"
         transform="matrix(0.13333333,0,0,-0.13333333,0,5333.3333)" />
      <path
         id="path51"
         d="m 22565.5,16971.7 c -303.3,0 -553.1,-243.6 -559.2,-548.2 -6.3,-308.4 239.6,-564.4 548,-570.6 148.5,-2.6 291.1,52.3 398.9,155.8 107.7,103.5 168.7,242.8 171.8,392.2 v 0 c 3,149.4 -52.4,291.1 -155.9,398.8 -103.5,107.8 -242.8,168.8 -392.2,171.9 -3.8,0 -7.7,0.1 -11.4,0.1 z m 0.6,-1485.8 c -6.4,0 -12.8,0 -19.2,0.2 -510.7,10.3 -917.7,434.1 -907.4,944.8 10.3,510.7 433.8,916.9 944.8,907.5 510.7,-10.4 917.8,-434.2 907.4,-944.9 -4.9,-247.4 -106,-478 -284.4,-649.4 -173.9,-166.9 -400.9,-258.2 -641.2,-258.2"
         style="fill:#371a45;fill-opacity:1;fill-rule:nonzero;stroke:none"
         transform="matrix(0.13333333,0,0,-0.13333333,0,5333.3333)" />
      <path
         id="path52"
         d="m 17908,18401.5 c -278.8,0 -508.4,-223.9 -514.1,-503.8 l -55.7,-2760.8 c -2.8,-137.3 48.1,-267.5 143.2,-366.6 95.2,-99.1 223.2,-155.1 360.5,-157.9 l 5890.9,-119.1 c 3.5,-0.1 7,-0.1 10.6,-0.1 278.7,0 508.3,223.9 514,503.9 l 55.8,2760.7 c 5.7,283.5 -220.3,518.8 -503.8,524.6 l -5890.9,119 c -3.5,0.1 -7,0.1 -10.5,0.1 z m 5835.5,-4275.2 c -6,0 -12.1,0.1 -18.1,0.2 l -5890.9,119.1 c -235.3,4.7 -454.7,100.8 -617.7,270.6 -163,169.7 -250.2,392.8 -245.4,628.1 l 55.7,2760.8 c 9.9,485.7 412.8,872.3 898.8,863.1 l 5890.9,-119 c 485.7,-9.9 872.9,-413 863.2,-898.8 l -55.8,-2760.7 c -9.7,-479.8 -403.1,-863.3 -880.7,-863.4"
         style="fill:#371a45;fill-opacity:1;fill-rule:nonzero;stroke:none"
         transform="matrix(0.13333333,0,0,-0.13333333,0,5333.3333)" />
      <path
         id="path53"
         d="M 15665.6,23447.3 11857.9,19689 c -61.8,-61.5 -144,-97.2 -231,-102.1 l -2785.75,-140.7 c -182.92,-9.5 -343.17,122.5 -369.21,304.6 l -300.43,2129 0.02,1.1 -834.4,5910.1 c -22.18,155.1 60.12,305.9 202.36,371.9 l 1620.67,748.8 c 0.56,0.5 2.22,0.5 3.33,1 l 3640.81,1681.7 c 48.9,22.7 102,33.7 155.9,32.6 l 1903.6,-38.5 c 165.6,-3.3 304.7,-120.6 338.9,-279.3 3.6,-14.9 6,-29.8 7.4,-45.3 l 399.5,-4660.6 160.2,-1873.5 c 8.9,-104.8 -29.5,-208.6 -104.2,-282.5"
         style="fill:#0096f0;fill-opacity:1;fill-rule:nonzero;stroke:none"
         transform="matrix(0.13333333,0,0,-0.13333333,0,5333.3333)" />
      <path
         id="path54"
         d="m 14547.1,24956.9 c -29.8,-1472.9 -727.8,-2653.3 -1559,-2636.5 -831.2,16.8 -1480.9,1224.5 -1451.1,2697.3 29.7,1472.9 727.7,2653.3 1558.9,2636.5 831.2,-16.8 1480.9,-1224.4 1451.2,-2697.3"
         style="fill:#4ccff2;fill-opacity:1;fill-rule:nonzero;stroke:none"
         transform="matrix(0.13333333,0,0,-0.13333333,0,5333.3333)" />
      <path
         id="path55"
         d="m 14241.8,24972.9 c -23.4,-1155.9 -554.7,-2082.6 -1186.9,-2069.8 -632.1,12.7 -1125.6,960.1 -1102.2,2116.1 23.3,1155.9 554.7,2082.5 1186.8,2069.8 632.2,-12.8 1125.7,-960.2 1102.3,-2116.1"
         style="fill:#371a45;fill-opacity:1;fill-rule:nonzero;stroke:none"
         transform="matrix(0.13333333,0,0,-0.13333333,0,5333.3333)" />
      <path
         id="path56"
         d="m 13078.8,27516.8 c -735.3,0 -1376.7,-1139.7 -1404.3,-2501.9 -13.9,-689 123.3,-1337.7 386.3,-1826.7 249.6,-463.8 579.9,-723.1 930.1,-730.2 741.7,-15.4 1390.9,1130.6 1418.6,2501.7 13.9,689 -123.2,1337.8 -386.3,1826.7 -249.5,463.8 -579.8,723.1 -930.1,730.2 -4.8,0.1 -9.6,0.2 -14.3,0.2 m -72.6,-5334.1 c -7,0 -13.9,0 -20.8,0.2 -453.9,9.2 -868.3,319.9 -1166.9,875 -285.1,530 -434,1227 -419.1,1962.6 31.6,1560.7 767,2771.5 1678.4,2771.5 7,0 13.9,-0.1 20.9,-0.3 453.8,-9.1 868.2,-319.9 1166.8,-874.9 285.1,-530 434,-1227 419.1,-1962.7 -31.5,-1560.7 -767,-2771.4 -1678.4,-2771.4"
         style="fill:#371a45;fill-opacity:1;fill-rule:nonzero;stroke:none"
         transform="matrix(0.13333333,0,0,-0.13333333,0,5333.3333)" />
      <path
         id="path57"
         d="m 11265,27567.2 c -3,-145.4 -92.5,-261.6 -199.9,-259.4 -107.4,2.2 -192.1,121.8 -189.2,267.3 2.9,145.4 92.4,261.5 199.8,259.3 107.5,-2.2 192.2,-121.8 189.3,-267.2"
         style="fill:#371a45;fill-opacity:1;fill-rule:nonzero;stroke:none"
         transform="matrix(0.13333333,0,0,-0.13333333,0,5333.3333)" />
      <path
         id="path58"
         d="m 12257.6,20847.9 c -3,-145.4 -92.4,-261.6 -199.9,-259.4 -107.4,2.2 -192.1,121.8 -189.2,267.2 3,145.5 92.4,261.6 199.9,259.4 107.4,-2.2 192.1,-121.8 189.2,-267.2"
         style="fill:#371a45;fill-opacity:1;fill-rule:nonzero;stroke:none"
         transform="matrix(0.13333333,0,0,-0.13333333,0,5333.3333)" />
      <path
         id="path59"
         d="m 11600.4,19769.4 -546.5,3768.4 c 0,0 417.2,-1446.2 1215.7,-1446.2 69.9,0 142.6,11 218.2,35.1 75,23.9 140.9,60.4 198.5,107.4 97.1,-31.9 197.1,-49.1 299.1,-51.2 6.9,-0.2 13.8,-0.2 20.8,-0.2 430.2,0 821.2,269.7 1117.5,718.7 24.9,-45.5 50.5,-91.1 76.4,-136.2 l -600.8,-562.3 c -55.5,-51.9 -58.4,-138.9 -6.5,-194.4 27.1,-29 63.7,-43.6 100.5,-43.6 33.7,0 67.4,12.3 94,37.2 l 557.3,521.5 c 15.6,-25.1 31.6,-50.5 47.6,-75.5 l -2663.1,-2628.6 c -30,-29.6 -69.6,-47.1 -111.7,-49.2 l -17,-0.9 m 465,1345.7 c -106.1,0 -194,-115.3 -196.9,-259.4 -2.9,-145.4 81.8,-265 189.2,-267.2 1,0 2,0 3,0 106.1,0 194,115.3 196.9,259.4 2.9,145.4 -81.8,265 -189.2,267.2 -1,0 -2,0 -3,0"
         style="fill:#136bb4;fill-opacity:1;fill-rule:nonzero;stroke:none"
         transform="matrix(0.13333333,0,0,-0.13333333,0,5333.3333)" />
      <path
         id="path60"
         d="m 13005.7,22457.8 c -4.9,0 -9.9,0.1 -14.8,0.2 -39.3,0.8 -78.3,4.7 -117,11.8 66.8,125.4 111.9,274.4 140.9,435.3 13.3,-1.1 26.7,-1.8 40.1,-2 4.4,-0.1 8.6,-0.2 13,-0.2 297.8,0 572.5,208.4 781.3,550.4 39,-87 79.6,-173.2 121.9,-258.8 -255.4,-453.2 -598.6,-736.7 -965.4,-736.7"
         style="fill:#4590b6;fill-opacity:1;fill-rule:nonzero;stroke:none"
         transform="matrix(0.13333333,0,0,-0.13333333,0,5333.3333)" />
      <path
         id="path61"
         d="m 13067.9,22902.9 c -4.4,0 -8.6,0.1 -13,0.2 -13.4,0.2 -26.8,0.9 -40.1,2 63.6,353 49.6,762.7 16,1102.1 165.5,-49.5 340.6,-76.1 521.6,-76.1 12,0 24,0.1 36,0.4 21.4,0.4 42.2,2.8 62.3,6.9 60.7,-163.8 126.8,-325.6 198.5,-485.1 -208.8,-342 -483.5,-550.4 -781.3,-550.4"
         style="fill:#371a45;fill-opacity:1;fill-rule:nonzero;stroke:none"
         transform="matrix(0.13333333,0,0,-0.13333333,0,5333.3333)" />
      <path
         id="path62"
         d="m 13006.2,22182.7 c -7,0 -13.9,0 -20.8,0.2 -102,2.1 -202,19.3 -299.1,51.2 76.1,62 137.9,142.3 187.6,235.7 38.7,-7.1 77.7,-11 117,-11.8 4.9,-0.1 9.9,-0.2 14.8,-0.2 366.8,0 710,283.5 965.4,736.7 48.8,-98.7 99.6,-196.3 152.6,-293.1 -296.3,-449 -687.3,-718.7 -1117.5,-718.7"
         style="fill:#371a45;fill-opacity:1;fill-rule:nonzero;stroke:none"
         transform="matrix(0.13333333,0,0,-0.13333333,0,5333.3333)" />
      <path
         id="path63"
         d="m 12060.7,20588.5 c -1,0 -2,0 -3,0 -107.4,2.2 -192.1,121.8 -189.2,267.2 2.9,144.1 90.8,259.4 196.9,259.4 1,0 2,0 3,0 107.4,-2.2 192.1,-121.8 189.2,-267.2 -2.9,-144.1 -90.8,-259.4 -196.9,-259.4"
         style="fill:#371a45;fill-opacity:1;fill-rule:nonzero;stroke:none"
         transform="matrix(0.13333333,0,0,-0.13333333,0,5333.3333)" />
      <path
         id="path64"
         d="m 8892.07,19632.2 -254.7,1804.9 c 326.54,-257.9 612.25,-364.6 861.56,-364.6 1198.17,0 1554.97,2465.3 1554.97,2465.3 l 546.5,-3768.4 -2708.33,-137.2"
         style="fill:#136bb4;fill-opacity:1;fill-rule:nonzero;stroke:none"
         transform="matrix(0.13333333,0,0,-0.13333333,0,5333.3333)" />
      <path
         id="path65"
         d="m 10638.1,28332.4 c 231.3,283.5 488.2,677.4 209.4,757.1 -28.2,8 -59.5,14.3 -93.5,19 0,0.7 -0.1,1.3 -0.1,1.9 -1.7,31.1 -0.7,67.9 5.9,109.4 l 689,318.3 c 126,10.6 261.1,29.7 405.7,58.9 89,17.9 174.2,40.6 255.6,67.5 76.2,-173.4 229.7,-307.3 428.9,-375.9 l -1900.9,-956.2 m 3353.6,1843.5 c 0,0.1 0,0.3 0,0.4 0.3,0.4 0.5,0.8 0.8,1.1 -0.2,-0.4 -0.6,-1.1 -0.8,-1.5 m 20.9,41.5 c 5.6,15.5 9.1,32 10.2,49.2 2.8,40.8 4.4,80.3 4.8,118.7 l 72,-1.5 c -29.6,-55 -58.7,-110.6 -87,-166.4"
         style="fill:#136bb4;fill-opacity:1;fill-rule:nonzero;stroke:none"
         transform="matrix(0.13333333,0,0,-0.13333333,0,5333.3333)" />
      <path
         id="path66"
         d="m 8637.37,21437.1 c -80.41,63.5 -163.54,136.4 -248.97,218.9 l -869.84,6160.9 c -10.7,75.4 28.61,147.5 97.75,179.4 l 1860.29,859.1 c 39.07,-64.6 93.71,-117.9 158.33,-155.2 l -35.74,-16.5 c -1.11,-0.5 -2.76,-0.4 -3.33,-1 l -1298.99,-600.2 c -142.23,-65.9 -602.28,28 -580.09,-127.1 l 890.45,-6303.4 -0.02,-1.1 30.16,-213.8"
         style="fill:#b2dffa;fill-opacity:1;fill-rule:nonzero;stroke:none"
         transform="matrix(0.13333333,0,0,-0.13333333,0,5333.3333)" />
      <path
         id="path67"
         d="m 8823.31,19628.9 c -86.06,0 -157.45,61.9 -169.5,147.3 L 8388.4,21656 c 85.43,-82.5 168.56,-155.4 248.97,-218.9 l 254.7,-1804.9 -59.99,-3.1 c -2.94,-0.1 -5.86,-0.2 -8.77,-0.2"
         style="fill:#b8d2e8;fill-opacity:1;fill-rule:nonzero;stroke:none"
         transform="matrix(0.13333333,0,0,-0.13333333,0,5333.3333)" />
      <path
         id="path68"
         d="m 10759.8,29219.8 c 12.5,78.7 44.6,174.5 114.9,281.4 l 83.9,38.7 c 77.7,-8 160.2,-12.3 247.9,-12.3 76.8,0 157.5,3.3 242.3,10.5 l -689,-318.3 m 3339.8,1164 -72,1.5 c 0.1,12.3 0.1,24.6 0,36.7 l 91.7,-1.9 c -6.7,-12.2 -13.1,-24 -19.7,-36.3"
         style="fill:#b8d2e8;fill-opacity:1;fill-rule:nonzero;stroke:none"
         transform="matrix(0.13333333,0,0,-0.13333333,0,5333.3333)" />
      <path
         id="path69"
         d="m 13693.3,21964.9 c -36.8,0 -73.4,14.6 -100.5,43.6 -51.9,55.5 -49,142.5 6.5,194.4 l 1063.9,995.8 c 55.5,52 142.5,49 194.4,-6.4 51.9,-55.5 49,-142.6 -6.4,-194.5 l -1063.9,-995.7 c -26.6,-24.9 -60.3,-37.2 -94,-37.2"
         style="fill:#371a45;fill-opacity:1;fill-rule:nonzero;stroke:none"
         transform="matrix(0.13333333,0,0,-0.13333333,0,5333.3333)" />
      <path
         id="path70"
         d="m 11626.5,19403.6 c -89.7,0 -168.1,65.8 -181.3,157.2 l -1202.1,8290.9 -2866.73,-28.9 h -1.91 c -100.44,0 -182.37,80.9 -183.39,181.6 -1.03,101.3 80.27,184.2 181.59,185.3 l 2884.04,29 c 1.2,0.1 2.3,0.1 3.5,0.1 171.6,0 319,-127.3 343.5,-297.5 l 1204.6,-8307.9 c 14.5,-100.3 -55,-193.3 -155.3,-207.9 -8.9,-1.2 -17.7,-1.9 -26.5,-1.9"
         style="fill:#371a45;fill-opacity:1;fill-rule:nonzero;stroke:none"
         transform="matrix(0.13333333,0,0,-0.13333333,0,5333.3333)" />
      <path
         id="path71"
         d="m 10370.4,27808.9 c -67.2,0 -131.8,37 -164,101 -45.6,90.5 -9.1,200.8 81.4,246.3 l 4796.5,2412.9 c 90.5,45.5 200.8,9 246.3,-81.5 45.5,-90.5 9.1,-200.7 -81.4,-246.3 l -4796.6,-2412.8 c -26.4,-13.3 -54.6,-19.6 -82.2,-19.6"
         style="fill:#371a45;fill-opacity:1;fill-rule:nonzero;stroke:none"
         transform="matrix(0.13333333,0,0,-0.13333333,0,5333.3333)" />
      <path
         id="path72"
         d="m 12953.2,30443.6 c -24.7,0 -49.5,-5.4 -71.8,-15.7 L 7616.31,27996.3 c -69.14,-31.9 -108.45,-104 -97.75,-179.4 l 1135.25,-8040.7 c 12.45,-88.3 88.33,-151.4 178.27,-147.1 l 2785.32,141.2 c 42.1,2.1 81.7,19.6 111.7,49.2 l 3807.5,3758.2 v 0 c 36.3,35.9 54.7,85.6 50.3,136.5 l -559.7,6534.3 c -7.6,87.5 -79.4,154.9 -167.2,156.6 l -1903.5,38.5 c -1.1,0 -2.2,0 -3.3,0 M 8822.47,19262 c -267.93,0 -494,194.6 -531.95,462.9 l -1135.25,8040.7 c -33.49,236.8 89.95,463.4 307.23,563.8 l 5265,2431.5 c 73.5,34 155.2,51.1 236.4,49.5 l 1903.5,-38.5 c 275.9,-5.5 501.7,-217.1 525.3,-492.1 l 559.7,-6534.3 c 13.7,-159.9 -43.9,-316.2 -158.1,-428.9 l -3807.5,-3758.2 c -94.2,-93 -218.8,-147.8 -350.8,-154.5 l -2785.37,-141.2 c -9.42,-0.5 -18.84,-0.7 -28.16,-0.7"
         style="fill:#371a45;fill-opacity:1;fill-rule:nonzero;stroke:none"
         transform="matrix(0.13333333,0,0,-0.13333333,0,5333.3333)" />
      <path
         id="path73"
         d="m 13074.2,30329.8 765.7,-50.8 c 49.9,737.8 -334.3,1010.7 -685.7,1107.5 -253.7,69.9 -523.6,50.2 -770.7,-40.5 -474.6,-174.4 -1576.1,-595.2 -2245.4,-980.4 -643.07,-370.1 -598.77,-1037 -531.52,-1360.7 22.48,-108.2 119.05,-184.5 229.51,-181.5 l 461.21,12.9 c 155.8,4.3 275.2,134.6 272.5,290.4 -6.7,384 295.4,1085.8 2313.4,1619 0,0 168.5,-73.4 191,-415.9"
         style="fill:#0096f0;fill-opacity:1;fill-rule:nonzero;stroke:none"
         transform="matrix(0.13333333,0,0,-0.13333333,0,5333.3333)" />
      <path
         id="path74"
         d="m 13173.4,30662.7 c -30.1,4.5 -55.4,3.6 -76,-1.7 -21.2,-6 -37.2,-15.5 -52.7,-25.8 -15.5,-10.9 -30.3,-22.3 -47.3,-33.8 -17.9,-11.1 -34.9,-23.1 -67.3,-33 l -0.3,-0.1 c -96.9,-29.8 -199.6,24.6 -229.4,121.5 -29.8,96.9 24.6,199.7 121.5,229.5 4.7,1.4 9.7,2.7 14.4,3.8 24,5.3 63.3,9.3 103,8.3 40.5,-1.5 84.5,-8.2 127.3,-23.7 42.7,-14.7 84.4,-38.8 115.7,-70.8 32,-30.9 53.4,-68 64.2,-105.3 8.5,-29.5 -8.5,-60.4 -38,-69 -7.9,-2.3 -15.8,-2.7 -23.4,-1.6 l -11.7,1.7"
         style="fill:#371a45;fill-opacity:1;fill-rule:nonzero;stroke:none"
         transform="matrix(0.13333333,0,0,-0.13333333,0,5333.3333)" />
      <path
         id="path75"
         d="m 12838,31245.4 c -129.4,0 -261.4,-23.9 -391.2,-71.6 -446.1,-163.9 -1555.1,-586.2 -2217.2,-967.2 -493.66,-284.1 -516.96,-773 -449.57,-1133.1 7.32,-39.2 39.02,-67.9 81.05,-65.8 l 457.62,12.7 c 26.9,0.7 43.9,15.1 51.7,23.5 8.5,9.3 18.4,24.8 17.2,46.3 -29.5,533.1 371.3,1283.9 2448.7,1832.9 40.1,10.5 82.3,7.2 120.1,-9.2 24.1,-10.5 210.1,-100.7 278.5,-410.9 l 424.6,-28.2 c -17.9,396.3 -200.3,637.4 -554.1,734.9 -86.6,23.9 -176.3,35.7 -267.4,35.7 M 9858.45,28640.7 c -215.63,0 -399.12,151.9 -439.06,365.4 -124.27,664.1 104.34,1217.5 627.21,1518.5 686.6,395.1 1818.8,826.4 2273.7,993.6 293.4,107.7 598.6,123.4 882.6,45.2 332.8,-91.7 882,-382.1 819.9,-1296.8 -6.8,-101 -94.5,-176.8 -195.1,-170.6 l -765.6,50.8 c -91.8,6.1 -164.9,79.2 -170.9,171 -7.8,117.4 -35.4,186.2 -58.7,224.3 -1916.1,-526 -2092.9,-1174.3 -2078.6,-1431.7 6.4,-116.5 -33.9,-228.4 -113.5,-314.9 -79.9,-86.9 -193.4,-138.5 -311.5,-141.9 l -457.61,-12.7 c -4.3,-0.1 -8.59,-0.2 -12.84,-0.2"
         style="fill:#371a45;fill-opacity:1;fill-rule:nonzero;stroke:none"
         transform="matrix(0.13333333,0,0,-0.13333333,0,5333.3333)" />
      <path
         id="path76"
         d="m 13775.5,30362.1 c 125.3,-307.2 -109.3,-693.5 -524.1,-862.7 -414.8,-169.3 -852.7,-57.4 -978,249.8 -125.4,307.2 109.2,693.5 524,862.7 414.8,169.3 852.7,57.4 978.1,-249.8"
         style="fill:#ffffff;fill-opacity:1;fill-rule:nonzero;stroke:none"
         transform="matrix(0.13333333,0,0,-0.13333333,0,5333.3333)" />
      <path
         id="path77"
         d="m 12860.4,29604 c -56.2,0.1 -110.6,6.4 -161.1,19.3 -72.1,18.4 -199.4,67.1 -252.9,187.6 47.5,26.2 93.1,53.9 136.9,83.2 72.1,-21.2 150.7,-32.2 233,-32.2 124.8,0 258,25.3 389,78.7 174.5,71.3 317,180.9 414.3,306.9 43.6,-203.6 -144.7,-458.8 -437.5,-578.3 -105.5,-43 -216.9,-65.2 -321.7,-65.2"
         style="fill:#b9afbe;fill-opacity:1;fill-rule:nonzero;stroke:none"
         transform="matrix(0.13333333,0,0,-0.13333333,0,5333.3333)" />
      <path
         id="path78"
         d="m 13188.1,30507.1 c -102.4,0 -213.2,-20.9 -321.3,-65 -162.1,-66.2 -299.6,-177.3 -377.2,-305.1 -39.4,-64.8 -97.8,-192.5 -46.4,-318.5 51.4,-126 182.5,-176.4 256.1,-195.2 144.7,-37 320.7,-20.2 482.8,45.9 315,128.6 509,414.1 423.6,623.6 -56.2,137.6 -221.5,214.3 -417.6,214.3 m -326.5,-1270.2 c -86.9,0 -172,10.3 -253.1,31 -239,61 -423,211.2 -504.9,412 -82,200.8 -55.5,436.8 72.5,647.6 119.2,196.3 315.3,357.6 552.1,454.3 507.6,207.1 1053.7,50 1217.1,-350.4 v 0 c 163.4,-400.4 -116.8,-894.7 -624.6,-1101.9 -150.5,-61.4 -307.5,-92.6 -459.1,-92.6"
         style="fill:#371a45;fill-opacity:1;fill-rule:nonzero;stroke:none"
         transform="matrix(0.13333333,0,0,-0.13333333,0,5333.3333)" />
      <path
         id="path79"
         d="m 11854.5,29597 c -1554.6,-313.7 -2006.37,537.5 -2006.37,537.5 -399.59,-217.5 -360.18,-1072 -360.18,-1072 L 8922.92,28802 c 0,0 -143.96,502.1 -92.38,1175.3 33.63,438.6 150.17,948.6 442.48,1440.9 741.28,1248.2 2503.88,1771.7 3640.18,917.1 35.3,-26.6 68.8,-55.3 100.1,-85.7 752.8,-719.7 332.8,-2352 -1158.8,-2652.6"
         style="fill:#ffffff;fill-opacity:1;fill-rule:nonzero;stroke:none"
         transform="matrix(0.13333333,0,0,-0.13333333,0,5333.3333)" />
      <path
         id="path80"
         d="m 8922.92,28802 c 0,0 -103.44,360.8 -103.54,880.7 -0.02,93.5 3.3,192.1 11.16,294.6 l 0.57,0.6 c 0,0 484.88,14.8 598.07,670.2 17.17,99.4 102.27,161.9 190.84,161.9 41.76,0 84.28,-13.8 120.83,-44.3 324.25,-270.2 879.65,-647.1 1454.85,-647.1 148.6,0 298.4,25.1 445.9,83.7 797.4,316.9 1425,871.7 1371.7,2047.3 244.8,-234 365.6,-564.6 365.8,-914.5 0.1,-79.4 -6.1,-159.7 -18.4,-240.1 -75.6,-494 -383.5,-991.6 -914.3,-1284.1 -103.6,-57.1 -215.8,-106.4 -336.3,-146.4 -81.4,-26.9 -166.6,-49.6 -255.6,-67.5 -241.9,-48.8 -457.1,-69.4 -648,-69.4 -107.7,0 -207.8,6.5 -300.5,18.3 -146,18.5 -273.9,49.9 -385.6,88.8 -279.3,97.5 -456.5,242.3 -558.44,351 -80.28,85.6 -113.83,148.8 -113.83,148.8 -333.65,-181.6 -361.23,-807.3 -361.25,-1008.9 0,-39.8 1.07,-63.1 1.07,-63.1 l -72.71,-33.5 -492.32,-227"
         style="fill:#b9afbe;fill-opacity:1;fill-rule:nonzero;stroke:none"
         transform="matrix(0.13333333,0,0,-0.13333333,0,5333.3333)" />
      <path
         id="path81"
         d="m 9704.77,30020.1 c -22.26,31.4 -36.65,58.1 -51.21,88.8 -14.29,29.8 -26.34,60.7 -37.07,92.2 -10.82,31.5 -19.79,63.8 -26.38,97.1 -6.29,33.4 -11.28,67.3 -11.52,102.7 -0.36,53 42.27,96.2 95.2,96.5 19.96,0.2 38.55,-5.8 53.97,-16.2 l 4.78,-3.2 c 27.2,-18.2 50.14,-37.6 74.01,-56.4 23.14,-19.1 45.33,-38.3 66.8,-57.7 21.43,-19.5 42.71,-38.7 62.86,-58.3 19.87,-18.8 40.81,-40.9 55.62,-57 68.67,-74.8 63.77,-191.2 -11.08,-259.8 -74.8,-68.7 -191.13,-63.8 -259.81,11 -5.03,5.5 -9.66,11.2 -13.9,17.1 l -2.27,3.2"
         style="fill:#371a45;fill-opacity:1;fill-rule:nonzero;stroke:none"
         transform="matrix(0.13333333,0,0,-0.13333333,0,5333.3333)" />
      <path
         id="path82"
         d="m 11614.9,32571.5 c -150.7,0 -305,-15.2 -461.2,-46 C 10437.5,32384 9793.31,31935 9430.57,31324.4 8906.3,30441.9 8985.16,29481.7 9055.13,29064.9 l 248.14,114.6 c 4.64,276.3 60.5,900.2 457.42,1116 42.97,23.4 93.66,28.6 140.48,14.5 46.88,-14.1 86.18,-46.4 109.13,-89.7 15.7,-28 422.2,-723.4 1807.8,-443.8 819.2,165.3 1230.3,750.7 1342,1243.5 107.4,474.3 -29.4,922.1 -357.3,1168.6 -335.5,252.3 -746.4,382.9 -1187.9,382.9 z M 8923.05,28618.4 c -26.08,0 -52.15,5.6 -76.37,16.7 -48.73,22.3 -85.2,64.7 -99.95,116.2 -16.9,59 -404.88,1458.7 368.41,2760.5 415.13,698.8 1150.66,1212.3 1967.46,1373.6 716.8,141.7 1406.2,-1.6 1940.7,-403.6 444.9,-334.5 634.4,-925.7 494.6,-1542.9 -137,-604.7 -636.5,-1322.2 -1627.2,-1522 -1216.3,-245.4 -1819.3,181 -2065.16,445.8 -131.35,-206.3 -162.94,-596.2 -154.4,-791.8 3.27,-74.4 -38.77,-143.5 -106.34,-174.7 l -564.85,-260.9 c -24.36,-11.3 -50.63,-16.9 -76.9,-16.9"
         style="fill:#371a45;fill-opacity:1;fill-rule:nonzero;stroke:none"
         transform="matrix(0.13333333,0,0,-0.13333333,0,5333.3333)" />
      <path
         id="path83"
         d="m 13491,28935.4 c 86.5,1.7 157.9,-67 159.6,-153.4 l 87.7,-4507.6 c 1.7,-86.4 -67,-157.8 -153.4,-159.5 -906.7,-17.7 -1656.1,703 -1673.7,1609.7 l -29.9,1537.1 c -17.7,906.7 703,1656.1 1609.7,1673.7"
         style="fill:#ffffff;fill-opacity:1;fill-rule:nonzero;stroke:none"
         transform="matrix(0.13333333,0,0,-0.13333333,0,5333.3333)" />
      <path
         id="path84"
         d="m 13491.6,28902.5 c -887,-17.3 -1594.6,-753 -1577.4,-1640.1 l 29.9,-1537.1 c 17.1,-876.4 735.6,-1577.7 1608.3,-1577.8 10.7,0 21.1,0.1 31.8,0.3 68.1,1.4 122.5,57.9 121.2,126 l -87.8,4507.6 c -1.3,68 -59.1,123 -126,121.1 m 60.8,-4820.9 c -908.5,0 -1656.4,730 -1674.2,1642.4 l -29.9,1537.1 c -17.9,923.4 718.7,1689.3 1642.1,1707.3 103.9,2.5 191.1,-81.4 193.1,-185.8 l 87.8,-4507.5 c 2,-104.5 -81.4,-191.1 -185.8,-193.2 -11,-0.2 -22.1,-0.3 -33.1,-0.3"
         style="fill:#371a45;fill-opacity:1;fill-rule:nonzero;stroke:none"
         transform="matrix(0.13333333,0,0,-0.13333333,0,5333.3333)" />
      <path
         id="path85"
         d="m 13527.5,24298.2 c -779.8,13.3 -1417.6,643.9 -1432.9,1430 l -6.6,338.6 c 277.6,-354.2 697.9,-591.1 1172,-625.8 60.5,-388.4 150,-770.2 267.5,-1142.8"
         style="fill:#b9afbe;fill-opacity:1;fill-rule:nonzero;stroke:none"
         transform="matrix(0.13333333,0,0,-0.13333333,0,5333.3333)" />
      <path
         id="path86"
         d="m 13494.6,28752 h -0.1 v 0 h 0.1 m -26.9,-0.7 c -791.4,-29.8 -1418.5,-690.8 -1403,-1486 l 29.9,-1537.1 c 15.5,-794.5 666.8,-1430.1 1457.9,-1430.2 h 1.9 l -86.7,4453.3 m 84.7,-4820.2 c -990.2,0 -1805.2,795.6 -1824.6,1790 l -29.9,1537.1 c -19.6,1006.4 783.2,1841 1789.6,1860.6 v 0 c 188.2,3.8 342.8,-145.8 346.5,-333.2 l 87.7,-4507.6 c 3.6,-187.4 -145.9,-342.9 -333.3,-346.5 -12,-0.3 -24,-0.4 -36,-0.4"
         style="fill:#371a45;fill-opacity:1;fill-rule:nonzero;stroke:none"
         transform="matrix(0.13333333,0,0,-0.13333333,0,5333.3333)" />
      <path
         id="path87"
         d="m 28658.9,28628.8 c -86.3,5.2 -160.4,-60.5 -165.6,-146.8 l -269.8,-4500.4 c -5.2,-86.3 60.6,-160.4 146.9,-165.6 v 0 c 905.2,-54.2 1683.1,635.6 1737.3,1540.9 l 92,1534.6 c 54.3,905.2 -635.5,1683.1 -1540.8,1737.3"
         style="fill:#ffffff;fill-opacity:1;fill-rule:nonzero;stroke:none"
         transform="matrix(0.13333333,0,0,-0.13333333,0,5333.3333)" />
      <path
         id="path88"
         d="m 28471.5,23996.4 c -13.3,0 -26.6,0.2 -39.9,0.6 132,364.8 237.8,742.4 315.2,1130.9 475.7,15 906,234.8 1198.1,577.9 l -20.3,-338 c -23.3,-388.9 -196.7,-745.4 -488.1,-1003.9 -269,-238.5 -607.9,-367.5 -965,-367.5"
         style="fill:#b9afbe;fill-opacity:1;fill-rule:nonzero;stroke:none"
         transform="matrix(0.13333333,0,0,-0.13333333,0,5333.3333)" />
      <path
         id="path89"
         d="m 28408.2,23997.8 c 380.2,-16.2 743.5,113.5 1028.3,366.1 291.4,258.5 464.8,615 488.1,1003.9 l 92.1,1534.7 c 47.5,793.8 -552.3,1479.6 -1341.9,1541.4 l -266.6,-4446.1 m 62.9,-368.2 c -37.2,0 -74.3,1.1 -111.7,3.3 -90.6,5.4 -173.8,45.8 -234,113.8 -60.3,67.9 -90.4,155.3 -85,245.9 l 269.8,4500.4 c 11.2,187 171.4,330 359.7,318.9 1004.8,-60.2 1773.2,-926.6 1713,-1931.4 l -92.1,-1534.6 c -29.1,-486.7 -246.1,-933 -610.9,-1256.5 -336.8,-298.7 -762.5,-459.8 -1208.8,-459.8"
         style="fill:#371a45;fill-opacity:1;fill-rule:nonzero;stroke:none"
         transform="matrix(0.13333333,0,0,-0.13333333,0,5333.3333)" />
      <path
         id="path90"
         d="m 28704.9,26273.2 c -218.6,-4237.4 -3830.8,-7495.4 -8068.2,-7276.8 -4237.5,218.5 -7495.4,3830.7 -7276.9,8068.2 218.5,4237.4 3830.8,7495.3 8068.2,7276.8 4237.4,-218.5 7495.4,-3830.8 7276.9,-8068.2"
         style="fill:#ffffff;fill-opacity:1;fill-rule:nonzero;stroke:none"
         transform="matrix(0.13333333,0,0,-0.13333333,0,5333.3333)" />
      <path
         id="path91"
         d="m 28670.2,26077.4 c -54.8,-1502.4 -593.3,-2879.4 -1469.4,-4003.1 -656.9,-842.4 -3282.6,-2263 -6457.8,-2175.9 -2944,80.8 -5564.7,1747.6 -6158.5,2635.6 -792,1184.4 -1228.9,2597 -1174.1,4099.4 144.8,3975.8 3620.7,5499.5 7834.8,5346 4214,-153.6 7569.8,-1926.2 7425,-5902"
         style="fill:#371a45;fill-opacity:1;fill-rule:nonzero;stroke:none"
         transform="matrix(0.13333333,0,0,-0.13333333,0,5333.3333)" />
      <path
         id="path92"
         d="m 21038,19169.4 c -129.8,0 -260.8,3.4 -391.9,10.2 -2000.4,103.1 -3841,979.1 -5182.6,2466.6 -46.4,51.4 -91.9,103.3 -136.6,155.7 566.3,-436.3 1377,-905.3 2332.3,-1268.9 922.9,-351.8 1980.4,-604.8 3083.7,-634.8 93.4,-2.6 186,-3.8 278.5,-3.8 1124.2,0 2172.9,185.2 3080.7,460 0.5,0.1 1.1,0.3 1.5,0.4 0.8,0.3 1.1,0.4 1.9,0.6 523.9,158.8 1000.9,347.3 1418.4,547.4 0.1,0 0,0 0.1,0 0.5,0.3 1.1,0.6 1.6,0.8 278.8,133.7 531.2,272.5 753.2,410.8 -1358.9,-1330.6 -3215.7,-2145.1 -5240.8,-2145"
         style="fill:#b9afbe;fill-opacity:1;fill-rule:nonzero;stroke:none"
         transform="matrix(0.13333333,0,0,-0.13333333,0,5333.3333)" />
      <path
         id="path93"
         d="m 24102.1,20354.4 c 0.5,0.1 1.1,0.3 1.5,0.4 -0.4,-0.1 -1,-0.3 -1.5,-0.4 m 3.4,1 c 523.8,158.7 1000.9,347.4 1418.4,547.4 -417.5,-200.1 -894.5,-388.6 -1418.4,-547.4 m -6446.3,177.6 c -955.3,363.6 -1766,832.6 -2332.3,1268.9 -1119.6,1310.6 -1743.7,2935.5 -1791.2,4646.7 621.5,-2835.4 2817.7,-5113.2 5667.8,-5811.8 -488.4,-56 -993.2,-87 -1510.8,-86.9 -25.9,0 -52.2,0 -78.2,0.2 14.9,-5.8 29.7,-11.5 44.7,-17.1 m 7864.8,369.8 c 0.5,0.3 1.1,0.6 1.6,0.8 -0.5,-0.2 -1.1,-0.5 -1.6,-0.8"
         style="fill:#371a45;fill-opacity:1;fill-rule:nonzero;stroke:none"
         transform="matrix(0.13333333,0,0,-0.13333333,0,5333.3333)" />
      <path
         id="path94"
         d="m 28704.9,26273.2 h 0.5 -0.5 m -7677,7895.1 c -3959.5,0 -7278.6,-3114.4 -7484.9,-7113.2 -103.2,-2000.5 578.9,-3921.4 1920.5,-5408.9 1341.6,-1487.5 3182.2,-2363.5 5182.6,-2466.6 4130.8,-213.7 7662.5,2973.4 7875.6,7103 212.9,4129.7 -2973.5,7662.7 -7103.1,7875.6 -130.9,6.8 -261.2,10.1 -390.7,10.1 m 9.1,-15365.7 c -136.1,0 -272.3,3.5 -409.8,10.6 -2098.3,108.2 -4028.9,1027 -5436.1,2587.3 -1407.3,1560.3 -2122.7,3575.2 -2014.5,5673.5 223.5,4331.7 3931,7673.6 8260.9,7450.6 4331.6,-223.4 7673.9,-3929.2 7450.6,-8260.9 -216.4,-4194.1 -3698.2,-7461.1 -7851.1,-7461.1"
         style="fill:#371a45;fill-opacity:1;fill-rule:nonzero;stroke:none"
         transform="matrix(0.13333333,0,0,-0.13333333,0,5333.3333)" />
      <path
         id="path95"
         d="m 28270.3,28423.9 c 0,0.1 -0.2,0.5 -0.2,0.6 0,-0.2 0.2,-0.4 0.2,-0.6 m -0.8,1.9 c -229.3,535.5 -550.3,1005.9 -948.1,1414.1 0,0.2 0,0.4 -0.1,0.6 397.9,-408.4 718.9,-878.9 948.2,-1414.7"
         style="fill:#acafb4;fill-opacity:1;fill-rule:nonzero;stroke:none"
         transform="matrix(0.13333333,0,0,-0.13333333,0,5333.3333)" />
      <path
         id="path96"
         d="m 21046.6,20415.2 c -133,0 -267.2,3.4 -401.6,10.3 -495.3,25.6 -977,97.4 -1441.5,211.3 3162.7,362.9 5628.9,1779.9 6329.8,2679 408,523.2 758.4,1089.9 1041.8,1691.7 320.5,199 568.8,613 627.1,1113.7 24.6,210.9 12.8,414.6 -28.9,599.7 127.2,541.1 203.8,1101.1 224.7,1675.4 18.9,509.3 -8.6,990.2 -76.6,1443.6 397.8,-408.2 718.8,-878.6 948.1,-1414.1 0.2,-0.4 0.4,-0.8 0.6,-1.3 0,-0.1 0.2,-0.5 0.2,-0.6 45,-105.3 86.5,-213.1 124.3,-323.4 109.3,-562.1 155.4,-1145.6 130.6,-1741.6 -794.4,-3434.1 -3872.6,-5943.9 -7478.6,-5943.7"
         style="fill:#2a1a3b;fill-opacity:1;fill-rule:nonzero;stroke:none"
         transform="matrix(0.13333333,0,0,-0.13333333,0,5333.3333)" />
      <path
         id="path97"
         d="m 21021.4,19894.4 c -92.5,0 -185.1,1.2 -278.5,3.8 -1103.3,30 -2160.8,283 -3083.7,634.8 922.8,-351.3 1980.5,-604.3 3083.8,-634.6 93.8,-2.5 186.7,-3.8 279.5,-3.8 1123.8,0 2172.2,185.1 3079.6,459.8 -907.8,-274.8 -1956.5,-460 -3080.7,-460 m 3082.2,460.4 c 0.7,0.2 1.3,0.4 1.9,0.6 -0.8,-0.2 -1.1,-0.3 -1.9,-0.6 m 1420.3,548 c 0.1,0 0,0 0.1,0 -0.1,0 0,0 -0.1,0 m 1.7,0.8 c 278.9,133.7 531.3,272.5 753.3,410.9 l -0.1,-0.1 c -222,-138.3 -474.4,-277.1 -753.2,-410.8"
         style="fill:#7e7b8a;fill-opacity:1;fill-rule:nonzero;stroke:none"
         transform="matrix(0.13333333,0,0,-0.13333333,0,5333.3333)" />
      <path
         id="path98"
         d="m 21022.5,19894.6 c -92.8,0 -185.7,1.3 -279.5,3.8 -1103.3,30.3 -2161,283.3 -3083.8,634.6 -15,5.6 -29.8,11.3 -44.7,17.1 26,-0.2 52.3,-0.2 78.2,-0.2 517.6,-0.1 1022.4,30.9 1510.8,86.9 464.5,-113.9 946.2,-185.7 1441.5,-211.3 134.4,-6.9 268.6,-10.3 401.6,-10.3 3606,-0.2 6684.2,2509.6 7478.6,5943.7 -1,-25.4 -2.2,-50.8 -3.5,-76.3 -100.8,-1953.9 -944.2,-3696.5 -2242.8,-4968.1 -222,-138.4 -474.4,-277.2 -753.3,-410.9 -0.5,-0.2 -1.1,-0.5 -1.6,-0.8 -0.1,0 0,0 -0.1,0 -417.5,-200 -894.6,-388.7 -1418.4,-547.4 -0.6,-0.2 -1.2,-0.4 -1.9,-0.6 -0.4,-0.1 -1,-0.3 -1.5,-0.4 -907.4,-274.7 -1955.8,-459.8 -3079.6,-459.8"
         style="fill:#2a1a3b;fill-opacity:1;fill-rule:nonzero;stroke:none"
         transform="matrix(0.13333333,0,0,-0.13333333,0,5333.3333)" />
      <path
         id="path99"
         d="m 26278.8,21314.4 0.1,0.1 c 1298.6,1271.6 2142,3014.2 2242.8,4968.1 1.3,25.5 2.5,50.9 3.5,76.3 24.8,596 -21.3,1179.5 -130.6,1741.6 205,-598.2 302.8,-1271.2 275.5,-2022.9 -54.7,-1502.7 -593.6,-2879.6 -1469.1,-4003.3 -175.7,-225.3 -492.1,-491.8 -922.2,-759.9"
         style="fill:#2a1a3b;fill-opacity:1;fill-rule:nonzero;stroke:none"
         transform="matrix(0.13333333,0,0,-0.13333333,0,5333.3333)" />
      <path
         id="path100"
         d="m 14106.3,30005 2.4,-2.3 -2.4,2.3 M 28141,29404.3 c -43.8,0 -87.6,15.6 -122.7,47.1 -11.6,10.5 -22.8,23.3 -31.4,36.3 -1229.5,1863.9 -3694.2,2997.1 -6762.1,3108.9 -3085,112.1 -5624.6,-872.3 -6967.3,-2701.5 -2.7,-3.7 -5.6,-7.3 -8.6,-10.8 -2.1,-2.4 -5.2,-5.8 -7.4,-8.2 -69.8,-73.2 -186,-76.2 -259.3,-6.3 -69.5,66.2 -75.7,173.9 -16.8,247.4 1416.6,1925.5 4066.6,2962.4 7272.7,2846 3183.1,-116 5751.5,-1305.7 7049.1,-3264.5 52.3,-68.7 50.1,-167 -9.9,-233.6 -36.1,-40.3 -86.1,-60.8 -136.3,-60.8"
         style="fill:#371a45;fill-opacity:1;fill-rule:nonzero;stroke:none"
         transform="matrix(0.13333333,0,0,-0.13333333,0,5333.3333)" />
      <path
         id="path101"
         d="m 15037.7,24205.8 c 0,0 -1088.5,3967 1082.3,5452.9 1499.9,1026.8 3415.3,1288.2 4430,1288.2 453.8,0 727.5,-52.3 703.3,-111.8 0,0 -3396.4,-692.4 -4810.7,-3306 -1090.5,-2015.4 -1404.9,-3323.3 -1404.9,-3323.3"
         style="fill:#9b8da2;fill-opacity:1;fill-rule:nonzero;stroke:none"
         transform="matrix(0.13333333,0,0,-0.13333333,0,5333.3333)" />
      <path
         id="path102"
         d="m 26150.3,24879.9 c -27.8,0 -55.9,1.6 -83.9,4.9 -540.5,62.9 -908.2,718.6 -821.3,1464.4 82.3,707.1 543.6,1241.4 1051.9,1241.4 27.8,0 55.9,-1.6 84,-4.9 387.6,-45.2 686.4,-395.2 792.3,-864.8 -140.2,-596.1 -341.8,-1169.1 -598.2,-1713.4 -132.1,-82.1 -276.4,-127.6 -424.8,-127.6"
         style="fill:#9b8da2;fill-opacity:1;fill-rule:nonzero;stroke:none"
         transform="matrix(0.13333333,0,0,-0.13333333,0,5333.3333)" />
      <path
         id="path103"
         d="m 26575.1,25007.5 c 256.4,544.3 458,1117.3 598.2,1713.4 41.7,-185.1 53.5,-388.8 28.9,-599.7 -58.3,-500.7 -306.6,-914.7 -627.1,-1113.7"
         style="fill:#958d9d;fill-opacity:1;fill-rule:nonzero;stroke:none"
         transform="matrix(0.13333333,0,0,-0.13333333,0,5333.3333)" />
      <path
         id="path104"
         d="m 24285.9,24036.1 c -39,0 -78.3,4.8 -117.2,15 -286.3,74.5 -447.9,405.2 -361.1,738.8 74.9,288.1 310.8,484.1 558.2,484.1 38.9,0 78.2,-4.9 117.2,-15.1 286.2,-74.4 447.9,-405.2 361.1,-738.7 -75,-288.2 -310.8,-484.1 -558.2,-484.1"
         style="fill:#9b8da2;fill-opacity:1;fill-rule:nonzero;stroke:none"
         transform="matrix(0.13333333,0,0,-0.13333333,0,5333.3333)" />
      <path
         id="path105"
         d="m 10774.2,12426.7 c 0,0 -1077.55,-372.2 -804.55,-1063.6 0,0 77.75,-244.7 463.45,-174.7 385.6,70 796.2,888.6 916.6,1795.7 l 1263.4,538.7 c 0,0 88.9,-293.6 -50.9,-714 0,0 -755.2,-165.8 -787.3,-827.1 -11.4,-235.2 208.2,-421.7 434.4,-356.7 239.7,68.9 529.1,310.8 685.3,1023.9 0,0 70.7,713.6 65.8,1338.9 -2,250.8 -256.2,420.5 -488.4,325.6 l -1321.8,-539.9 c -132.2,-54 -218.3,-182 -220.3,-324.8 -3.3,-227.2 -31.7,-599.9 -155.7,-1022"
         style="fill:#371a45;fill-opacity:1;fill-rule:nonzero;stroke:none"
         transform="matrix(0.13333333,0,0,-0.13333333,0,5333.3333)" />
      <path
         id="path106"
         d="m 32242.5,28210.4 c 0,0 -922.9,-295.8 -965.1,-960 -13.6,-214.8 132.8,-405.2 343.1,-451.1 262.5,-57.2 637.8,-17.1 848.5,558.3 62.4,170.6 92.1,351.4 95.7,533 l 20.2,998.2 c 0,0 431.1,5.2 1171,-534.2 0,0 31.3,1335.7 -1315.9,1530.5 -79.2,11.5 -151.2,-47.9 -153.4,-127.9 l -44.1,-1546.8"
         style="fill:#371a45;fill-opacity:1;fill-rule:nonzero;stroke:none"
         transform="matrix(0.13333333,0,0,-0.13333333,0,5333.3333)" />
    </g>
  </g>
</svg>
